M48
;Layer_Color=9474304
;FILE_FORMAT=2:5
INCH,LZ
;TYPE=PLATED
T1F00S00C0.00787
T2F00S00C0.00800
T4F00S00C0.02559
T5F00S00C0.02756
T6F00S00C0.03543
%
T01
X0599194Y0306363
Y03103
X0603131
X0607068
Y0306363
X0603131
X0611005
Y03103
Y0314237
X0607068
X0603131
X0599194
T02
X0474667Y0295653
X047793Y02957
X04813Y02969
X048164Y0302178
X0478124Y0301952
X047496Y0305199
X0475007Y0311479
X0478192Y0311542
X047813Y0308376
X04808Y03059
X0482971Y03068
X04833Y03096
X0486178Y0308961
X04888Y03085
X0488104Y0312126
X04867Y03058
X0489Y03021
X04919Y0303527
X0492378Y0300377
X0495503Y0300872
X0495535Y0303758
X0495466Y0306712
X0495554Y0309826
X0498677
X0501827
X0504976
Y0303527
Y0300377
X05025Y03006
X0498278Y0300473
X0498677Y03034
X050182Y030666
X0508126Y0303527
X0508366Y0300467
X0508126Y0297228
X05083Y02941
X0505
X0501951Y0294167
X0501853Y02915
X0495698Y0291312
X0495551Y02969
X04987Y0296753
X0487Y02969
Y02989
X0488069Y029207
X0485197Y0292085
X05015Y02849
X05124Y02808
X0514473Y0291027
X0522287Y0290383
X05253Y029
X0530219Y0287818
X0531866Y0286023
X053649Y028691
X0535076Y0288324
X0533323Y02937
Y0300377
X0530173
Y0303527
X0527024
Y0300377
X052387Y03004
X0524362Y0296822
X0520721Y0293552
X05176Y0300352
X0517575Y0309826
X0514425
X0511276
Y0306676
X0527024
X0530173
X0533278Y0306631
X0536397Y0306695
X0536472Y0303527
X0536427Y0300442
X053973Y0297119
X0543135Y0296215
X0543Y02941
X05425Y02917
X0539705Y0291597
X05425Y0285
X05525
X05505Y0291978
Y02995
X05539Y03013
X0553194Y0304294
X05576Y03088
X0564633Y0309458
X0565498Y0307325
X05646Y03045
X0573434Y0304404
X0578145Y0306805
X0580583Y0305768
X0581099Y03077
X05848Y03017
X05876Y02989
X05912Y0298
X05922Y03006
X05919Y03026
X05971Y02995
X06Y02892
X0603498Y0289138
X0607143Y0289258
X0610616Y0289279
X06125Y0285
X06158Y02914
X06175Y0295
X06191Y02979
X06157
X061Y03
X06082Y03022
X06226Y03065
X0621Y03082
X06226Y03105
X06212Y03121
X0623048Y0297253
X06225Y0295
X06232Y02906
X062Y029
X06225Y0285
X06233Y02824
X05925Y0285
X05946Y02884
X0581464Y02871
X05797Y02885
X05772Y02891
X0574613Y0289009
X0570931Y0289831
X05725Y0285
X05625
X0563008Y0292652
X05615Y02951
X05824Y02835
X0530168Y0309914
X0469853Y030169
X0466115Y0302915
X0463997Y0303563
X0462403Y0305094
X0463445Y0307566
X0458784Y0308333
X0459201Y0311764
X0456Y03118
X04527Y03098
X04525Y03067
X04519Y03049
X04498Y0305
X045Y03
X04507Y02959
X04475Y0295
X0452687Y0291928
X04577Y02918
X04631Y02928
X04652Y02984
X0464663Y030042
X0459201Y0298835
X0456076Y0301952
Y0305102
X04471Y03085
X0438165Y0309815
X0436751Y0308401
X04375Y0305
X0435Y03
X0432Y02982
Y0296
X0431846Y0291795
X0431815Y0289704
X0435Y029
X04304Y02998
X04284Y02997
X04263Y03037
X0424Y0304
X04261Y0306588
X0429698Y03091
X04303Y0312
X04178Y03117
X0419127Y0304343
X04174Y0303
X04682Y03087
X046729Y0310642
X0467096Y0313608
X04669Y03157
X0462591Y0316124
X0463577Y0313035
X045877Y0314686
X0459226Y03177
Y0323999
X0459308Y0327141
X0456063Y0327125
X0453204Y0326973
X0451188
X0451518Y03234
X0451777Y0318832
X0452419Y0316211
X04523Y03132
X04472Y03142
X04426Y03156
X04375Y0315
X04305Y03143
X042977Y0316311
X04353Y0324
X04411Y03233
X04441Y0321
X0448348Y03209
X0456143Y03211
X0463Y03249
Y03305
Y03325
X0465477Y03332
X0466669Y0331545
X046709Y032959
X04684Y0324
X0468Y03208
X04683Y03397
X04632Y03412
X04628Y03366
X04561Y03365
X04529Y03351
X0450575Y0335335
X04502Y0338
X0450572Y0340606
X04545Y03431
X0447708Y0344465
X04457Y03482
X0443265Y0348509
X04401Y0352
X04303Y03524
X0428Y03523
X04282Y0348
X04283Y03461
X04304
X043035Y0347977
X04332Y03458
X04331Y03439
X044286Y0340471
X04313Y03297
X042Y033
X04195Y03427
X0420146Y0348317
X0419848Y0350871
X04527Y03545
X04627
X0419326Y031346
X047094Y031364
X0469733Y03159
X0470056Y0321525
X0474974Y0324
Y03272
X04749Y03305
X0474974Y0333448
X0478124
Y0330298
X048111Y033071
X0481212Y0328702
X0485299Y032885
X04868Y03257
X04885Y03246
X04886Y03218
X04864Y03229
X04877Y03174
X048941Y03148
X0486737Y0313637
X048283Y03188
X047864Y03148
X0474997Y031428
X0475013Y0317978
X0471585Y0327426
X047025Y0338172
X0474974Y0336598
X04782Y03398
X04815Y03395
X048101Y034291
X0478498Y034353
X0471992Y0342803
X04722Y03453
X04726Y03545
X04823
X04926
X05022
X05118
X05225
X05325Y03543
X05424Y03545
X05526
X05626
X05724
X05824
X05918
X059255Y034935
X059255Y034464
X0596813Y0345435
X06035Y03467
X06028Y03503
X06129Y03499
X06156Y03451
X0617353Y03392
X06135Y03378
X0611Y03359
X06111Y03327
X06054Y03281
X0601Y0328
X0594512Y03267
X05945Y03326
X05901Y0333777
X059Y0330737
X05863Y03312
X05831Y0336
X0579341Y0337859
X0575724Y0337057
X057281Y03433
X05653Y03387
X05628Y03374
X0560237Y03379
X05669Y03341
X0564068Y032877
X0564129Y0325082
X0561833Y0318584
X0564398Y0315617
X0564678Y0312707
X05528Y0312749
X05519Y03154
X05442Y03201
X053955Y0319706
X05395Y03163
X05365
X0536472Y0319275
X0533323
Y0316125
X0530173
Y0319275
Y0312976
X0533323
X05366Y0313
X0539622Y0312976
X05368Y03221
X05333Y03257
X0530173Y0325574
Y0328724
Y0331873
X0527024
X0523874
X0527024Y0335023
X0523874Y0338172
X0520724
Y0341322
X0511276Y0338172
Y0331873
Y0328724
Y0322768
X0508251Y0322424
X05082Y0325569
X0504598Y0325498
X0501827Y0325574
X0498677
X0495528
Y0328724
X0498677
Y03319
X0495528
Y0335023
Y0338172
X048975Y0338165
X04891Y0340356
Y0342949
X048924Y0346761
X04939Y0345
X0498Y03446
X0500802Y0345408
X050184Y034096
X0501827Y03381
Y0335023
Y03319
X05019Y03288
X0501827Y0322424
X0498677
X0495582Y0322479
X0495529Y0319179
X0498677Y0319275
X0501827
X0501827Y0316125
X0504976
X0504806Y0322242
X0511276Y0319275
Y0316125
Y0312976
X0517575Y0316125
X0517382Y032085
X0517575Y0325574
X0520724
X0523874
X0527024Y0322424
Y0316125
Y0312976
X0520724Y0319275
X0498677Y0316125
Y0312976
X0501827
X0495528Y03127
X0495586Y03155
X0492378Y03319
Y0335023
X04891Y03358
X048874Y033364
X0481644Y0335144
X0504976Y0335023
Y0332351
X0508126Y0331873
X0497Y03474
X0533323Y0341322
Y0338172
X0530207Y0338165
X0536472Y0338172
X0539622Y0341322
X05425Y03421
X0542916Y033755
X054482Y0331
X0546622Y0328662
X0545Y03258
X05514Y03289
X05557Y03247
X05395Y03319
X05795Y03275
X05802Y03234
X058Y032
X057639Y03136
X06Y032
X0605
X06113Y0319
X06217Y03197
X06228Y03172
X06225Y0315
X06221Y03239
X06222Y0327142
X0621Y03358
X0623Y03486
X06229Y03526
X06228Y03549
X0587525Y0345665
T04
X0434101Y0326422
Y0349178
T05
X04395Y0285032
Y0290544
Y0296056
Y0301568
T06
X04775Y02825
X04875
X04975
X05075
X05175
X05275
X05375
X05475
X05575
X05675
X05775
X05875
X05975
X06075
X06175
X04675
X04575
X04475
Y03525
X04575
X04675
X04775
X04875
X04975
X05075
X05175
X05275
X05375
X05475
X05575
X05675
X05775
X05875
X05975
X06075
X06175
M30
