G04*
G04 #@! TF.GenerationSoftware,Altium Limited,Altium Designer,20.2.6 (244)*
G04*
G04 Layer_Physical_Order=4*
G04 Layer_Color=6759642*
%FSLAX25Y25*%
%MOIN*%
G70*
G04*
G04 #@! TF.SameCoordinates,16F8584A-9F4C-4420-89FF-FEA793B533B6*
G04*
G04*
G04 #@! TF.FilePolarity,Positive*
G04*
G01*
G75*
%ADD34C,0.05906*%
%ADD35R,0.05906X0.05906*%
%ADD37C,0.03937*%
%ADD38O,0.07874X0.06890*%
%ADD40C,0.01200*%
%ADD41C,0.00400*%
%ADD51C,0.01600*%
%ADD61C,0.00400*%
G36*
X624300Y279539D02*
X619970D01*
X619800Y280039D01*
X619891Y280109D01*
X620429Y280809D01*
X620766Y281625D01*
X620882Y282500D01*
X620766Y283375D01*
X620429Y284191D01*
X619891Y284891D01*
X619191Y285429D01*
X618375Y285766D01*
X617500Y285882D01*
X616625Y285766D01*
X615809Y285429D01*
X615109Y284891D01*
X614571Y284191D01*
X614234Y283375D01*
X614118Y282500D01*
X614234Y281625D01*
X614571Y280809D01*
X615109Y280109D01*
X615200Y280039D01*
X615030Y279539D01*
X609970D01*
X609800Y280039D01*
X609891Y280109D01*
X610429Y280809D01*
X610766Y281625D01*
X610882Y282500D01*
X610766Y283375D01*
X610429Y284191D01*
X609891Y284891D01*
X609191Y285429D01*
X608375Y285766D01*
X607500Y285882D01*
X606625Y285766D01*
X605809Y285429D01*
X605109Y284891D01*
X604571Y284191D01*
X604234Y283375D01*
X604204Y283149D01*
X603569D01*
X596059Y290659D01*
X595600Y290849D01*
X578300D01*
X577841Y290659D01*
X577454Y290273D01*
X577200Y290323D01*
X576732Y290230D01*
X576335Y289965D01*
X576167Y289714D01*
X575685Y289671D01*
X575598Y289694D01*
X575478Y289874D01*
X575081Y290139D01*
X574613Y290232D01*
X574145Y290139D01*
X573748Y289874D01*
X573483Y289477D01*
X573389Y289009D01*
X573483Y288541D01*
X573748Y288144D01*
X574145Y287878D01*
X574613Y287785D01*
X575081Y287878D01*
X575478Y288144D01*
X575646Y288395D01*
X576128Y288438D01*
X576215Y288415D01*
X576335Y288235D01*
X576732Y287970D01*
X577200Y287877D01*
X577668Y287970D01*
X578025Y288208D01*
X578259Y288173D01*
X578561Y288076D01*
X578570Y288032D01*
X578835Y287635D01*
X579232Y287370D01*
X579700Y287277D01*
X579768Y287290D01*
X580232Y287103D01*
X580276Y286920D01*
X580333Y286632D01*
X580598Y286235D01*
X580995Y285970D01*
X581464Y285876D01*
X581932Y285970D01*
X582247Y286180D01*
X584473Y283953D01*
X584234Y283375D01*
X584118Y282500D01*
X584234Y281625D01*
X584571Y280809D01*
X585109Y280109D01*
X585200Y280039D01*
X585030Y279539D01*
X579970D01*
X579800Y280039D01*
X579891Y280109D01*
X580429Y280809D01*
X580766Y281625D01*
X580882Y282500D01*
X580766Y283375D01*
X580429Y284191D01*
X579891Y284891D01*
X579191Y285429D01*
X578375Y285766D01*
X577500Y285882D01*
X576625Y285766D01*
X575809Y285429D01*
X575109Y284891D01*
X574571Y284191D01*
X574234Y283375D01*
X574118Y282500D01*
X574234Y281625D01*
X574571Y280809D01*
X575109Y280109D01*
X575200Y280039D01*
X575030Y279539D01*
X569970D01*
X569800Y280039D01*
X569891Y280109D01*
X570429Y280809D01*
X570766Y281625D01*
X570882Y282500D01*
X570766Y283375D01*
X570429Y284191D01*
X569891Y284891D01*
X569191Y285429D01*
X568375Y285766D01*
X567500Y285882D01*
X566625Y285766D01*
X565809Y285429D01*
X565628Y285290D01*
X553159Y297759D01*
X552700Y297949D01*
X551224D01*
X551088Y298449D01*
X551365Y298635D01*
X551630Y299032D01*
X551723Y299500D01*
X551630Y299968D01*
X551365Y300365D01*
X550968Y300630D01*
X550500Y300724D01*
X550249Y300674D01*
X549749Y300997D01*
Y306831D01*
X551569Y308651D01*
X554263D01*
X554722Y308841D01*
X558959Y313078D01*
X559149Y313537D01*
Y326200D01*
X558959Y326659D01*
X553330Y332289D01*
X553521Y332751D01*
X559931D01*
X561941Y330741D01*
X562400Y330551D01*
X585291D01*
X585435Y330335D01*
X585832Y330070D01*
X586300Y329977D01*
X586768Y330070D01*
X587165Y330335D01*
X587430Y330732D01*
X587524Y331200D01*
X587430Y331668D01*
X587165Y332065D01*
X586768Y332330D01*
X586300Y332423D01*
X585832Y332330D01*
X585435Y332065D01*
X585291Y331849D01*
X562669D01*
X560659Y333859D01*
X560625Y333873D01*
X560724Y334373D01*
X565452D01*
X565676Y334100D01*
X565770Y333632D01*
X566035Y333235D01*
X566432Y332970D01*
X566900Y332876D01*
X567368Y332970D01*
X567765Y333235D01*
X568030Y333632D01*
X568123Y334100D01*
X568074Y334351D01*
X568397Y334851D01*
X574281D01*
X574991Y334141D01*
X575450Y333951D01*
X585600D01*
X586059Y334141D01*
X591009Y339091D01*
X591199Y339550D01*
Y343601D01*
X591609Y343748D01*
X591699Y343765D01*
X592082Y343510D01*
X592550Y343417D01*
X593018Y343510D01*
X593415Y343775D01*
X593680Y344172D01*
X593773Y344640D01*
X593680Y345108D01*
X593415Y345505D01*
X593018Y345771D01*
X592550Y345864D01*
X592082Y345771D01*
X591699Y345515D01*
X591609Y345532D01*
X591199Y345679D01*
Y347081D01*
X592296Y348177D01*
X592550Y348127D01*
X593018Y348220D01*
X593415Y348485D01*
X593680Y348882D01*
X593774Y349350D01*
X593680Y349818D01*
X593415Y350215D01*
X593018Y350480D01*
X592550Y350573D01*
X592082Y350480D01*
X591685Y350215D01*
X591420Y349818D01*
X591327Y349350D01*
X591377Y349096D01*
X590091Y347809D01*
X589901Y347350D01*
Y339819D01*
X585331Y335249D01*
X576116D01*
X575953Y335366D01*
X575951Y335369D01*
X576192Y335927D01*
X576589Y336192D01*
X576854Y336589D01*
X576947Y337057D01*
X576854Y337526D01*
X576589Y337923D01*
X576192Y338188D01*
X575724Y338281D01*
X575255Y338188D01*
X574858Y337923D01*
X574593Y337526D01*
X574500Y337057D01*
X574584Y336635D01*
X574552Y336531D01*
X574286Y336149D01*
X566320D01*
X565861Y335959D01*
X565574Y335672D01*
X557655D01*
X557448Y336172D01*
X566826Y345551D01*
X581200D01*
X581659Y345741D01*
X585629Y349710D01*
X585809Y349571D01*
X586625Y349234D01*
X587500Y349118D01*
X588375Y349234D01*
X589191Y349571D01*
X589891Y350109D01*
X590429Y350809D01*
X590766Y351625D01*
X590882Y352500D01*
X590766Y353375D01*
X590429Y354191D01*
X589891Y354891D01*
X589800Y354961D01*
X589970Y355461D01*
X595030D01*
X595200Y354961D01*
X595109Y354891D01*
X594571Y354191D01*
X594234Y353375D01*
X594118Y352500D01*
X594234Y351625D01*
X594571Y350809D01*
X595109Y350109D01*
X595809Y349571D01*
X596625Y349234D01*
X597500Y349118D01*
X597564Y349062D01*
Y336814D01*
X595741Y334991D01*
X595551Y334531D01*
Y333943D01*
X595051Y333675D01*
X594968Y333730D01*
X594500Y333823D01*
X594032Y333730D01*
X593635Y333465D01*
X593370Y333068D01*
X593277Y332600D01*
X593370Y332132D01*
X593635Y331735D01*
X594032Y331470D01*
X594500Y331377D01*
X594968Y331470D01*
X595051Y331525D01*
X595551Y331257D01*
Y328050D01*
X595051Y327783D01*
X594980Y327830D01*
X594512Y327923D01*
X594044Y327830D01*
X593647Y327565D01*
X593381Y327168D01*
X593288Y326700D01*
X593381Y326232D01*
X593647Y325835D01*
X594044Y325570D01*
X594512Y325477D01*
X594980Y325570D01*
X595051Y325617D01*
X595551Y325349D01*
Y317500D01*
X580800Y302749D01*
X555869D01*
X554402Y304216D01*
X554418Y304294D01*
X554325Y304763D01*
X554060Y305159D01*
X553663Y305425D01*
X553194Y305518D01*
X552726Y305425D01*
X552329Y305159D01*
X552064Y304763D01*
X551971Y304294D01*
X552064Y303826D01*
X552329Y303429D01*
X552726Y303164D01*
X553194Y303071D01*
X553275Y303087D01*
X553411Y302936D01*
X553416Y302813D01*
X553284Y302332D01*
X553035Y302165D01*
X552770Y301768D01*
X552676Y301300D01*
X552770Y300832D01*
X553035Y300435D01*
X553432Y300170D01*
X553900Y300077D01*
X554368Y300170D01*
X554765Y300435D01*
X554909Y300651D01*
X581400D01*
X581859Y300841D01*
X583153Y302135D01*
X583614Y301888D01*
X583576Y301700D01*
X583670Y301232D01*
X583935Y300835D01*
X584332Y300570D01*
X584800Y300477D01*
X585268Y300570D01*
X585665Y300835D01*
X585930Y301232D01*
X586024Y301700D01*
X585930Y302168D01*
X585665Y302565D01*
X585268Y302830D01*
X584800Y302923D01*
X584612Y302886D01*
X584365Y303347D01*
X597459Y316441D01*
X597649Y316900D01*
Y333931D01*
X607959Y344241D01*
X608149Y344700D01*
Y349204D01*
X608375Y349234D01*
X609191Y349571D01*
X609891Y350109D01*
X610429Y350809D01*
X610766Y351625D01*
X610882Y352500D01*
X610766Y353375D01*
X610429Y354191D01*
X609891Y354891D01*
X609800Y354961D01*
X609970Y355461D01*
X615030D01*
X615200Y354961D01*
X615109Y354891D01*
X614571Y354191D01*
X614234Y353375D01*
X614118Y352500D01*
X614234Y351625D01*
X614571Y350809D01*
X615109Y350109D01*
X615809Y349571D01*
X616625Y349234D01*
X617500Y349118D01*
X618375Y349234D01*
X619191Y349571D01*
X619891Y350109D01*
X620429Y350809D01*
X620766Y351625D01*
X620882Y352500D01*
X620766Y353375D01*
X620429Y354191D01*
X619891Y354891D01*
X619800Y354961D01*
X619970Y355461D01*
X624300D01*
Y279539D01*
D02*
G37*
G36*
X585200Y354961D02*
X585109Y354891D01*
X584571Y354191D01*
X584234Y353375D01*
X584118Y352500D01*
X584234Y351625D01*
X584571Y350809D01*
X584710Y350628D01*
X580931Y346849D01*
X573475D01*
X573268Y347349D01*
X575629Y349710D01*
X575809Y349571D01*
X576625Y349234D01*
X577500Y349118D01*
X578375Y349234D01*
X579191Y349571D01*
X579891Y350109D01*
X580429Y350809D01*
X580766Y351625D01*
X580882Y352500D01*
X580766Y353375D01*
X580429Y354191D01*
X579891Y354891D01*
X579800Y354961D01*
X579970Y355461D01*
X585030D01*
X585200Y354961D01*
D02*
G37*
G36*
X575200D02*
X575109Y354891D01*
X574571Y354191D01*
X574234Y353375D01*
X574118Y352500D01*
X574234Y351625D01*
X574571Y350809D01*
X574710Y350628D01*
X572331Y348249D01*
X565800D01*
X565341Y348059D01*
X557731Y340449D01*
X541084D01*
X540953Y340609D01*
X540771Y340949D01*
X540846Y341322D01*
X540752Y341790D01*
X540487Y342187D01*
X540449Y342212D01*
Y343431D01*
X541869Y344851D01*
X560500D01*
X560959Y345041D01*
X565628Y349710D01*
X565809Y349571D01*
X566625Y349234D01*
X567500Y349118D01*
X568375Y349234D01*
X569191Y349571D01*
X569891Y350109D01*
X570429Y350809D01*
X570766Y351625D01*
X570882Y352500D01*
X570766Y353375D01*
X570429Y354191D01*
X569891Y354891D01*
X569800Y354961D01*
X569970Y355461D01*
X575030D01*
X575200Y354961D01*
D02*
G37*
G36*
X565200D02*
X565109Y354891D01*
X564571Y354191D01*
X564234Y353375D01*
X564118Y352500D01*
X564234Y351625D01*
X564571Y350809D01*
X564710Y350628D01*
X560231Y346149D01*
X552721D01*
X552530Y346611D01*
X555628Y349710D01*
X555809Y349571D01*
X556625Y349234D01*
X557500Y349118D01*
X558375Y349234D01*
X559191Y349571D01*
X559891Y350109D01*
X560429Y350809D01*
X560766Y351625D01*
X560882Y352500D01*
X560766Y353375D01*
X560429Y354191D01*
X559891Y354891D01*
X559800Y354961D01*
X559970Y355461D01*
X565030D01*
X565200Y354961D01*
D02*
G37*
G36*
X555200D02*
X555109Y354891D01*
X554571Y354191D01*
X554234Y353375D01*
X554118Y352500D01*
X554234Y351625D01*
X554571Y350809D01*
X554710Y350628D01*
X551231Y347149D01*
X543721D01*
X543530Y347611D01*
X545628Y349710D01*
X545809Y349571D01*
X546625Y349234D01*
X547500Y349118D01*
X548375Y349234D01*
X549191Y349571D01*
X549891Y350109D01*
X550429Y350809D01*
X550766Y351625D01*
X550882Y352500D01*
X550766Y353375D01*
X550429Y354191D01*
X549891Y354891D01*
X549800Y354961D01*
X549970Y355461D01*
X555030D01*
X555200Y354961D01*
D02*
G37*
G36*
X545200D02*
X545109Y354891D01*
X544571Y354191D01*
X544234Y353375D01*
X544118Y352500D01*
X544234Y351625D01*
X544571Y350809D01*
X544710Y350628D01*
X542231Y348149D01*
X534721D01*
X534530Y348611D01*
X535629Y349710D01*
X535809Y349571D01*
X536625Y349234D01*
X537500Y349118D01*
X538375Y349234D01*
X539191Y349571D01*
X539891Y350109D01*
X540429Y350809D01*
X540766Y351625D01*
X540882Y352500D01*
X540766Y353375D01*
X540429Y354191D01*
X539891Y354891D01*
X539800Y354961D01*
X539970Y355461D01*
X545030D01*
X545200Y354961D01*
D02*
G37*
G36*
X535200D02*
X535109Y354891D01*
X534571Y354191D01*
X534234Y353375D01*
X534118Y352500D01*
X534234Y351625D01*
X534571Y350809D01*
X534710Y350628D01*
X531731Y347649D01*
X524038D01*
X523939Y348149D01*
X524159Y348241D01*
X525629Y349710D01*
X525809Y349571D01*
X526625Y349234D01*
X527500Y349118D01*
X528375Y349234D01*
X529191Y349571D01*
X529891Y350109D01*
X530429Y350809D01*
X530766Y351625D01*
X530882Y352500D01*
X530766Y353375D01*
X530429Y354191D01*
X529891Y354891D01*
X529800Y354961D01*
X529970Y355461D01*
X535030D01*
X535200Y354961D01*
D02*
G37*
G36*
X515200D02*
X515109Y354891D01*
X514571Y354191D01*
X514234Y353375D01*
X514118Y352500D01*
X514234Y351625D01*
X514571Y350809D01*
X514710Y350628D01*
X512531Y348449D01*
X505021D01*
X504830Y348911D01*
X505628Y349710D01*
X505809Y349571D01*
X506625Y349234D01*
X507500Y349118D01*
X508375Y349234D01*
X509191Y349571D01*
X509891Y350109D01*
X510429Y350809D01*
X510766Y351625D01*
X510882Y352500D01*
X510766Y353375D01*
X510429Y354191D01*
X509891Y354891D01*
X509800Y354961D01*
X509970Y355461D01*
X515030D01*
X515200Y354961D01*
D02*
G37*
G36*
X475200D02*
X475109Y354891D01*
X474571Y354191D01*
X474234Y353375D01*
X474118Y352500D01*
X474234Y351625D01*
X474571Y350809D01*
X475109Y350109D01*
X475809Y349571D01*
X476625Y349234D01*
X477500Y349118D01*
X478375Y349234D01*
X479191Y349571D01*
X479372Y349710D01*
X485216Y343865D01*
X485191Y343735D01*
X484649Y343570D01*
X480776Y347442D01*
X480638Y347499D01*
X480424Y347642D01*
X480158Y347695D01*
X480023Y347749D01*
X447206Y347463D01*
X446876Y347960D01*
X446923Y348200D01*
X446830Y348668D01*
X446565Y349065D01*
X446168Y349330D01*
X445700Y349424D01*
X445232Y349330D01*
X444874Y349092D01*
X444790Y349072D01*
X444285Y349142D01*
X444130Y349374D01*
X443733Y349640D01*
X443265Y349733D01*
X442797Y349640D01*
X442400Y349374D01*
X442134Y348977D01*
X442041Y348509D01*
X442112Y348153D01*
X441907Y347804D01*
X441780Y347671D01*
X440428Y347748D01*
X440323Y347711D01*
X439976Y347642D01*
X439762Y347499D01*
X439624Y347442D01*
X425341Y333159D01*
X425151Y332700D01*
Y314969D01*
X418668Y308486D01*
X418477Y308027D01*
Y305352D01*
X418262Y305208D01*
X417996Y304811D01*
X417903Y304343D01*
X417996Y303874D01*
X418262Y303477D01*
X418659Y303212D01*
X419127Y303119D01*
X419595Y303212D01*
X419992Y303477D01*
X420257Y303874D01*
X420350Y304343D01*
X420257Y304811D01*
X419992Y305208D01*
X419776Y305352D01*
Y307758D01*
X426259Y314241D01*
X426449Y314700D01*
Y332431D01*
X440463Y346445D01*
X445584Y346154D01*
X445639Y346173D01*
X445686Y346164D01*
X445718Y346151D01*
X479932Y346450D01*
X481382Y345000D01*
X481174Y344500D01*
X479207D01*
X478966Y344661D01*
X478498Y344754D01*
X478030Y344661D01*
X477789Y344500D01*
X453200D01*
X453360Y328326D01*
X453204Y328197D01*
X452736Y328104D01*
X452339Y327839D01*
X452074Y327442D01*
X451981Y326973D01*
X452074Y326505D01*
X452339Y326108D01*
X452736Y325843D01*
X453204Y325750D01*
X453387Y325602D01*
X453451Y319134D01*
X452951Y319082D01*
X452908Y319300D01*
X452642Y319697D01*
X452246Y319963D01*
X451777Y320056D01*
X451309Y319963D01*
X450912Y319697D01*
X450647Y319300D01*
X450554Y318832D01*
X450647Y318364D01*
X450912Y317967D01*
X451309Y317702D01*
X451526Y317659D01*
X451632Y317128D01*
X451554Y317076D01*
X451289Y316679D01*
X451195Y316211D01*
X451289Y315742D01*
X451554Y315345D01*
X451951Y315080D01*
X452419Y314987D01*
X452887Y315080D01*
X452990Y315149D01*
X453493Y314883D01*
X453560Y308036D01*
X453063Y307767D01*
X452968Y307830D01*
X452500Y307924D01*
X452032Y307830D01*
X451635Y307565D01*
X451370Y307168D01*
X451276Y306700D01*
X451354Y306312D01*
X451042Y305890D01*
X450665Y305865D01*
X450268Y306130D01*
X449800Y306224D01*
X449332Y306130D01*
X448935Y305865D01*
X448670Y305468D01*
X448576Y305000D01*
X448670Y304532D01*
X448935Y304135D01*
X449332Y303870D01*
X449800Y303777D01*
X450268Y303870D01*
X450459Y303997D01*
X451035Y304035D01*
X451432Y303770D01*
X451900Y303677D01*
X452368Y303770D01*
X452765Y304035D01*
X453030Y304432D01*
X453093Y304746D01*
X453593Y304699D01*
X453700Y293900D01*
X460579Y287021D01*
X459047Y285488D01*
X458375Y285766D01*
X457500Y285882D01*
X456625Y285766D01*
X455809Y285429D01*
X455109Y284891D01*
X454571Y284191D01*
X454234Y283375D01*
X454118Y282500D01*
X454234Y281625D01*
X454571Y280809D01*
X455109Y280109D01*
X455200Y280039D01*
X455030Y279539D01*
X417039D01*
Y310210D01*
X417539Y310528D01*
X417800Y310476D01*
X418268Y310570D01*
X418665Y310835D01*
X418930Y311232D01*
X419024Y311700D01*
X419005Y311791D01*
X419326Y312237D01*
X419794Y312330D01*
X420191Y312595D01*
X420456Y312992D01*
X420549Y313460D01*
X420456Y313929D01*
X420191Y314326D01*
X419794Y314591D01*
X419326Y314684D01*
X418857Y314591D01*
X418461Y314326D01*
X418195Y313929D01*
X418102Y313460D01*
X418120Y313370D01*
X417800Y312924D01*
X417539Y312872D01*
X417039Y313190D01*
Y318088D01*
X417426Y318405D01*
X417565Y318377D01*
X421896D01*
X422820Y318561D01*
X423604Y319085D01*
X424127Y319868D01*
X424311Y320792D01*
X424127Y321716D01*
X423604Y322500D01*
X422820Y323023D01*
X421896Y323207D01*
X417565D01*
X417426Y323179D01*
X417039Y323496D01*
Y352104D01*
X417426Y352421D01*
X417565Y352393D01*
X419066D01*
X419218Y351893D01*
X418983Y351736D01*
X418718Y351339D01*
X418625Y350871D01*
X418718Y350403D01*
X418983Y350006D01*
X419299Y349795D01*
X419368Y349446D01*
X419360Y349235D01*
X419281Y349182D01*
X419016Y348785D01*
X418923Y348317D01*
X419016Y347849D01*
X419281Y347452D01*
X419678Y347186D01*
X420146Y347093D01*
X420614Y347186D01*
X421011Y347452D01*
X421277Y347849D01*
X421370Y348317D01*
X421277Y348785D01*
X421011Y349182D01*
X420696Y349393D01*
X420626Y349742D01*
X420635Y349953D01*
X420714Y350006D01*
X420979Y350403D01*
X421072Y350871D01*
X420979Y351339D01*
X420714Y351736D01*
X420479Y351893D01*
X420630Y352393D01*
X421896D01*
X422820Y352577D01*
X423604Y353100D01*
X424127Y353884D01*
X424311Y354808D01*
X424258Y355074D01*
X424575Y355461D01*
X431225D01*
X431542Y355074D01*
X431489Y354808D01*
X431673Y353884D01*
X432196Y353100D01*
X432980Y352577D01*
X433904Y352393D01*
X438235D01*
X439159Y352577D01*
X439942Y353100D01*
X440466Y353884D01*
X440650Y354808D01*
X440596Y355074D01*
X440914Y355461D01*
X455030D01*
X455200Y354961D01*
X455109Y354891D01*
X454571Y354191D01*
X454234Y353375D01*
X454118Y352500D01*
X454234Y351625D01*
X454571Y350809D01*
X455109Y350109D01*
X455809Y349571D01*
X456625Y349234D01*
X457500Y349118D01*
X458375Y349234D01*
X459191Y349571D01*
X459891Y350109D01*
X460429Y350809D01*
X460766Y351625D01*
X460882Y352500D01*
X460766Y353375D01*
X460429Y354191D01*
X459891Y354891D01*
X459800Y354961D01*
X459970Y355461D01*
X465030D01*
X465200Y354961D01*
X465109Y354891D01*
X464571Y354191D01*
X464234Y353375D01*
X464118Y352500D01*
X464234Y351625D01*
X464571Y350809D01*
X465109Y350109D01*
X465809Y349571D01*
X466625Y349234D01*
X467500Y349118D01*
X468375Y349234D01*
X469191Y349571D01*
X469891Y350109D01*
X470429Y350809D01*
X470766Y351625D01*
X470882Y352500D01*
X470766Y353375D01*
X470429Y354191D01*
X469891Y354891D01*
X469800Y354961D01*
X469970Y355461D01*
X475030D01*
X475200Y354961D01*
D02*
G37*
G36*
X494234Y351625D02*
X494571Y350809D01*
X495109Y350109D01*
X495317Y349949D01*
X495147Y349449D01*
X494600D01*
X494141Y349259D01*
X490941Y346059D01*
X490751Y345600D01*
Y340772D01*
X490251Y340723D01*
X490230Y340824D01*
X489965Y341221D01*
X489568Y341486D01*
X489100Y341580D01*
X488849Y341530D01*
X488349Y341853D01*
Y345311D01*
X488604Y345503D01*
X488849Y345615D01*
X489240Y345537D01*
X489709Y345630D01*
X490105Y345895D01*
X490371Y346292D01*
X490464Y346761D01*
X490371Y347229D01*
X490105Y347626D01*
X489893Y347768D01*
X489768Y348350D01*
X493269Y351851D01*
X494204D01*
X494234Y351625D01*
D02*
G37*
G36*
X485200Y354961D02*
X485109Y354891D01*
X484571Y354191D01*
X484234Y353375D01*
X484118Y352500D01*
X484234Y351625D01*
X484571Y350809D01*
X485109Y350109D01*
X485809Y349571D01*
X486251Y349389D01*
Y345321D01*
X485789Y345130D01*
X480290Y350628D01*
X480429Y350809D01*
X480766Y351625D01*
X480882Y352500D01*
X480766Y353375D01*
X480429Y354191D01*
X479891Y354891D01*
X479800Y354961D01*
X479970Y355461D01*
X485030D01*
X485200Y354961D01*
D02*
G37*
G36*
X512855Y346673D02*
X511231Y345049D01*
X503300D01*
X502841Y344859D01*
X498218Y340236D01*
X498028Y339777D01*
Y334127D01*
X497528Y333941D01*
X496700Y334768D01*
X496751Y335023D01*
X496658Y335491D01*
X496393Y335888D01*
X495996Y336153D01*
X495528Y336246D01*
X495059Y336153D01*
X494662Y335888D01*
X494397Y335491D01*
X494304Y335023D01*
X494397Y334555D01*
X494662Y334158D01*
X495059Y333892D01*
X495528Y333799D01*
X495782Y333850D01*
X496147Y333485D01*
X495869Y333055D01*
X495528Y333123D01*
X495059Y333030D01*
X494662Y332765D01*
X494397Y332368D01*
X494385Y332307D01*
X493843Y332142D01*
X493290Y332695D01*
X493243Y332765D01*
X493172Y332812D01*
X492643Y333342D01*
X492807Y333885D01*
X492846Y333892D01*
X493243Y334158D01*
X493508Y334555D01*
X493602Y335023D01*
X493508Y335491D01*
X493243Y335888D01*
X493049Y336017D01*
Y337600D01*
X493027Y337653D01*
Y340689D01*
X496411Y344072D01*
X496993Y343947D01*
X497135Y343735D01*
X497532Y343470D01*
X498000Y343376D01*
X498468Y343470D01*
X498865Y343735D01*
X499130Y344132D01*
X499224Y344600D01*
X499194Y344750D01*
X499300Y344840D01*
X499829Y344704D01*
X499936Y344542D01*
X500333Y344277D01*
X500802Y344184D01*
X501270Y344277D01*
X501667Y344542D01*
X501932Y344939D01*
X502025Y345408D01*
X501932Y345876D01*
X501667Y346273D01*
X501499Y346385D01*
X501342Y346954D01*
X501356Y347031D01*
X501445Y347151D01*
X512625D01*
X512855Y346673D01*
D02*
G37*
G36*
X531170Y345889D02*
X529748Y344467D01*
X529558Y344007D01*
Y339593D01*
X529449Y339512D01*
X528949Y339763D01*
Y339800D01*
X528759Y340259D01*
X527237Y341781D01*
X526778Y341971D01*
X521734D01*
X521590Y342187D01*
X521193Y342452D01*
X520724Y342546D01*
X520256Y342452D01*
X519859Y342187D01*
X519594Y341790D01*
X519501Y341322D01*
X519594Y340854D01*
X519859Y340457D01*
X520256Y340192D01*
X520724Y340099D01*
X521193Y340192D01*
X521590Y340457D01*
X521734Y340673D01*
X526509D01*
X527651Y339531D01*
Y338093D01*
X527841Y337634D01*
X529302Y336172D01*
X529095Y335672D01*
X528033D01*
X527889Y335888D01*
X527492Y336153D01*
X527024Y336246D01*
X526555Y336153D01*
X526159Y335888D01*
X525893Y335491D01*
X525800Y335023D01*
X525875Y334648D01*
X525609Y334422D01*
X525462Y334353D01*
X521897Y337918D01*
X521948Y338172D01*
X521855Y338641D01*
X521590Y339038D01*
X521193Y339303D01*
X520724Y339396D01*
X520256Y339303D01*
X519859Y339038D01*
X519594Y338641D01*
X519501Y338172D01*
X519594Y337704D01*
X519859Y337307D01*
X520256Y337042D01*
X520724Y336949D01*
X520979Y337000D01*
X525038Y332941D01*
X525497Y332751D01*
X528715D01*
X528849Y332583D01*
X529025Y332251D01*
X528950Y331873D01*
X529043Y331405D01*
X529308Y331008D01*
X529705Y330743D01*
X530173Y330650D01*
X530641Y330743D01*
X531038Y331008D01*
X531304Y331405D01*
X531397Y331873D01*
X531322Y332251D01*
X531497Y332583D01*
X531632Y332751D01*
X541679D01*
X541870Y332289D01*
X540731Y331149D01*
X535099D01*
X534640Y330959D01*
X531735Y328054D01*
X531588Y328122D01*
X531322Y328348D01*
X531397Y328724D01*
X531304Y329192D01*
X531038Y329589D01*
X530641Y329854D01*
X530173Y329947D01*
X529705Y329854D01*
X529308Y329589D01*
X529043Y329192D01*
X528950Y328724D01*
X529043Y328255D01*
X529308Y327858D01*
X529705Y327593D01*
X530173Y327500D01*
X530548Y327575D01*
X530774Y327309D01*
X530843Y327162D01*
X530428Y326747D01*
X530173Y326798D01*
X529705Y326704D01*
X529308Y326439D01*
X529043Y326042D01*
X528950Y325574D01*
X529043Y325106D01*
X529308Y324709D01*
X529705Y324444D01*
X530173Y324351D01*
X530596Y324435D01*
X530625Y324412D01*
X530734Y323865D01*
X521341Y314472D01*
X521151Y314013D01*
Y310569D01*
X511641Y301059D01*
X511637Y301051D01*
X511147Y300953D01*
X509170Y302930D01*
X509256Y303059D01*
X509349Y303527D01*
X509256Y303995D01*
X508991Y304392D01*
X508594Y304657D01*
X508126Y304750D01*
X507658Y304657D01*
X507529Y304571D01*
X502871Y309229D01*
X502957Y309358D01*
X503050Y309826D01*
X502957Y310294D01*
X502692Y310691D01*
X502295Y310956D01*
X501827Y311050D01*
X501359Y310956D01*
X501230Y310870D01*
X500526Y311574D01*
X500563Y311821D01*
X500660Y311892D01*
X501099Y312019D01*
X501359Y311845D01*
X501827Y311752D01*
X502295Y311845D01*
X502692Y312110D01*
X502957Y312507D01*
X503050Y312976D01*
X502957Y313444D01*
X502692Y313841D01*
X502295Y314106D01*
X501827Y314199D01*
X501359Y314106D01*
X500962Y313841D01*
X500900Y313749D01*
X500400Y313900D01*
Y315201D01*
X500900Y315352D01*
X500962Y315260D01*
X501359Y314995D01*
X501827Y314902D01*
X502295Y314995D01*
X502692Y315260D01*
X502957Y315657D01*
X503050Y316125D01*
X502957Y316593D01*
X502692Y316990D01*
X502295Y317256D01*
X501827Y317349D01*
X501359Y317256D01*
X500962Y316990D01*
X500900Y316898D01*
X500400Y317050D01*
X500400Y321500D01*
X500900Y321652D01*
X500962Y321559D01*
X501359Y321294D01*
X501827Y321201D01*
X502295Y321294D01*
X502692Y321559D01*
X502957Y321956D01*
X503050Y322424D01*
X502957Y322893D01*
X502692Y323290D01*
X502295Y323555D01*
X501827Y323648D01*
X501572Y323597D01*
X500711Y324458D01*
X500400Y324587D01*
Y325585D01*
X499773Y326212D01*
X499964Y326674D01*
X500424D01*
X500883Y326864D01*
X501646Y327627D01*
X501900Y327576D01*
X502368Y327670D01*
X502765Y327935D01*
X503030Y328332D01*
X503124Y328800D01*
X503030Y329268D01*
X502765Y329665D01*
X502368Y329930D01*
X501900Y330024D01*
X501432Y329930D01*
X501035Y329665D01*
X500770Y329268D01*
X500676Y328800D01*
X500697Y328699D01*
X500320Y328324D01*
X499887Y328413D01*
X499851Y328473D01*
X499901Y328724D01*
X499808Y329192D01*
X499768Y329251D01*
X499996Y329741D01*
X500028Y329762D01*
X500459Y329941D01*
X500759Y330241D01*
X500866Y330498D01*
X501297Y330736D01*
X501449Y330751D01*
X501827Y330677D01*
X502295Y330770D01*
X502692Y331035D01*
X502957Y331432D01*
X503050Y331900D01*
X502957Y332368D01*
X502692Y332765D01*
X502295Y333030D01*
X501827Y333123D01*
X501449Y333049D01*
X501229Y333165D01*
X501159Y333461D01*
X501229Y333758D01*
X501449Y333874D01*
X501827Y333799D01*
X502295Y333892D01*
X502692Y334158D01*
X502957Y334555D01*
X503050Y335023D01*
X502957Y335491D01*
X502692Y335888D01*
X502295Y336153D01*
X501827Y336246D01*
X501449Y336171D01*
X501276Y336263D01*
X501184Y336561D01*
X501276Y336860D01*
X501449Y336951D01*
X501827Y336877D01*
X502295Y336970D01*
X502692Y337235D01*
X502957Y337632D01*
X503050Y338100D01*
X503000Y338351D01*
X503324Y338851D01*
X507731D01*
X508191Y339041D01*
X515500Y346351D01*
X530979D01*
X531170Y345889D01*
D02*
G37*
G36*
X605200Y354961D02*
X605109Y354891D01*
X604571Y354191D01*
X604234Y353375D01*
X604118Y352500D01*
X604234Y351625D01*
X604571Y350809D01*
X605109Y350109D01*
X605809Y349571D01*
X606625Y349234D01*
X606851Y349204D01*
Y344969D01*
X599325Y337443D01*
X598863Y337634D01*
Y349435D01*
X599191Y349571D01*
X599891Y350109D01*
X600429Y350809D01*
X600766Y351625D01*
X600882Y352500D01*
X600766Y353375D01*
X600429Y354191D01*
X599891Y354891D01*
X599800Y354961D01*
X599970Y355461D01*
X605030D01*
X605200Y354961D01*
D02*
G37*
G36*
X534151Y322800D02*
Y320947D01*
X534254Y320697D01*
X533850Y320366D01*
X533791Y320405D01*
X533323Y320498D01*
X532855Y320405D01*
X532458Y320140D01*
X532193Y319743D01*
X532099Y319275D01*
X532193Y318807D01*
X532458Y318410D01*
X532855Y318144D01*
X533323Y318051D01*
X533791Y318144D01*
X534188Y318410D01*
X534453Y318807D01*
X534546Y319275D01*
X534472Y319650D01*
X534737Y319876D01*
X534884Y319945D01*
X535299Y319529D01*
X535249Y319275D01*
X535342Y318807D01*
X535607Y318410D01*
X536004Y318144D01*
X536472Y318051D01*
X536941Y318144D01*
X537338Y318410D01*
X537603Y318807D01*
X537696Y319275D01*
X537603Y319743D01*
X537338Y320140D01*
X536953Y320397D01*
X536943Y320454D01*
X536967Y320910D01*
X537268Y320970D01*
X537665Y321235D01*
X537809Y321451D01*
X543161D01*
X543308Y321040D01*
X543325Y320951D01*
X543070Y320568D01*
X542977Y320100D01*
X543070Y319632D01*
X543335Y319235D01*
X543551Y319091D01*
Y313663D01*
X539141Y309253D01*
X538951Y308794D01*
Y301904D01*
X538016Y300970D01*
X537434Y301094D01*
X537292Y301307D01*
X536895Y301572D01*
X536427Y301665D01*
X535958Y301572D01*
X535562Y301307D01*
X535296Y300910D01*
X535203Y300442D01*
X534877Y300057D01*
X534546Y300377D01*
X534453Y300845D01*
X534188Y301242D01*
X533791Y301507D01*
X533323Y301601D01*
X532855Y301507D01*
X532458Y301242D01*
X532193Y300845D01*
X532099Y300377D01*
X532193Y299909D01*
X532458Y299512D01*
X532516Y299473D01*
X532581Y298830D01*
X526241Y292491D01*
X526051Y292031D01*
Y291497D01*
X525551Y291174D01*
X525300Y291224D01*
X524832Y291130D01*
X524435Y290865D01*
X524170Y290468D01*
X524077Y290000D01*
X524170Y289532D01*
X524435Y289135D01*
X524832Y288870D01*
X525066Y288823D01*
X525245Y288295D01*
X521020Y284070D01*
X520430Y284187D01*
X520429Y284191D01*
X519891Y284891D01*
X519191Y285429D01*
X518375Y285766D01*
X517500Y285882D01*
X516625Y285766D01*
X515809Y285429D01*
X515109Y284891D01*
X514571Y284191D01*
X514234Y283375D01*
X514118Y282500D01*
X514234Y281625D01*
X514571Y280809D01*
X515109Y280109D01*
X515200Y280039D01*
X515030Y279539D01*
X509970D01*
X509800Y280039D01*
X509891Y280109D01*
X510429Y280809D01*
X510766Y281625D01*
X510882Y282500D01*
X510766Y283375D01*
X510429Y284191D01*
X509891Y284891D01*
X509191Y285429D01*
X508375Y285766D01*
X508149Y285796D01*
Y286400D01*
X509400D01*
X509600Y286200D01*
X513566Y290166D01*
X513608Y290162D01*
X514005Y289897D01*
X514473Y289804D01*
X514941Y289897D01*
X515338Y290162D01*
X515603Y290559D01*
X515696Y291027D01*
X515603Y291495D01*
X515338Y291892D01*
X514941Y292158D01*
X514473Y292251D01*
X514300Y292392D01*
Y297800D01*
X513649Y298451D01*
Y300031D01*
X523559Y309941D01*
X523749Y310400D01*
Y313913D01*
X528584Y318747D01*
X529166Y318622D01*
X529308Y318410D01*
X529705Y318144D01*
X530173Y318051D01*
X530641Y318144D01*
X531038Y318410D01*
X531304Y318807D01*
X531397Y319275D01*
X531304Y319743D01*
X531038Y320140D01*
X530826Y320282D01*
X530701Y320864D01*
X532688Y322851D01*
X534117D01*
X534151Y322800D01*
D02*
G37*
G36*
X556551Y325031D02*
Y313638D01*
X553762Y310849D01*
X551069D01*
X550609Y310659D01*
X548611Y308661D01*
X548149Y308853D01*
Y324831D01*
X548859Y325541D01*
X549049Y326000D01*
Y328900D01*
X548859Y329359D01*
X548230Y329989D01*
X548421Y330451D01*
X551131D01*
X556551Y325031D01*
D02*
G37*
G36*
X545951Y310947D02*
Y291869D01*
X539371Y285290D01*
X539191Y285429D01*
X538375Y285766D01*
X537819Y285840D01*
X537576Y286376D01*
X537620Y286442D01*
X537713Y286910D01*
X537620Y287378D01*
X537355Y287775D01*
X536958Y288040D01*
X536490Y288134D01*
X536299Y288324D01*
X536206Y288792D01*
X535941Y289189D01*
X535544Y289455D01*
X535076Y289548D01*
X534608Y289455D01*
X534211Y289189D01*
X533945Y288792D01*
X533852Y288324D01*
X533945Y287856D01*
X534211Y287459D01*
X534608Y287194D01*
X535076Y287101D01*
X535266Y286910D01*
X535360Y286442D01*
X535625Y286045D01*
X535765Y285951D01*
X535787Y285687D01*
X535734Y285371D01*
X535109Y284891D01*
X534571Y284191D01*
X534234Y283375D01*
X534118Y282500D01*
X534234Y281625D01*
X534571Y280809D01*
X535109Y280109D01*
X535200Y280039D01*
X535030Y279539D01*
X529970D01*
X529800Y280039D01*
X529891Y280109D01*
X530429Y280809D01*
X530766Y281625D01*
X530882Y282500D01*
X530766Y283375D01*
X530429Y284191D01*
X529891Y284891D01*
X529191Y285429D01*
X528375Y285766D01*
X528149Y285796D01*
Y286831D01*
X528626Y287308D01*
X529203Y287178D01*
X529354Y286952D01*
X529751Y286687D01*
X530219Y286594D01*
X530254Y286601D01*
X530673Y286175D01*
X530643Y286023D01*
X530736Y285554D01*
X531001Y285157D01*
X531398Y284892D01*
X531866Y284799D01*
X532334Y284892D01*
X532731Y285157D01*
X532997Y285554D01*
X533090Y286023D01*
X532997Y286491D01*
X532731Y286888D01*
X532334Y287153D01*
X531866Y287246D01*
X531831Y287239D01*
X531412Y287666D01*
X531442Y287818D01*
X531349Y288286D01*
X531084Y288683D01*
X530859Y288833D01*
X530698Y289242D01*
X530706Y289454D01*
X530849Y289800D01*
Y293000D01*
X532300Y294451D01*
X535731D01*
X536191Y294641D01*
X542359Y300809D01*
X542549Y301269D01*
Y308200D01*
X545489Y311139D01*
X545951Y310947D01*
D02*
G37*
G36*
X594710Y284371D02*
X594571Y284191D01*
X594234Y283375D01*
X594118Y282500D01*
X594234Y281625D01*
X594571Y280809D01*
X595109Y280109D01*
X595200Y280039D01*
X595030Y279539D01*
X589970D01*
X589800Y280039D01*
X589891Y280109D01*
X590429Y280809D01*
X590766Y281625D01*
X590882Y282500D01*
X590766Y283375D01*
X590429Y284191D01*
X589891Y284891D01*
X589191Y285429D01*
X588375Y285766D01*
X587500Y285882D01*
X586625Y285766D01*
X585809Y285429D01*
X585258Y285006D01*
X582913Y287351D01*
X583120Y287851D01*
X591231D01*
X594710Y284371D01*
D02*
G37*
G36*
X550200Y296651D02*
X552431D01*
X564710Y284371D01*
X564571Y284191D01*
X564234Y283375D01*
X564118Y282500D01*
X564234Y281625D01*
X564571Y280809D01*
X565109Y280109D01*
X565200Y280039D01*
X565030Y279539D01*
X559970D01*
X559800Y280039D01*
X559891Y280109D01*
X560429Y280809D01*
X560766Y281625D01*
X560882Y282500D01*
X560766Y283375D01*
X560429Y284191D01*
X559891Y284891D01*
X559191Y285429D01*
X558375Y285766D01*
X558149Y285796D01*
Y287600D01*
X557959Y288059D01*
X549703Y296315D01*
X549987Y296739D01*
X550200Y296651D01*
D02*
G37*
G36*
X556851Y287331D02*
Y285796D01*
X556625Y285766D01*
X555809Y285429D01*
X555109Y284891D01*
X554571Y284191D01*
X554234Y283375D01*
X554118Y282500D01*
X554234Y281625D01*
X554571Y280809D01*
X555109Y280109D01*
X555200Y280039D01*
X555030Y279539D01*
X549970D01*
X549800Y280039D01*
X549891Y280109D01*
X550429Y280809D01*
X550766Y281625D01*
X550882Y282500D01*
X550766Y283375D01*
X550429Y284191D01*
X549891Y284891D01*
X549191Y285429D01*
X548375Y285766D01*
X548149Y285796D01*
Y295379D01*
X548611Y295570D01*
X556851Y287331D01*
D02*
G37*
G36*
X546851Y290279D02*
Y285796D01*
X546625Y285766D01*
X545809Y285429D01*
X545109Y284891D01*
X544571Y284191D01*
X544234Y283375D01*
X544118Y282500D01*
X544234Y281625D01*
X544571Y280809D01*
X545109Y280109D01*
X545200Y280039D01*
X545030Y279539D01*
X539970D01*
X539800Y280039D01*
X539891Y280109D01*
X540429Y280809D01*
X540766Y281625D01*
X540882Y282500D01*
X540766Y283375D01*
X540429Y284191D01*
X540290Y284371D01*
X546389Y290470D01*
X546851Y290279D01*
D02*
G37*
%LPC*%
G36*
X587525Y346888D02*
X587057Y346795D01*
X586660Y346530D01*
X586395Y346133D01*
X586302Y345665D01*
X586395Y345197D01*
X586660Y344799D01*
X587057Y344534D01*
X587525Y344441D01*
X587993Y344534D01*
X588390Y344799D01*
X588655Y345197D01*
X588749Y345665D01*
X588655Y346133D01*
X588390Y346530D01*
X587993Y346795D01*
X587525Y346888D01*
D02*
G37*
G36*
X572810Y344524D02*
X572342Y344430D01*
X571945Y344165D01*
X571680Y343768D01*
X571587Y343300D01*
X571680Y342832D01*
X571945Y342435D01*
X572342Y342170D01*
X572810Y342076D01*
X573278Y342170D01*
X573675Y342435D01*
X573941Y342832D01*
X574034Y343300D01*
X573941Y343768D01*
X573675Y344165D01*
X573278Y344430D01*
X572810Y344524D01*
D02*
G37*
G36*
X617353Y340423D02*
X616885Y340330D01*
X616488Y340065D01*
X616223Y339668D01*
X616130Y339200D01*
X616223Y338732D01*
X616488Y338335D01*
X616885Y338070D01*
X617353Y337977D01*
X617822Y338070D01*
X618219Y338335D01*
X618484Y338732D01*
X618577Y339200D01*
X618484Y339668D01*
X618219Y340065D01*
X617822Y340330D01*
X617353Y340423D01*
D02*
G37*
G36*
X579341Y339083D02*
X578873Y338989D01*
X578476Y338724D01*
X578211Y338327D01*
X578117Y337859D01*
X578211Y337391D01*
X578476Y336994D01*
X578873Y336729D01*
X579341Y336636D01*
X579809Y336729D01*
X580206Y336994D01*
X580471Y337391D01*
X580564Y337859D01*
X580471Y338327D01*
X580206Y338724D01*
X579809Y338989D01*
X579341Y339083D01*
D02*
G37*
G36*
X613500Y339023D02*
X613032Y338930D01*
X612635Y338665D01*
X612370Y338268D01*
X612277Y337800D01*
X612370Y337332D01*
X612635Y336935D01*
X613032Y336670D01*
X613500Y336577D01*
X613968Y336670D01*
X614365Y336935D01*
X614630Y337332D01*
X614723Y337800D01*
X614630Y338268D01*
X614365Y338665D01*
X613968Y338930D01*
X613500Y339023D01*
D02*
G37*
G36*
X562800Y338623D02*
X562332Y338530D01*
X561935Y338265D01*
X561670Y337868D01*
X561577Y337400D01*
X561670Y336932D01*
X561935Y336535D01*
X562332Y336270D01*
X562800Y336176D01*
X563268Y336270D01*
X563665Y336535D01*
X563930Y336932D01*
X564023Y337400D01*
X563930Y337868D01*
X563665Y338265D01*
X563268Y338530D01*
X562800Y338623D01*
D02*
G37*
G36*
X611000Y337123D02*
X610532Y337030D01*
X610135Y336765D01*
X609870Y336368D01*
X609776Y335900D01*
X609870Y335432D01*
X610135Y335035D01*
X610532Y334770D01*
X611000Y334677D01*
X611468Y334770D01*
X611865Y335035D01*
X612130Y335432D01*
X612223Y335900D01*
X612130Y336368D01*
X611865Y336765D01*
X611468Y337030D01*
X611000Y337123D01*
D02*
G37*
G36*
X590100Y335001D02*
X589632Y334908D01*
X589235Y334642D01*
X588970Y334245D01*
X588876Y333777D01*
X588970Y333309D01*
X589235Y332912D01*
X589632Y332647D01*
X590100Y332554D01*
X590568Y332647D01*
X590965Y332912D01*
X591230Y333309D01*
X591324Y333777D01*
X591230Y334245D01*
X590965Y334642D01*
X590568Y334908D01*
X590100Y335001D01*
D02*
G37*
G36*
X611100Y333924D02*
X610632Y333830D01*
X610235Y333565D01*
X609970Y333168D01*
X609876Y332700D01*
X609970Y332232D01*
X610235Y331835D01*
X610632Y331570D01*
X611100Y331476D01*
X611568Y331570D01*
X611965Y331835D01*
X612230Y332232D01*
X612324Y332700D01*
X612230Y333168D01*
X611965Y333565D01*
X611568Y333830D01*
X611100Y333924D01*
D02*
G37*
G36*
X590000Y331961D02*
X589532Y331868D01*
X589135Y331602D01*
X588870Y331206D01*
X588776Y330737D01*
X588870Y330269D01*
X589135Y329872D01*
X589532Y329607D01*
X590000Y329514D01*
X590468Y329607D01*
X590865Y329872D01*
X591130Y330269D01*
X591223Y330737D01*
X591130Y331206D01*
X590865Y331602D01*
X590468Y331868D01*
X590000Y331961D01*
D02*
G37*
G36*
X564068Y329994D02*
X563600Y329901D01*
X563203Y329636D01*
X562938Y329239D01*
X562845Y328770D01*
X562938Y328302D01*
X563203Y327905D01*
X563600Y327640D01*
X564068Y327547D01*
X564536Y327640D01*
X564933Y327905D01*
X565199Y328302D01*
X565292Y328770D01*
X565199Y329239D01*
X564933Y329636D01*
X564536Y329901D01*
X564068Y329994D01*
D02*
G37*
G36*
X605400Y329324D02*
X604932Y329230D01*
X604535Y328965D01*
X604270Y328568D01*
X604177Y328100D01*
X604270Y327632D01*
X604535Y327235D01*
X604932Y326970D01*
X605400Y326876D01*
X605868Y326970D01*
X606265Y327235D01*
X606530Y327632D01*
X606624Y328100D01*
X606530Y328568D01*
X606265Y328965D01*
X605868Y329230D01*
X605400Y329324D01*
D02*
G37*
G36*
X601000Y329223D02*
X600532Y329130D01*
X600135Y328865D01*
X599870Y328468D01*
X599777Y328000D01*
X599870Y327532D01*
X600135Y327135D01*
X600532Y326870D01*
X601000Y326777D01*
X601468Y326870D01*
X601865Y327135D01*
X602130Y327532D01*
X602223Y328000D01*
X602130Y328468D01*
X601865Y328865D01*
X601468Y329130D01*
X601000Y329223D01*
D02*
G37*
G36*
X622200Y328365D02*
X621732Y328272D01*
X621335Y328007D01*
X621070Y327610D01*
X620976Y327142D01*
X621070Y326674D01*
X621335Y326277D01*
X621732Y326011D01*
X622200Y325918D01*
X622668Y326011D01*
X623065Y326277D01*
X623330Y326674D01*
X623423Y327142D01*
X623330Y327610D01*
X623065Y328007D01*
X622668Y328272D01*
X622200Y328365D01*
D02*
G37*
G36*
X622100Y325124D02*
X621632Y325030D01*
X621235Y324765D01*
X620970Y324368D01*
X620877Y323900D01*
X620970Y323432D01*
X621235Y323035D01*
X621632Y322770D01*
X622100Y322676D01*
X622568Y322770D01*
X622965Y323035D01*
X623230Y323432D01*
X623323Y323900D01*
X623230Y324368D01*
X622965Y324765D01*
X622568Y325030D01*
X622100Y325124D01*
D02*
G37*
G36*
X621700Y320923D02*
X621232Y320830D01*
X620835Y320565D01*
X620570Y320168D01*
X620476Y319700D01*
X620570Y319232D01*
X620835Y318835D01*
X621232Y318570D01*
X621700Y318477D01*
X622168Y318570D01*
X622565Y318835D01*
X622830Y319232D01*
X622924Y319700D01*
X622830Y320168D01*
X622565Y320565D01*
X622168Y320830D01*
X621700Y320923D01*
D02*
G37*
G36*
X611300Y320223D02*
X610832Y320130D01*
X610435Y319865D01*
X610170Y319468D01*
X610077Y319000D01*
X610170Y318532D01*
X610435Y318135D01*
X610832Y317870D01*
X611300Y317776D01*
X611768Y317870D01*
X612165Y318135D01*
X612430Y318532D01*
X612524Y319000D01*
X612430Y319468D01*
X612165Y319865D01*
X611768Y320130D01*
X611300Y320223D01*
D02*
G37*
G36*
X561833Y319807D02*
X561365Y319714D01*
X560968Y319449D01*
X560703Y319052D01*
X560609Y318584D01*
X560703Y318115D01*
X560968Y317718D01*
X561365Y317453D01*
X561833Y317360D01*
X562301Y317453D01*
X562698Y317718D01*
X562963Y318115D01*
X563056Y318584D01*
X562963Y319052D01*
X562698Y319449D01*
X562301Y319714D01*
X561833Y319807D01*
D02*
G37*
G36*
X564398Y316841D02*
X563930Y316747D01*
X563533Y316482D01*
X563268Y316085D01*
X563175Y315617D01*
X563268Y315149D01*
X563533Y314752D01*
X563930Y314487D01*
X564398Y314394D01*
X564866Y314487D01*
X565263Y314752D01*
X565528Y315149D01*
X565622Y315617D01*
X565528Y316085D01*
X565263Y316482D01*
X564866Y316747D01*
X564398Y316841D01*
D02*
G37*
G36*
X611005Y315648D02*
X610465Y315541D01*
X610007Y315235D01*
X609702Y314777D01*
X609594Y314237D01*
X609702Y313697D01*
X610007Y313239D01*
X610465Y312933D01*
X611005Y312826D01*
X611546Y312933D01*
X612004Y313239D01*
X612310Y313697D01*
X612417Y314237D01*
X612310Y314777D01*
X612004Y315235D01*
X611546Y315541D01*
X611005Y315648D01*
D02*
G37*
G36*
X607068D02*
X606528Y315541D01*
X606071Y315235D01*
X605765Y314777D01*
X605657Y314237D01*
X605765Y313697D01*
X606071Y313239D01*
X606528Y312933D01*
X607068Y312826D01*
X607609Y312933D01*
X608067Y313239D01*
X608372Y313697D01*
X608480Y314237D01*
X608372Y314777D01*
X608067Y315235D01*
X607609Y315541D01*
X607068Y315648D01*
D02*
G37*
G36*
X603131D02*
X602591Y315541D01*
X602134Y315235D01*
X601828Y314777D01*
X601720Y314237D01*
X601828Y313697D01*
X602134Y313239D01*
X602591Y312933D01*
X603131Y312826D01*
X603672Y312933D01*
X604130Y313239D01*
X604435Y313697D01*
X604543Y314237D01*
X604435Y314777D01*
X604130Y315235D01*
X603672Y315541D01*
X603131Y315648D01*
D02*
G37*
G36*
X599194D02*
X598654Y315541D01*
X598197Y315235D01*
X597891Y314777D01*
X597783Y314237D01*
X597891Y313697D01*
X598197Y313239D01*
X598654Y312933D01*
X599194Y312826D01*
X599735Y312933D01*
X600192Y313239D01*
X600498Y313697D01*
X600606Y314237D01*
X600498Y314777D01*
X600192Y315235D01*
X599735Y315541D01*
X599194Y315648D01*
D02*
G37*
G36*
X564678Y313931D02*
X564210Y313838D01*
X563813Y313572D01*
X563548Y313175D01*
X563454Y312707D01*
X563548Y312239D01*
X563813Y311842D01*
X564210Y311577D01*
X564678Y311484D01*
X565146Y311577D01*
X565543Y311842D01*
X565808Y312239D01*
X565902Y312707D01*
X565808Y313175D01*
X565543Y313572D01*
X565146Y313838D01*
X564678Y313931D01*
D02*
G37*
G36*
X611005Y311711D02*
X610465Y311604D01*
X610007Y311298D01*
X609702Y310840D01*
X609594Y310300D01*
X609702Y309760D01*
X610007Y309302D01*
X610465Y308996D01*
X611005Y308889D01*
X611546Y308996D01*
X612004Y309302D01*
X612310Y309760D01*
X612417Y310300D01*
X612310Y310840D01*
X612004Y311298D01*
X611546Y311604D01*
X611005Y311711D01*
D02*
G37*
G36*
X607068D02*
X606528Y311604D01*
X606071Y311298D01*
X605765Y310840D01*
X605657Y310300D01*
X605765Y309760D01*
X606071Y309302D01*
X606528Y308996D01*
X607068Y308889D01*
X607609Y308996D01*
X608067Y309302D01*
X608372Y309760D01*
X608480Y310300D01*
X608372Y310840D01*
X608067Y311298D01*
X607609Y311604D01*
X607068Y311711D01*
D02*
G37*
G36*
X603131D02*
X602591Y311604D01*
X602134Y311298D01*
X601828Y310840D01*
X601720Y310300D01*
X601828Y309760D01*
X602134Y309302D01*
X602591Y308996D01*
X603131Y308889D01*
X603672Y308996D01*
X604130Y309302D01*
X604435Y309760D01*
X604543Y310300D01*
X604435Y310840D01*
X604130Y311298D01*
X603672Y311604D01*
X603131Y311711D01*
D02*
G37*
G36*
X599194D02*
X598654Y311604D01*
X598197Y311298D01*
X597891Y310840D01*
X597783Y310300D01*
X597891Y309760D01*
X598197Y309302D01*
X598654Y308996D01*
X599194Y308889D01*
X599735Y308996D01*
X600192Y309302D01*
X600498Y309760D01*
X600606Y310300D01*
X600498Y310840D01*
X600192Y311298D01*
X599735Y311604D01*
X599194Y311711D01*
D02*
G37*
G36*
X564633Y310682D02*
X564165Y310589D01*
X563768Y310324D01*
X563503Y309927D01*
X563410Y309458D01*
X563503Y308990D01*
X563768Y308593D01*
X564165Y308328D01*
X564633Y308235D01*
X565101Y308328D01*
X565498Y308593D01*
X565764Y308990D01*
X565857Y309458D01*
X565764Y309927D01*
X565498Y310324D01*
X565101Y310589D01*
X564633Y310682D01*
D02*
G37*
G36*
X557600Y310023D02*
X557132Y309930D01*
X556735Y309665D01*
X556470Y309268D01*
X556377Y308800D01*
X556470Y308332D01*
X556735Y307935D01*
X557132Y307670D01*
X557600Y307576D01*
X558068Y307670D01*
X558465Y307935D01*
X558730Y308332D01*
X558823Y308800D01*
X558730Y309268D01*
X558465Y309665D01*
X558068Y309930D01*
X557600Y310023D01*
D02*
G37*
G36*
X581099Y308924D02*
X580630Y308830D01*
X580233Y308565D01*
X579968Y308168D01*
X579875Y307700D01*
X579968Y307232D01*
X579947Y307135D01*
X579702Y306973D01*
X579543Y306957D01*
X579504Y306968D01*
X579313Y307087D01*
X579276Y307273D01*
X579010Y307670D01*
X578613Y307936D01*
X578145Y308029D01*
X577677Y307936D01*
X577280Y307670D01*
X577015Y307273D01*
X576922Y306805D01*
X577015Y306337D01*
X577280Y305940D01*
X577677Y305675D01*
X578145Y305582D01*
X578613Y305675D01*
X578873Y305848D01*
X579019Y305824D01*
X579318Y305691D01*
X579386Y305635D01*
X579453Y305299D01*
X579718Y304902D01*
X580115Y304637D01*
X580583Y304544D01*
X581051Y304637D01*
X581448Y304902D01*
X581713Y305299D01*
X581807Y305768D01*
X581713Y306236D01*
X581915Y306802D01*
X581964Y306835D01*
X582229Y307232D01*
X582322Y307700D01*
X582229Y308168D01*
X581964Y308565D01*
X581567Y308830D01*
X581099Y308924D01*
D02*
G37*
G36*
X611005Y307774D02*
X610465Y307667D01*
X610007Y307361D01*
X609702Y306903D01*
X609594Y306363D01*
X609702Y305823D01*
X610007Y305365D01*
X610465Y305059D01*
X611005Y304952D01*
X611546Y305059D01*
X612004Y305365D01*
X612310Y305823D01*
X612417Y306363D01*
X612310Y306903D01*
X612004Y307361D01*
X611546Y307667D01*
X611005Y307774D01*
D02*
G37*
G36*
X607068D02*
X606528Y307667D01*
X606071Y307361D01*
X605765Y306903D01*
X605657Y306363D01*
X605765Y305823D01*
X606071Y305365D01*
X606528Y305059D01*
X607068Y304952D01*
X607609Y305059D01*
X608067Y305365D01*
X608372Y305823D01*
X608480Y306363D01*
X608372Y306903D01*
X608067Y307361D01*
X607609Y307667D01*
X607068Y307774D01*
D02*
G37*
G36*
X603131D02*
X602591Y307667D01*
X602134Y307361D01*
X601828Y306903D01*
X601720Y306363D01*
X601828Y305823D01*
X602134Y305365D01*
X602591Y305059D01*
X603131Y304952D01*
X603672Y305059D01*
X604130Y305365D01*
X604435Y305823D01*
X604543Y306363D01*
X604435Y306903D01*
X604130Y307361D01*
X603672Y307667D01*
X603131Y307774D01*
D02*
G37*
G36*
X599194D02*
X598654Y307667D01*
X598197Y307361D01*
X597891Y306903D01*
X597783Y306363D01*
X597891Y305823D01*
X598197Y305365D01*
X598654Y305059D01*
X599194Y304952D01*
X599735Y305059D01*
X600192Y305365D01*
X600498Y305823D01*
X600606Y306363D01*
X600498Y306903D01*
X600192Y307361D01*
X599735Y307667D01*
X599194Y307774D01*
D02*
G37*
G36*
X564600Y305724D02*
X564132Y305630D01*
X563735Y305365D01*
X563470Y304968D01*
X563377Y304500D01*
X563470Y304032D01*
X563735Y303635D01*
X564132Y303370D01*
X564600Y303276D01*
X565068Y303370D01*
X565465Y303635D01*
X565730Y304032D01*
X565824Y304500D01*
X565730Y304968D01*
X565465Y305365D01*
X565068Y305630D01*
X564600Y305724D01*
D02*
G37*
G36*
X608200Y303424D02*
X607732Y303330D01*
X607335Y303065D01*
X607070Y302668D01*
X606977Y302200D01*
X607070Y301732D01*
X607335Y301335D01*
X607732Y301070D01*
X608200Y300976D01*
X608668Y301070D01*
X609065Y301335D01*
X609330Y301732D01*
X609423Y302200D01*
X609330Y302668D01*
X609065Y303065D01*
X608668Y303330D01*
X608200Y303424D01*
D02*
G37*
G36*
X591900Y303823D02*
X591432Y303730D01*
X591035Y303465D01*
X590770Y303068D01*
X590676Y302600D01*
X590770Y302132D01*
X591035Y301735D01*
X591089Y301097D01*
X591070Y301068D01*
X590976Y300600D01*
X591070Y300132D01*
X591335Y299735D01*
X591395Y299694D01*
X591200Y299223D01*
X591200Y299223D01*
X590732Y299130D01*
X590335Y298865D01*
X590070Y298468D01*
X589977Y298000D01*
X590070Y297532D01*
X590335Y297135D01*
X590732Y296870D01*
X591200Y296777D01*
X591668Y296870D01*
X592065Y297135D01*
X592330Y297532D01*
X592423Y298000D01*
X592330Y298468D01*
X592065Y298865D01*
X592005Y298905D01*
X592200Y299377D01*
X592200Y299377D01*
X592668Y299470D01*
X593065Y299735D01*
X593330Y300132D01*
X593424Y300600D01*
X593330Y301068D01*
X593065Y301465D01*
X593011Y302103D01*
X593030Y302132D01*
X593123Y302600D01*
X593030Y303068D01*
X592765Y303465D01*
X592368Y303730D01*
X591900Y303823D01*
D02*
G37*
G36*
X587600Y300124D02*
X587132Y300030D01*
X586735Y299765D01*
X586470Y299368D01*
X586376Y298900D01*
X586470Y298432D01*
X586735Y298035D01*
X587132Y297770D01*
X587600Y297676D01*
X588068Y297770D01*
X588465Y298035D01*
X588730Y298432D01*
X588824Y298900D01*
X588730Y299368D01*
X588465Y299765D01*
X588068Y300030D01*
X587600Y300124D01*
D02*
G37*
G36*
X561500Y296323D02*
X561032Y296230D01*
X560635Y295965D01*
X560370Y295568D01*
X560277Y295100D01*
X560370Y294632D01*
X560635Y294235D01*
X561032Y293970D01*
X561500Y293877D01*
X561899Y293956D01*
X561968Y293970D01*
X562178Y293540D01*
X562143Y293517D01*
X561878Y293120D01*
X561785Y292652D01*
X561878Y292184D01*
X562143Y291787D01*
X562540Y291522D01*
X563008Y291428D01*
X563477Y291522D01*
X563873Y291787D01*
X564139Y292184D01*
X564232Y292652D01*
X564139Y293120D01*
X563873Y293517D01*
X563477Y293782D01*
X563008Y293876D01*
X562609Y293796D01*
X562540Y293782D01*
X562331Y294212D01*
X562365Y294235D01*
X562630Y294632D01*
X562723Y295100D01*
X562630Y295568D01*
X562365Y295965D01*
X561968Y296230D01*
X561500Y296323D01*
D02*
G37*
G36*
X610616Y290503D02*
X610148Y290409D01*
X609751Y290144D01*
X609486Y289747D01*
X609393Y289279D01*
X609486Y288811D01*
X609751Y288414D01*
X610148Y288149D01*
X610616Y288055D01*
X611085Y288149D01*
X611482Y288414D01*
X611747Y288811D01*
X611840Y289279D01*
X611747Y289747D01*
X611482Y290144D01*
X611085Y290409D01*
X610616Y290503D01*
D02*
G37*
G36*
X607143Y290481D02*
X606674Y290388D01*
X606278Y290123D01*
X606012Y289726D01*
X605919Y289258D01*
X606012Y288790D01*
X606278Y288393D01*
X606674Y288127D01*
X607143Y288034D01*
X607611Y288127D01*
X608008Y288393D01*
X608273Y288790D01*
X608366Y289258D01*
X608273Y289726D01*
X608008Y290123D01*
X607611Y290388D01*
X607143Y290481D01*
D02*
G37*
G36*
X600000Y290423D02*
X599532Y290330D01*
X599135Y290065D01*
X598870Y289668D01*
X598776Y289200D01*
X598870Y288732D01*
X599135Y288335D01*
X599532Y288070D01*
X600000Y287977D01*
X600468Y288070D01*
X600865Y288335D01*
X601130Y288732D01*
X601224Y289200D01*
X601130Y289668D01*
X600865Y290065D01*
X600468Y290330D01*
X600000Y290423D01*
D02*
G37*
G36*
X603498Y290362D02*
X603030Y290269D01*
X602633Y290004D01*
X602368Y289607D01*
X602275Y289138D01*
X602368Y288670D01*
X602633Y288273D01*
X603030Y288008D01*
X603498Y287915D01*
X603967Y288008D01*
X604363Y288273D01*
X604629Y288670D01*
X604722Y289138D01*
X604629Y289607D01*
X604363Y290004D01*
X603967Y290269D01*
X603498Y290362D01*
D02*
G37*
G36*
X434101Y350890D02*
X433446Y350760D01*
X432890Y350389D01*
X432519Y349833D01*
X432388Y349178D01*
X432519Y348523D01*
X432890Y347967D01*
X433446Y347596D01*
X434101Y347465D01*
X434756Y347596D01*
X435312Y347967D01*
X435683Y348523D01*
X435813Y349178D01*
X435683Y349833D01*
X435312Y350389D01*
X434756Y350760D01*
X434101Y350890D01*
D02*
G37*
G36*
X433200Y347024D02*
X432732Y346930D01*
X432335Y346665D01*
X432070Y346268D01*
X431977Y345800D01*
X432070Y345332D01*
X432335Y344935D01*
X432066Y344513D01*
X431970Y344368D01*
X431877Y343900D01*
X431970Y343432D01*
X432235Y343035D01*
X432632Y342770D01*
X433100Y342676D01*
X433568Y342770D01*
X433965Y343035D01*
X434230Y343432D01*
X434324Y343900D01*
X434230Y344368D01*
X433965Y344765D01*
X434234Y345187D01*
X434330Y345332D01*
X434423Y345800D01*
X434330Y346268D01*
X434065Y346665D01*
X433668Y346930D01*
X433200Y347024D01*
D02*
G37*
G36*
X450572Y341829D02*
X450104Y341736D01*
X449707Y341471D01*
X449442Y341074D01*
X449349Y340606D01*
X449442Y340138D01*
X449707Y339741D01*
X450104Y339475D01*
X450572Y339382D01*
X451041Y339475D01*
X451437Y339741D01*
X451703Y340138D01*
X451796Y340606D01*
X451703Y341074D01*
X451437Y341471D01*
X451041Y341736D01*
X450572Y341829D01*
D02*
G37*
G36*
X442860Y341694D02*
X442392Y341601D01*
X441995Y341336D01*
X441729Y340939D01*
X441636Y340471D01*
X441729Y340003D01*
X441995Y339606D01*
X442392Y339341D01*
X442860Y339247D01*
X443328Y339341D01*
X443725Y339606D01*
X443990Y340003D01*
X444083Y340471D01*
X443990Y340939D01*
X443725Y341336D01*
X443328Y341601D01*
X442860Y341694D01*
D02*
G37*
G36*
X450575Y336558D02*
X450107Y336465D01*
X449710Y336200D01*
X449444Y335803D01*
X449351Y335335D01*
X449444Y334867D01*
X449710Y334470D01*
X450107Y334204D01*
X450575Y334111D01*
X451043Y334204D01*
X451440Y334470D01*
X451705Y334867D01*
X451798Y335335D01*
X451705Y335803D01*
X451440Y336200D01*
X451043Y336465D01*
X450575Y336558D01*
D02*
G37*
G36*
X431300Y330924D02*
X430832Y330830D01*
X430435Y330565D01*
X430170Y330168D01*
X430077Y329700D01*
X430170Y329232D01*
X430435Y328835D01*
X430832Y328570D01*
X431300Y328477D01*
X431768Y328570D01*
X432165Y328835D01*
X432430Y329232D01*
X432523Y329700D01*
X432430Y330168D01*
X432165Y330565D01*
X431768Y330830D01*
X431300Y330924D01*
D02*
G37*
G36*
X434101Y328134D02*
X433446Y328004D01*
X432890Y327633D01*
X432519Y327077D01*
X432388Y326422D01*
X432519Y325767D01*
X432890Y325211D01*
X433446Y324840D01*
X434101Y324710D01*
X434756Y324840D01*
X435312Y325211D01*
X435683Y325767D01*
X435813Y326422D01*
X435683Y327077D01*
X435312Y327633D01*
X434756Y328004D01*
X434101Y328134D01*
D02*
G37*
G36*
X438235Y323207D02*
X433904D01*
X432980Y323023D01*
X432196Y322500D01*
X431673Y321716D01*
X431489Y320792D01*
X431673Y319868D01*
X432196Y319085D01*
X432980Y318561D01*
X433904Y318377D01*
X438235D01*
X439159Y318561D01*
X439942Y319085D01*
X440466Y319868D01*
X440650Y320792D01*
X440466Y321716D01*
X439942Y322500D01*
X439159Y323023D01*
X438235Y323207D01*
D02*
G37*
G36*
X429770Y317535D02*
X429302Y317442D01*
X428904Y317176D01*
X428639Y316779D01*
X428546Y316311D01*
X428639Y315843D01*
X428904Y315446D01*
X429302Y315181D01*
X429770Y315088D01*
X430238Y315181D01*
X430635Y315446D01*
X430900Y315843D01*
X430993Y316311D01*
X430900Y316779D01*
X430635Y317176D01*
X430238Y317442D01*
X429770Y317535D01*
D02*
G37*
G36*
X438165Y311038D02*
X437697Y310945D01*
X437300Y310680D01*
X437035Y310283D01*
X436941Y309815D01*
X436480Y309571D01*
X436282Y309531D01*
X435886Y309266D01*
X435620Y308869D01*
X435527Y308401D01*
X435620Y307932D01*
X435886Y307536D01*
X436282Y307270D01*
X436751Y307177D01*
X437219Y307270D01*
X437616Y307536D01*
X437881Y307932D01*
X437921Y308130D01*
X438099Y308467D01*
X438435Y308645D01*
X438633Y308685D01*
X439030Y308950D01*
X439295Y309347D01*
X439389Y309815D01*
X439295Y310283D01*
X439030Y310680D01*
X438633Y310945D01*
X438165Y311038D01*
D02*
G37*
G36*
X424000Y305223D02*
X423532Y305130D01*
X423135Y304865D01*
X422870Y304468D01*
X422777Y304000D01*
X422870Y303532D01*
X423135Y303135D01*
X423532Y302870D01*
X424000Y302777D01*
X424468Y302870D01*
X424865Y303135D01*
X425130Y303532D01*
X425223Y304000D01*
X425130Y304468D01*
X424865Y304865D01*
X424468Y305130D01*
X424000Y305223D01*
D02*
G37*
G36*
X439500Y298471D02*
X438576Y298287D01*
X437792Y297763D01*
X437269Y296980D01*
X437085Y296056D01*
X437269Y295132D01*
X437792Y294348D01*
X438576Y293825D01*
X439500Y293641D01*
X440424Y293825D01*
X441208Y294348D01*
X441731Y295132D01*
X441915Y296056D01*
X441731Y296980D01*
X441208Y297763D01*
X440424Y298287D01*
X439500Y298471D01*
D02*
G37*
G36*
X431846Y293018D02*
X431378Y292925D01*
X430981Y292660D01*
X430716Y292263D01*
X430623Y291795D01*
X430716Y291327D01*
X430860Y291110D01*
X430950Y290569D01*
X430685Y290172D01*
X430592Y289704D01*
X430685Y289235D01*
X430950Y288839D01*
X431347Y288573D01*
X431815Y288480D01*
X432283Y288573D01*
X432680Y288839D01*
X432945Y289235D01*
X433039Y289704D01*
X432945Y290172D01*
X432801Y290388D01*
X432711Y290930D01*
X432976Y291327D01*
X433070Y291795D01*
X432976Y292263D01*
X432711Y292660D01*
X432314Y292925D01*
X431846Y293018D01*
D02*
G37*
G36*
X439500Y292959D02*
X438576Y292775D01*
X437792Y292252D01*
X437269Y291468D01*
X437085Y290544D01*
X437269Y289620D01*
X437792Y288837D01*
X438576Y288313D01*
X439500Y288129D01*
X440424Y288313D01*
X441208Y288837D01*
X441731Y289620D01*
X441915Y290544D01*
X441731Y291468D01*
X441208Y292252D01*
X440424Y292775D01*
X439500Y292959D01*
D02*
G37*
G36*
Y287447D02*
X438576Y287263D01*
X437792Y286740D01*
X437269Y285956D01*
X437085Y285032D01*
X437269Y284108D01*
X437792Y283325D01*
X438576Y282801D01*
X439500Y282617D01*
X440424Y282801D01*
X441208Y283325D01*
X441731Y284108D01*
X441915Y285032D01*
X441731Y285956D01*
X441208Y286740D01*
X440424Y287263D01*
X439500Y287447D01*
D02*
G37*
G36*
X504976Y336246D02*
X504508Y336153D01*
X504111Y335888D01*
X503846Y335491D01*
X503753Y335023D01*
X503846Y334555D01*
X504111Y334158D01*
X504400Y333965D01*
X504439Y333792D01*
Y333582D01*
X504400Y333409D01*
X504111Y333217D01*
X503846Y332820D01*
X503753Y332351D01*
X503846Y331883D01*
X504111Y331486D01*
X504508Y331221D01*
X504976Y331128D01*
X505445Y331221D01*
X505841Y331486D01*
X506107Y331883D01*
X506200Y332351D01*
X506107Y332820D01*
X505841Y333217D01*
X505553Y333409D01*
X505514Y333582D01*
Y333792D01*
X505553Y333965D01*
X505841Y334158D01*
X506107Y334555D01*
X506200Y335023D01*
X506107Y335491D01*
X505841Y335888D01*
X505445Y336153D01*
X504976Y336246D01*
D02*
G37*
G36*
X508126Y333097D02*
X507658Y333004D01*
X507261Y332738D01*
X506996Y332341D01*
X506903Y331873D01*
X506996Y331405D01*
X507261Y331008D01*
X507658Y330743D01*
X508126Y330650D01*
X508594Y330743D01*
X508991Y331008D01*
X509256Y331405D01*
X509349Y331873D01*
X509256Y332341D01*
X508991Y332738D01*
X508594Y333004D01*
X508126Y333097D01*
D02*
G37*
G36*
X523874Y326798D02*
X523406Y326704D01*
X523009Y326439D01*
X522744Y326042D01*
X522650Y325574D01*
X522744Y325106D01*
X523009Y324709D01*
X523406Y324444D01*
X523874Y324351D01*
X524342Y324444D01*
X524739Y324709D01*
X525004Y325106D01*
X525098Y325574D01*
X525004Y326042D01*
X524739Y326439D01*
X524342Y326704D01*
X523874Y326798D01*
D02*
G37*
G36*
X520724D02*
X520256Y326704D01*
X519859Y326439D01*
X519594Y326042D01*
X519501Y325574D01*
X519594Y325106D01*
X519859Y324709D01*
X520256Y324444D01*
X520724Y324351D01*
X521193Y324444D01*
X521590Y324709D01*
X521855Y325106D01*
X521948Y325574D01*
X521855Y326042D01*
X521590Y326439D01*
X521193Y326704D01*
X520724Y326798D01*
D02*
G37*
G36*
X517575D02*
X517107Y326704D01*
X516710Y326439D01*
X516444Y326042D01*
X516351Y325574D01*
X516444Y325106D01*
X516710Y324709D01*
X517107Y324444D01*
X517575Y324351D01*
X518043Y324444D01*
X518440Y324709D01*
X518705Y325106D01*
X518798Y325574D01*
X518705Y326042D01*
X518440Y326439D01*
X518043Y326704D01*
X517575Y326798D01*
D02*
G37*
G36*
X504598Y326721D02*
X504130Y326628D01*
X503733Y326363D01*
X503468Y325966D01*
X503374Y325498D01*
X503468Y325030D01*
X503733Y324633D01*
X504130Y324367D01*
X504598Y324274D01*
X505066Y324367D01*
X505463Y324633D01*
X505728Y325030D01*
X505821Y325498D01*
X505728Y325966D01*
X505463Y326363D01*
X505066Y326628D01*
X504598Y326721D01*
D02*
G37*
G36*
X511276Y323992D02*
X510807Y323899D01*
X510410Y323634D01*
X510145Y323237D01*
X510052Y322768D01*
X510145Y322300D01*
X510410Y321903D01*
X510807Y321638D01*
X511276Y321545D01*
X511744Y321638D01*
X512141Y321903D01*
X512406Y322300D01*
X512499Y322768D01*
X512406Y323237D01*
X512141Y323634D01*
X511744Y323899D01*
X511276Y323992D01*
D02*
G37*
G36*
X504806Y323465D02*
X504338Y323372D01*
X503941Y323107D01*
X503676Y322710D01*
X503582Y322242D01*
X503676Y321774D01*
X503941Y321377D01*
X504338Y321112D01*
X504806Y321018D01*
X505274Y321112D01*
X505671Y321377D01*
X505936Y321774D01*
X506029Y322242D01*
X505936Y322710D01*
X505671Y323107D01*
X505274Y323372D01*
X504806Y323465D01*
D02*
G37*
G36*
X517382Y322073D02*
X516914Y321980D01*
X516517Y321715D01*
X516252Y321318D01*
X516158Y320850D01*
X516252Y320381D01*
X516517Y319985D01*
X516914Y319719D01*
X517382Y319626D01*
X517850Y319719D01*
X518247Y319985D01*
X518512Y320381D01*
X518605Y320850D01*
X518512Y321318D01*
X518247Y321715D01*
X517850Y321980D01*
X517382Y322073D01*
D02*
G37*
G36*
X520724Y320498D02*
X520256Y320405D01*
X519859Y320140D01*
X519594Y319743D01*
X519501Y319275D01*
X519594Y318807D01*
X519859Y318410D01*
X520256Y318144D01*
X520724Y318051D01*
X521193Y318144D01*
X521590Y318410D01*
X521855Y318807D01*
X521948Y319275D01*
X521855Y319743D01*
X521590Y320140D01*
X521193Y320405D01*
X520724Y320498D01*
D02*
G37*
G36*
X517575Y317349D02*
X517107Y317256D01*
X516710Y316990D01*
X516444Y316593D01*
X516351Y316125D01*
X516444Y315657D01*
X516710Y315260D01*
X517107Y314995D01*
X517575Y314902D01*
X518043Y314995D01*
X518440Y315260D01*
X518705Y315657D01*
X518798Y316125D01*
X518705Y316593D01*
X518440Y316990D01*
X518043Y317256D01*
X517575Y317349D01*
D02*
G37*
G36*
X504976D02*
X504508Y317256D01*
X504111Y316990D01*
X503846Y316593D01*
X503753Y316125D01*
X503846Y315657D01*
X504111Y315260D01*
X504508Y314995D01*
X504976Y314902D01*
X505445Y314995D01*
X505841Y315260D01*
X506107Y315657D01*
X506200Y316125D01*
X506107Y316593D01*
X505841Y316990D01*
X505445Y317256D01*
X504976Y317349D01*
D02*
G37*
G36*
Y311050D02*
X504508Y310956D01*
X504111Y310691D01*
X503846Y310294D01*
X503753Y309826D01*
X503846Y309358D01*
X504111Y308961D01*
X504508Y308696D01*
X504976Y308602D01*
X505445Y308696D01*
X505841Y308961D01*
X506107Y309358D01*
X506200Y309826D01*
X506107Y310294D01*
X505841Y310691D01*
X505445Y310956D01*
X504976Y311050D01*
D02*
G37*
G36*
X603500Y347923D02*
X603032Y347830D01*
X602635Y347565D01*
X602370Y347168D01*
X602277Y346700D01*
X602370Y346232D01*
X602635Y345835D01*
X603032Y345570D01*
X603500Y345477D01*
X603968Y345570D01*
X604365Y345835D01*
X604630Y346232D01*
X604724Y346700D01*
X604630Y347168D01*
X604365Y347565D01*
X603968Y347830D01*
X603500Y347923D01*
D02*
G37*
G36*
X539550Y320929D02*
X539082Y320836D01*
X538685Y320571D01*
X538420Y320174D01*
X538327Y319706D01*
X538420Y319237D01*
X538685Y318841D01*
X539082Y318575D01*
X539550Y318482D01*
X540019Y318575D01*
X540416Y318841D01*
X540681Y319237D01*
X540774Y319706D01*
X540681Y320174D01*
X540416Y320571D01*
X540019Y320836D01*
X539550Y320929D01*
D02*
G37*
G36*
X536500Y317524D02*
X536032Y317430D01*
X535635Y317165D01*
X535370Y316768D01*
X535277Y316300D01*
X535370Y315832D01*
X535635Y315435D01*
X536032Y315170D01*
X536500Y315076D01*
X536968Y315170D01*
X537365Y315435D01*
X537630Y315832D01*
X537723Y316300D01*
X537630Y316768D01*
X537365Y317165D01*
X536968Y317430D01*
X536500Y317524D01*
D02*
G37*
G36*
X533323Y317349D02*
X532855Y317256D01*
X532458Y316990D01*
X532193Y316593D01*
X532099Y316125D01*
X532193Y315657D01*
X532458Y315260D01*
X532855Y314995D01*
X533323Y314902D01*
X533791Y314995D01*
X534188Y315260D01*
X534453Y315657D01*
X534546Y316125D01*
X534453Y316593D01*
X534188Y316990D01*
X533791Y317256D01*
X533323Y317349D01*
D02*
G37*
G36*
X530173D02*
X529705Y317256D01*
X529308Y316990D01*
X529043Y316593D01*
X528950Y316125D01*
X529043Y315657D01*
X529308Y315260D01*
X529705Y314995D01*
X530173Y314902D01*
X530641Y314995D01*
X531038Y315260D01*
X531304Y315657D01*
X531397Y316125D01*
X531304Y316593D01*
X531038Y316990D01*
X530641Y317256D01*
X530173Y317349D01*
D02*
G37*
G36*
X539622Y314199D02*
X539154Y314106D01*
X538757Y313841D01*
X538492Y313444D01*
X538399Y312976D01*
X538492Y312507D01*
X538757Y312110D01*
X539154Y311845D01*
X539622Y311752D01*
X540090Y311845D01*
X540487Y312110D01*
X540752Y312507D01*
X540846Y312976D01*
X540752Y313444D01*
X540487Y313841D01*
X540090Y314106D01*
X539622Y314199D01*
D02*
G37*
G36*
X533323D02*
X532855Y314106D01*
X532458Y313841D01*
X532193Y313444D01*
X532099Y312976D01*
X532193Y312507D01*
X532458Y312110D01*
X532855Y311845D01*
X533323Y311752D01*
X533791Y311845D01*
X534188Y312110D01*
X534453Y312507D01*
X534546Y312976D01*
X534453Y313444D01*
X534188Y313841D01*
X533791Y314106D01*
X533323Y314199D01*
D02*
G37*
G36*
X530173D02*
X529705Y314106D01*
X529308Y313841D01*
X529043Y313444D01*
X528950Y312976D01*
X529043Y312507D01*
X529308Y312110D01*
X529705Y311845D01*
X530173Y311752D01*
X530641Y311845D01*
X531038Y312110D01*
X531304Y312507D01*
X531397Y312976D01*
X531304Y313444D01*
X531038Y313841D01*
X530641Y314106D01*
X530173Y314199D01*
D02*
G37*
G36*
X530168Y311137D02*
X529700Y311044D01*
X529303Y310779D01*
X529038Y310382D01*
X528945Y309914D01*
X529038Y309446D01*
X529303Y309049D01*
X529700Y308784D01*
X530168Y308690D01*
X530637Y308784D01*
X531034Y309049D01*
X531299Y309446D01*
X531392Y309914D01*
X531299Y310382D01*
X531034Y310779D01*
X530637Y311044D01*
X530168Y311137D01*
D02*
G37*
G36*
X536397Y307918D02*
X535929Y307825D01*
X535532Y307560D01*
X535267Y307163D01*
X535174Y306695D01*
X535267Y306226D01*
X535532Y305829D01*
X535929Y305564D01*
X536397Y305471D01*
X536866Y305564D01*
X537263Y305829D01*
X537528Y306226D01*
X537621Y306695D01*
X537528Y307163D01*
X537263Y307560D01*
X536866Y307825D01*
X536397Y307918D01*
D02*
G37*
G36*
X530173Y307900D02*
X529705Y307807D01*
X529308Y307541D01*
X529043Y307145D01*
X528950Y306676D01*
X529043Y306208D01*
X529308Y305811D01*
X529705Y305546D01*
X530173Y305453D01*
X530641Y305546D01*
X531038Y305811D01*
X531304Y306208D01*
X531397Y306676D01*
X531304Y307145D01*
X531038Y307541D01*
X530641Y307807D01*
X530173Y307900D01*
D02*
G37*
G36*
X527024D02*
X526555Y307807D01*
X526159Y307541D01*
X525893Y307145D01*
X525800Y306676D01*
X525893Y306208D01*
X526159Y305811D01*
X526555Y305546D01*
X527024Y305453D01*
X527492Y305546D01*
X527889Y305811D01*
X528154Y306208D01*
X528247Y306676D01*
X528154Y307145D01*
X527889Y307541D01*
X527492Y307807D01*
X527024Y307900D01*
D02*
G37*
G36*
X533278Y307855D02*
X532810Y307762D01*
X532413Y307497D01*
X532148Y307100D01*
X532054Y306631D01*
X532148Y306163D01*
X532413Y305766D01*
X532810Y305501D01*
X533278Y305408D01*
X533746Y305501D01*
X534143Y305766D01*
X534408Y306163D01*
X534502Y306631D01*
X534408Y307100D01*
X534143Y307497D01*
X533746Y307762D01*
X533278Y307855D01*
D02*
G37*
G36*
X530173Y304750D02*
X529705Y304657D01*
X529308Y304392D01*
X529043Y303995D01*
X528950Y303527D01*
X529043Y303059D01*
X529308Y302662D01*
X529705Y302396D01*
X530173Y302303D01*
X530641Y302396D01*
X531038Y302662D01*
X531304Y303059D01*
X531397Y303527D01*
X531304Y303995D01*
X531038Y304392D01*
X530641Y304657D01*
X530173Y304750D01*
D02*
G37*
G36*
X527024D02*
X526555Y304657D01*
X526159Y304392D01*
X525893Y303995D01*
X525800Y303527D01*
X525893Y303059D01*
X526159Y302662D01*
X526555Y302396D01*
X527024Y302303D01*
X527492Y302396D01*
X527889Y302662D01*
X528154Y303059D01*
X528247Y303527D01*
X528154Y303995D01*
X527889Y304392D01*
X527492Y304657D01*
X527024Y304750D01*
D02*
G37*
G36*
X523870Y301623D02*
X523402Y301530D01*
X523005Y301265D01*
X522740Y300868D01*
X522647Y300400D01*
X522740Y299932D01*
X523005Y299535D01*
X523402Y299269D01*
X523870Y299176D01*
X524338Y299269D01*
X524735Y299535D01*
X525000Y299932D01*
X525094Y300400D01*
X525000Y300868D01*
X524735Y301265D01*
X524338Y301530D01*
X523870Y301623D01*
D02*
G37*
G36*
X530173Y301601D02*
X529705Y301507D01*
X529308Y301242D01*
X529043Y300845D01*
X528950Y300377D01*
X529043Y299909D01*
X529308Y299512D01*
X529705Y299247D01*
X530173Y299154D01*
X530641Y299247D01*
X531038Y299512D01*
X531304Y299909D01*
X531397Y300377D01*
X531304Y300845D01*
X531038Y301242D01*
X530641Y301507D01*
X530173Y301601D01*
D02*
G37*
G36*
X527024D02*
X526555Y301507D01*
X526159Y301242D01*
X525893Y300845D01*
X525800Y300377D01*
X525893Y299909D01*
X526159Y299512D01*
X526555Y299247D01*
X527024Y299154D01*
X527492Y299247D01*
X527889Y299512D01*
X528154Y299909D01*
X528247Y300377D01*
X528154Y300845D01*
X527889Y301242D01*
X527492Y301507D01*
X527024Y301601D01*
D02*
G37*
G36*
X524362Y298046D02*
X523894Y297952D01*
X523497Y297687D01*
X523232Y297290D01*
X523139Y296822D01*
X523232Y296354D01*
X523497Y295957D01*
X523894Y295692D01*
X524362Y295599D01*
X524830Y295692D01*
X525227Y295957D01*
X525492Y296354D01*
X525586Y296822D01*
X525492Y297290D01*
X525227Y297687D01*
X524830Y297952D01*
X524362Y298046D01*
D02*
G37*
G36*
X522287Y291606D02*
X521819Y291513D01*
X521422Y291248D01*
X521157Y290851D01*
X521063Y290383D01*
X521157Y289915D01*
X521422Y289518D01*
X521819Y289252D01*
X522287Y289159D01*
X522755Y289252D01*
X523152Y289518D01*
X523417Y289915D01*
X523510Y290383D01*
X523417Y290851D01*
X523152Y291248D01*
X522755Y291513D01*
X522287Y291606D01*
D02*
G37*
G36*
X552800Y313972D02*
X552332Y313879D01*
X551935Y313614D01*
X551670Y313217D01*
X551577Y312749D01*
X551670Y312280D01*
X551935Y311883D01*
X552332Y311618D01*
X552800Y311525D01*
X553268Y311618D01*
X553665Y311883D01*
X553930Y312280D01*
X554024Y312749D01*
X553930Y313217D01*
X553665Y313614D01*
X553268Y313879D01*
X552800Y313972D01*
D02*
G37*
G36*
X543135Y297438D02*
X542667Y297345D01*
X542270Y297080D01*
X542004Y296683D01*
X541911Y296215D01*
X542004Y295746D01*
X542128Y295562D01*
X542135Y294965D01*
X541870Y294568D01*
X541777Y294100D01*
X541870Y293632D01*
X542135Y293235D01*
X542532Y292970D01*
X543000Y292877D01*
X543468Y292970D01*
X543865Y293235D01*
X544130Y293632D01*
X544223Y294100D01*
X544130Y294568D01*
X544007Y294753D01*
X544000Y295350D01*
X544265Y295746D01*
X544358Y296215D01*
X544265Y296683D01*
X544000Y297080D01*
X543603Y297345D01*
X543135Y297438D01*
D02*
G37*
%LPD*%
D34*
X607500Y352500D02*
D03*
X597500D02*
D03*
X587500D02*
D03*
X577500D02*
D03*
X567500D02*
D03*
X557500D02*
D03*
X547500D02*
D03*
X537500D02*
D03*
X527500D02*
D03*
X517500D02*
D03*
X507500D02*
D03*
X497500D02*
D03*
X487500D02*
D03*
X477500D02*
D03*
X607500Y282500D02*
D03*
X597500D02*
D03*
X587500D02*
D03*
X567500D02*
D03*
X557500D02*
D03*
X547500D02*
D03*
X537500D02*
D03*
X527500D02*
D03*
X517500D02*
D03*
X507500D02*
D03*
X497500D02*
D03*
X457500D02*
D03*
D35*
X447500Y352500D02*
D03*
Y282500D02*
D03*
D37*
X439500Y301568D02*
D03*
D38*
X431626Y304619D02*
D03*
Y281981D02*
D03*
D40*
X499100Y287300D02*
X501500Y284900D01*
X462300Y287300D02*
X499100D01*
X457500Y282500D02*
X462300Y287300D01*
D41*
X440391Y347099D02*
G03*
X440083Y346983I-25J-399D01*
G01*
X445621Y346802D02*
G03*
X445712Y346800I79J1398D01*
G01*
X480317Y346983D02*
G03*
X480029Y347100I-283J-283D01*
G01*
X477674Y327849D02*
G03*
X478124Y328299I0J450D01*
G01*
X477624Y327849D02*
G03*
X477624Y326949I0J-450D01*
G01*
X479082Y326049D02*
G03*
X479082Y326949I0J450D01*
G01*
X477624Y326049D02*
G03*
X477624Y325149I0J-450D01*
G01*
X479082Y324249D02*
G03*
X479082Y325149I0J450D01*
G01*
X477624Y324249D02*
G03*
X477624Y323349I0J-450D01*
G01*
X479082Y322449D02*
G03*
X479082Y323349I0J450D01*
G01*
X477624Y322449D02*
G03*
X477624Y321549I0J-450D01*
G01*
X478664Y320649D02*
G03*
X478664Y321549I0J450D01*
G01*
X478574Y320649D02*
G03*
X478124Y320199I0J-450D01*
G01*
X470200Y293485D02*
G03*
X469750Y293035I0J-450D01*
G01*
X468850Y293035D02*
G03*
X469750Y293035I450J0D01*
G01*
X468850Y293814D02*
G03*
X467950Y293814I-450J0D01*
G01*
X467050Y292916D02*
G03*
X467950Y292916I450J0D01*
G01*
X467050Y294055D02*
G03*
X466150Y294055I-450J0D01*
G01*
X465700Y293485D02*
G03*
X466150Y293935I0J450D01*
G01*
X469600Y311200D02*
G03*
X470050Y310750I450J0D01*
G01*
X472156Y309850D02*
G03*
X472156Y310750I0J450D01*
G01*
X470050Y309850D02*
G03*
X470050Y308950I0J-450D01*
G01*
X472156Y308050D02*
G03*
X472156Y308950I0J450D01*
G01*
X470050Y308050D02*
G03*
X469600Y307600I0J-450D01*
G01*
X467756Y306336D02*
G03*
X467756Y305700I318J-318D01*
G01*
X467852Y306432D02*
G03*
X467852Y307068I-318J318D01*
G01*
D02*
G03*
X467215Y307068I-318J-318D01*
G01*
X466430Y306920D02*
G03*
X467067Y306920I318J318D01*
G01*
X466430Y307556D02*
G03*
X466430Y306920I318J-318D01*
G01*
X466579Y307705D02*
G03*
X466579Y308341I-318J318D01*
G01*
X466579Y308341D02*
G03*
X465943Y308341I-318J-318D01*
G01*
X465158Y308192D02*
G03*
X465794Y308192I318J318D01*
G01*
X465158Y308829D02*
G03*
X465158Y308192I318J-318D01*
G01*
X465823Y309494D02*
G03*
X465823Y310130I-318J318D01*
G01*
X465823Y310130D02*
G03*
X465186Y310130I-318J-318D01*
G01*
X463885Y309465D02*
G03*
X464521Y309465I318J318D01*
G01*
X463885Y310102D02*
G03*
X463885Y309465I318J-318D01*
G01*
X464463Y310680D02*
G03*
X464463Y311316I-318J318D01*
G01*
D02*
G03*
X463827Y311316I-318J-318D01*
G01*
X462612Y310738D02*
G03*
X463248Y310738I318J318D01*
G01*
X462612Y311374D02*
G03*
X462612Y310738I318J-318D01*
G01*
X462617Y311379D02*
G03*
X462617Y312016I-318J318D01*
G01*
D02*
G03*
X461980Y312016I-318J-318D01*
G01*
X461339Y312011D02*
G03*
X461975Y312011I318J318D01*
G01*
X461339Y312647D02*
G03*
X461339Y312011I318J-318D01*
G01*
X461859Y313167D02*
G03*
X461859Y313804I-318J318D01*
G01*
X461859Y313804D02*
G03*
X461223Y313804I-318J-318D01*
G01*
X460120Y313337D02*
G03*
X460756Y313337I318J318D01*
G01*
X478766Y317365D02*
G03*
X478130Y317365I-318J-318D01*
G01*
X476258Y316130D02*
G03*
X476895Y316130I318J318D01*
G01*
X476258Y316766D02*
G03*
X476258Y316130I318J-318D01*
G01*
X477493Y318001D02*
G03*
X477493Y318638I-318J318D01*
G01*
X473399Y322600D02*
G03*
X473849Y322150I450J0D01*
G01*
X475119Y321250D02*
G03*
X475119Y322150I0J450D01*
G01*
X473849Y321250D02*
G03*
X473399Y320800I0J-450D01*
G01*
X485550Y319241D02*
G03*
X485100Y318791I0J-450D01*
G01*
X487118Y319241D02*
G03*
X487118Y320141I0J450D01*
G01*
X484738Y320273D02*
G03*
X485056Y320141I318J318D01*
G01*
X484349Y322841D02*
G03*
X483899Y322391I0J-450D01*
G01*
X484550Y322841D02*
G03*
X484550Y323741I0J450D01*
G01*
X484349Y324641D02*
G03*
X484349Y323741I0J-450D01*
G01*
X484950Y324641D02*
G03*
X484950Y325541I0J450D01*
G01*
X484349Y326441D02*
G03*
X484349Y325541I0J-450D01*
G01*
X485111Y326441D02*
G03*
X485111Y327341I0J450D01*
G01*
X483899Y327791D02*
G03*
X484349Y327341I450J0D01*
G01*
X481300Y318625D02*
G03*
X480850Y319075I-450J0D01*
G01*
X479769Y319975D02*
G03*
X479769Y319075I0J-450D01*
G01*
X481545Y319975D02*
G03*
X481545Y320875I0J450D01*
G01*
X480364Y321775D02*
G03*
X480364Y320875I0J-450D01*
G01*
X481849Y321775D02*
G03*
X481849Y322675I0J450D01*
G01*
X480782Y323575D02*
G03*
X480782Y322675I0J-450D01*
G01*
X481849Y323575D02*
G03*
X481849Y324475I0J450D01*
G01*
X480782Y325375D02*
G03*
X480782Y324475I0J-450D01*
G01*
X481849Y325375D02*
G03*
X481849Y326275I0J450D01*
G01*
X481300Y326275D02*
G03*
X481217Y326473I-743J-196D01*
G01*
X590550Y347350D02*
X592550Y349350D01*
X533300Y325700D02*
X536000Y328400D01*
X544200D01*
X545900Y330100D01*
X544820Y331000D02*
X544920Y331100D01*
X545900Y330100D02*
X547200D01*
X544920Y331100D02*
X551400D01*
X547200Y330100D02*
X548400Y328900D01*
X546622Y325142D02*
Y328662D01*
X548400Y326000D02*
Y328900D01*
X547500Y325100D02*
X548400Y326000D01*
X548300Y307431D02*
X551069Y310200D01*
X548300Y296800D02*
X557500Y287600D01*
X548300Y296800D02*
Y307431D01*
X549100Y298400D02*
X550200Y297300D01*
X549100Y307100D02*
X551300Y309300D01*
X549100Y298400D02*
Y307100D01*
X547500Y282500D02*
Y325100D01*
X537500Y282500D02*
X546600Y291600D01*
X544600Y323500D02*
X546600Y321500D01*
X544598Y322100D02*
X545800Y320898D01*
X546600Y291600D02*
Y321500D01*
X545800Y312369D02*
Y320898D01*
X541900Y308469D02*
X545800Y312369D01*
X557500Y282500D02*
Y287600D01*
X544200Y313394D02*
Y320100D01*
X536800Y322100D02*
X544598D01*
X535500Y323500D02*
X544600D01*
X535169Y324300D02*
X545780D01*
X546622Y325142D01*
X534369Y323500D02*
X535169Y324300D01*
X534800Y322800D02*
X535500Y323500D01*
X532418D02*
X534369D01*
X534800Y320947D02*
Y322800D01*
Y320947D02*
X536472Y319275D01*
X535380Y325800D02*
X545000D01*
X533880Y324300D02*
X535380Y325800D01*
X532087Y324300D02*
X533880D01*
X521800Y314013D02*
X532087Y324300D01*
X521800Y310300D02*
Y314013D01*
X530173Y325574D02*
X535099Y330500D01*
X541000D01*
X542900Y332400D01*
X539600Y308794D02*
X544200Y313394D01*
X523100Y314181D02*
X532418Y323500D01*
X539600Y301635D02*
Y308794D01*
X554031Y310200D02*
X557200Y313369D01*
X551400Y331100D02*
X557200Y325300D01*
Y313369D02*
Y325300D01*
X552300Y332400D02*
X558500Y326200D01*
Y313537D02*
Y326200D01*
X554263Y309300D02*
X558500Y313537D01*
X551300Y309300D02*
X554263D01*
X551069Y310200D02*
X554031D01*
X523100Y310400D02*
Y314181D01*
X539622Y312976D02*
X539700Y312898D01*
X515231Y347000D02*
X532000D01*
X537500Y352500D01*
X523700Y348700D02*
X527500Y352500D01*
X515800Y348700D02*
X523700D01*
X511500Y344400D02*
X515800Y348700D01*
X507731Y339500D02*
X515231Y347000D01*
X503300Y344400D02*
X511500D01*
X500800Y339500D02*
X507731D01*
X512800Y347800D02*
X517500Y352500D01*
X500700Y347800D02*
X512800D01*
X492378Y337600D02*
Y340958D01*
X480317Y346983D02*
X485300Y342000D01*
X425800Y332700D02*
X440083Y346983D01*
X440391Y347099D02*
X445621Y346802D01*
X445712Y346800D02*
X480029Y347100D01*
X581400Y301300D02*
X597000Y316900D01*
X553900Y301300D02*
X581400D01*
X581069Y302100D02*
X596200Y317231D01*
X555600Y302100D02*
X581069D01*
X553406Y304294D02*
X555600Y302100D01*
X566320Y335500D02*
X574550D01*
X575450Y334600D01*
X585600D01*
X565843Y335023D02*
X566320Y335500D01*
X585600Y334600D02*
X590550Y339550D01*
X527024Y335023D02*
X565843D01*
X596200Y334531D02*
X598213Y336545D01*
X597500Y352500D02*
X598213Y351787D01*
Y336545D02*
Y351787D01*
X556757Y336400D02*
X566557Y346200D01*
X547080Y336400D02*
X556757D01*
X566557Y346200D02*
X581200D01*
X558000Y339800D02*
X565800Y347600D01*
X533323Y338172D02*
X534950Y339800D01*
X558000D01*
X565800Y347600D02*
X572600D01*
X530243Y336150D02*
X546830D01*
X528300Y338093D02*
X530243Y336150D01*
X546830D02*
X547080Y336400D01*
X528300Y338093D02*
Y339800D01*
X560200Y333400D02*
X562400Y331200D01*
X586300D01*
X553194Y304294D02*
X553406D01*
X470900Y313600D02*
X470940Y313640D01*
X478124Y328299D02*
Y329200D01*
X477624Y327849D02*
X477674D01*
X477624Y326949D02*
X479082D01*
X477624Y326049D02*
X479082D01*
X477624Y325149D02*
X479082D01*
X477624Y324249D02*
X479082D01*
X477624Y323349D02*
X479082D01*
X477624Y322449D02*
X479082D01*
X477624Y321549D02*
X478664D01*
X478574Y320649D02*
X478664D01*
X478124Y319139D02*
Y320199D01*
Y319139D02*
X478164Y319099D01*
X488763Y308500D01*
X470200Y293485D02*
X471407D01*
X469750Y293035D02*
Y293035D01*
X468850Y293035D02*
Y293814D01*
X467950Y292916D02*
Y293814D01*
X467050Y292916D02*
Y294055D01*
X466150Y293935D02*
Y294055D01*
X465500Y293485D02*
X465700D01*
X471407D02*
X488634D01*
X490200Y307320D02*
Y311851D01*
X493900Y309000D02*
Y311851D01*
X493666Y312085D02*
X493900Y311851D01*
X490434Y312085D02*
X493666D01*
X490200Y311851D02*
X490434Y312085D01*
X494600Y308300D02*
X496700D01*
X487280Y304400D02*
X490200Y307320D01*
X488763Y308500D02*
X488800D01*
X493900Y309000D02*
X494600Y308300D01*
X469600Y311200D02*
Y311900D01*
X470050Y310750D02*
X472156D01*
X470050Y309850D02*
X472156D01*
X470050Y308950D02*
X472156D01*
X470050Y308050D02*
X472156D01*
X469600Y306500D02*
Y307600D01*
Y311900D02*
Y312550D01*
Y306400D02*
Y306500D01*
Y312550D02*
X470650Y313600D01*
X464663Y300420D02*
X464893Y300191D01*
X465757D02*
X465985Y299963D01*
X464893Y300191D02*
X465757D01*
X467756Y305700D02*
X469228Y304228D01*
X467756Y306336D02*
X467852Y306432D01*
X467215Y307068D02*
X467215D01*
X467067Y306920D02*
X467215Y307068D01*
X466430Y307556D02*
X466430D01*
X466579Y307705D01*
X466579Y308341D02*
X466579Y308341D01*
X466579Y308341D01*
X466579Y308341D02*
X466579Y308341D01*
X465943D02*
X465943D01*
X465794Y308192D02*
X465943Y308341D01*
X465158Y308829D02*
X465158D01*
X465823Y309494D01*
X465823Y310130D02*
X465823Y310130D01*
X465823Y310130D01*
X465823Y310130D02*
X465823Y310130D01*
X465186D02*
X465186D01*
X464521Y309465D02*
X465186Y310130D01*
X463885Y310102D02*
X463885D01*
X464463Y310680D01*
X463827Y311316D02*
X463827D01*
X463248Y310738D02*
X463827Y311316D01*
X462612Y310738D02*
X462612Y310738D01*
X462612Y311374D02*
X462612D01*
X462617Y311379D01*
X461980Y312016D02*
X461980D01*
X461975Y312011D02*
X461980Y312016D01*
X461339Y312647D02*
X461339D01*
X461859Y313167D01*
X461859Y313804D02*
X461859Y313804D01*
X461859Y313804D01*
X461859Y313804D02*
X461859Y313804D01*
X461223D02*
X461223D01*
X460756Y313337D02*
X461223Y313804D01*
X459978Y313478D02*
X460120Y313337D01*
X469228Y304228D02*
X469228D01*
X470556Y302900D01*
X458770Y314686D02*
X459978Y313478D01*
X470556Y302900D02*
X476831D01*
X478718Y304418D02*
X479045Y304092D01*
X470650Y313600D02*
X470900D01*
X469600Y306400D02*
X472300Y303700D01*
X476500D01*
X476831Y302900D02*
X477283Y303352D01*
X476500Y303700D02*
X477218Y304418D01*
X477283Y303352D02*
X478703D01*
X477218Y304418D02*
X478718D01*
X478703Y303352D02*
X479877Y302178D01*
X481640D01*
X500700Y308300D02*
X502100D01*
X500100Y307700D02*
X500700Y308300D01*
X500100Y305200D02*
Y307700D01*
X499700Y304800D02*
X500100Y305200D01*
X497900Y304800D02*
X499700D01*
X497400Y305300D02*
X497900Y304800D01*
X497400Y305300D02*
Y307600D01*
X496700Y308300D02*
X497400Y307600D01*
X502500Y300600D02*
X503500Y301600D01*
Y306960D01*
X502400Y308060D02*
X503500Y306960D01*
X502100Y308300D02*
X502340Y308060D01*
X502400D01*
X500839Y293300D02*
X501706Y294167D01*
X501951D01*
X465985Y299963D02*
X471785D01*
X465985Y299163D02*
X471453D01*
X465223Y298400D02*
X465985Y299163D01*
X465200Y298400D02*
X465223D01*
X488819Y293300D02*
X500839D01*
X488634Y293485D02*
X488819Y293300D01*
X506538Y300377D02*
X506773Y300143D01*
X505269Y298188D02*
X506773Y299692D01*
X504976Y300377D02*
X506538D01*
X506773Y299692D02*
Y300143D01*
X505601Y297388D02*
X508366Y300154D01*
X500045Y297388D02*
X505601D01*
X508366Y300154D02*
Y300467D01*
X464550Y293485D02*
X465500D01*
X492378Y331873D02*
Y331922D01*
X492329D02*
X492378D01*
X490700Y333551D02*
X492329Y331922D01*
X492200Y331695D02*
X492378Y331873D01*
X478766Y317365D02*
X479425Y316706D01*
X478766Y317365D02*
X478766Y317365D01*
X476895Y316130D02*
X478130Y317365D01*
X476895Y316130D02*
Y316130D01*
X476258Y316766D02*
X477493Y318001D01*
X477493Y318638D02*
X477493Y318638D01*
X476716Y319416D02*
X477493Y318638D01*
X479425Y316706D02*
X486178Y309953D01*
X476374Y319757D02*
X476716Y319416D01*
X476374Y319757D02*
Y332048D01*
X473399Y322600D02*
Y323700D01*
X473849Y322150D02*
X475119D01*
X473849Y321250D02*
X475119D01*
X473399Y317900D02*
Y320800D01*
Y323700D02*
Y325574D01*
Y317612D02*
Y317900D01*
X479698Y328002D02*
Y331873D01*
X478124Y333448D02*
X479698Y331873D01*
Y328002D02*
X481000Y326700D01*
X474974Y327149D02*
Y327200D01*
X485100Y318020D02*
X485920Y317200D01*
X485100Y318020D02*
Y318791D01*
X485550Y319241D02*
X487118D01*
X485056Y320141D02*
X487118D01*
X483899Y321112D02*
X484738Y320273D01*
X483899Y321112D02*
Y322391D01*
X484349Y322841D02*
X484550D01*
X484349Y323741D02*
X484550D01*
X484349Y324641D02*
X484950D01*
X484349Y325541D02*
X484950D01*
X484349Y326441D02*
X485111D01*
X484349Y327341D02*
X485111D01*
X483899Y327791D02*
Y327991D01*
X485920Y317200D02*
X488320Y314800D01*
X483899Y327991D02*
Y334870D01*
X471585Y327426D02*
X472599Y326411D01*
X481300Y317600D02*
Y318625D01*
X479769Y319075D02*
X480850D01*
X479769Y319975D02*
X481545D01*
X480364Y320875D02*
X481545D01*
X480364Y321775D02*
X481849D01*
X480782Y322675D02*
X481849D01*
X480782Y323575D02*
X481849D01*
X480782Y324475D02*
X481849D01*
X480782Y325375D02*
X481849D01*
X481743Y326275D02*
X481849D01*
X481300Y326275D02*
X481743Y326275D01*
X481202Y326498D02*
X481217Y326473D01*
X481200Y326500D02*
X481202Y326498D01*
X481000Y326700D02*
X481200Y326500D01*
X481300Y317094D02*
Y317600D01*
X478124Y329200D02*
Y330298D01*
X481300Y317094D02*
X486157Y312237D01*
X488004Y312026D02*
X488104Y312126D01*
X487900Y312026D02*
X488004D01*
X487534Y311660D02*
X487900Y312026D01*
X486957Y312237D02*
X487534Y311660D01*
X485299Y328850D02*
X486751D01*
X491601Y323999D01*
X482169Y336600D02*
X483899Y334870D01*
X473550Y334873D02*
X479676D01*
X483099Y331450D01*
Y320681D02*
Y331450D01*
Y320681D02*
X484300Y319480D01*
X491601Y323999D02*
X500252D01*
X485300Y331880D02*
X489856Y327324D01*
X486100Y332269D02*
X489645Y328724D01*
X486900Y332600D02*
X489700Y329800D01*
X486900Y332600D02*
Y351900D01*
X489700Y329800D02*
X493454D01*
X495528Y331873D01*
Y331900D01*
X486100Y332269D02*
Y343900D01*
X489645Y328724D02*
X495528D01*
X485300Y331880D02*
Y342000D01*
X489856Y327324D02*
X500424D01*
X501900Y328800D01*
X486178Y308961D02*
Y309953D01*
X474974Y333448D02*
X476374Y332048D01*
X470250Y338172D02*
X473550Y334873D01*
X474974Y336598D02*
X481118D01*
X501080Y282500D02*
X512100Y293520D01*
X497500Y282500D02*
X501080D01*
X512100Y293520D02*
Y300600D01*
X419127Y304343D02*
Y308027D01*
X425800Y314700D01*
X526700Y292031D02*
X533646Y298977D01*
X521053Y283184D02*
X526700Y288831D01*
Y292031D01*
X496463Y299100D02*
X496609Y298953D01*
X494972Y298300D02*
X496131D01*
X490201Y298977D02*
X494518D01*
X494640Y299100D01*
X489870Y298177D02*
X494849D01*
X496131Y298300D02*
X496278Y298153D01*
X499280D01*
X494640Y299100D02*
X496463D01*
X494849Y298177D02*
X494972Y298300D01*
X496609Y298953D02*
X499611D01*
X488479Y300700D02*
X490201Y298977D01*
X499611Y298953D02*
X500376Y298188D01*
X489056Y298991D02*
X489870Y298177D01*
X500376Y298188D02*
X505269D01*
X499280Y298153D02*
X500045Y297388D01*
X493649Y303758D02*
X495535D01*
X425800Y314700D02*
Y332700D01*
X513000Y300300D02*
X523100Y310400D01*
X512100Y300600D02*
X521800Y310300D01*
X459201Y298835D02*
X464550Y293485D01*
X487700Y334680D02*
X488740Y333640D01*
X486900Y351900D02*
X487500Y352500D01*
X487700Y334680D02*
Y347200D01*
X477500Y352500D02*
X486100Y343900D01*
X487700Y347200D02*
X493000Y352500D01*
X498677Y331900D02*
Y339777D01*
X481120Y336600D02*
X482169D01*
X490700Y333551D02*
Y336800D01*
X491400Y337500D01*
X498900Y346000D02*
X500700Y347800D01*
X497420Y346000D02*
X498900D01*
X492378Y340958D02*
X497420Y346000D01*
X494600Y348800D02*
X503800D01*
X491400Y345600D02*
X494600Y348800D01*
X491400Y337500D02*
Y345600D01*
X472170Y298445D02*
X479035D01*
X472502Y299245D02*
X478704D01*
X471453Y299163D02*
X472170Y298445D01*
X479035D02*
X480568Y299978D01*
X471785Y299963D02*
X472502Y299245D01*
X478704D02*
X480236Y300778D01*
X603300Y282500D02*
X607500D01*
X595600Y290200D02*
X603300Y282500D01*
X578300Y290200D02*
X595600D01*
X577200Y289100D02*
X578300Y290200D01*
X579700Y288500D02*
X591500D01*
X597500Y282500D01*
X582020Y287325D02*
X586845Y282500D01*
X581689Y287325D02*
X582020D01*
X581464Y287100D02*
X581689Y287325D01*
X586845Y282500D02*
X587500D01*
X566700D02*
Y283300D01*
X542900Y332400D02*
X552300D01*
X550200Y297300D02*
X552700D01*
X566700Y283300D01*
Y282500D02*
X567500D01*
X596200Y317231D02*
Y334531D01*
X518184Y283184D02*
X521053D01*
X517500Y282500D02*
X518184Y283184D01*
X527500Y287100D02*
X530200Y289800D01*
X527500Y282500D02*
Y287100D01*
X533646Y298977D02*
X536942D01*
X530200Y289800D02*
Y293269D01*
X532031Y295100D02*
X535731D01*
X530200Y293269D02*
X532031Y295100D01*
X535731D02*
X541900Y301269D01*
Y308469D01*
X536942Y298977D02*
X539600Y301635D01*
X513000Y292400D02*
Y300300D01*
X507500Y286900D02*
X513000Y292400D01*
X507500Y282500D02*
Y286900D01*
X520724Y337976D02*
X520921D01*
X525497Y333400D02*
X560200D01*
X520921Y337976D02*
X525497Y333400D01*
X520724Y337976D02*
Y338172D01*
X607500Y344700D02*
Y352500D01*
X597000Y334200D02*
X607500Y344700D01*
X597000Y316900D02*
Y334200D01*
X590550Y339550D02*
Y347350D01*
X581200Y346200D02*
X587500Y352500D01*
X526778Y341322D02*
X528300Y339800D01*
X520724Y341322D02*
X526778D01*
X572600Y347600D02*
X577500Y352500D01*
X539800Y343700D02*
X541600Y345500D01*
X560500D01*
X567500Y352500D01*
X533323Y343623D02*
X536200Y346500D01*
X551500D01*
X557500Y352500D01*
X542500Y347500D02*
X547500Y352500D01*
X533700Y347500D02*
X542500D01*
X530207Y344007D02*
X533700Y347500D01*
X530207Y338165D02*
Y344007D01*
X495528Y334972D02*
X495578D01*
X498677Y339777D02*
X503300Y344400D01*
X500300Y339000D02*
X500800Y339500D01*
X500300Y330700D02*
Y339000D01*
X500000Y330400D02*
X500300Y330700D01*
X497800Y330400D02*
X500000D01*
X497200Y331000D02*
X497800Y330400D01*
X497200Y331000D02*
Y333350D01*
X495578Y334972D02*
X497200Y333350D01*
X495528Y334972D02*
Y335023D01*
X492378D02*
X492400Y335045D01*
Y337600D01*
X493000Y352500D02*
X497500D01*
X503800Y348800D02*
X507500Y352500D01*
X533323Y341322D02*
Y343623D01*
X539800Y341500D02*
Y343700D01*
X539622Y341322D02*
X539800Y341500D01*
X479045Y304092D02*
X479497D01*
X485558Y303700D02*
X485658Y303600D01*
X480220Y304500D02*
X485889D01*
X479497Y304092D02*
X479889Y303700D01*
X479564Y304892D02*
X479829D01*
X479889Y303700D02*
X485558D01*
X479829Y304892D02*
X480220Y304500D01*
X485889D02*
X485989Y304400D01*
X483124Y309776D02*
X483300Y309600D01*
X476792Y310963D02*
X477978Y309776D01*
X483124D01*
X478130Y306326D02*
Y308376D01*
Y306326D02*
X479564Y304892D01*
X481593Y313287D02*
X484778Y310102D01*
Y307722D02*
X486700Y305800D01*
X477970Y313287D02*
X481593D01*
X484778Y307722D02*
Y310102D01*
X486157Y312237D02*
X486957D01*
X487611Y303600D02*
X488938Y304927D01*
X485658Y303600D02*
X487611D01*
X485989Y304400D02*
X487280D01*
X492480Y304927D02*
X493649Y303758D01*
X488938Y304927D02*
X492480D01*
X484387Y301100D02*
X488020D01*
X487689Y300300D02*
X488089Y299900D01*
X484718Y300300D02*
X487689D01*
X488147Y299900D02*
X489056Y298991D01*
X488089Y299900D02*
X488147D01*
X488420Y300700D02*
X488479D01*
X488020Y301100D02*
X488420Y300700D01*
X489056Y298991D02*
X489056D01*
X488320Y314800D02*
X489410D01*
X480236Y300778D02*
X484065D01*
X480568Y299978D02*
X484397D01*
X486575Y313637D02*
X486737D01*
X476792Y310963D02*
Y311674D01*
X481118Y336598D02*
X481120Y336600D01*
X484065Y300778D02*
X484387Y301100D01*
X484397Y299978D02*
X484718Y300300D01*
X472599Y314698D02*
Y326411D01*
X474417Y312879D02*
X475587D01*
X472599Y314698D02*
X474417Y312879D01*
X475587D02*
X476792Y311674D01*
X475591Y315666D02*
X477970Y313287D01*
X473399Y317612D02*
X475346Y315666D01*
X475591D01*
X485666Y314546D02*
X486575Y313637D01*
X484300Y315226D02*
Y319480D01*
X484979Y314546D02*
X485666D01*
X484300Y315226D02*
X484979Y314546D01*
X473399Y325574D02*
X474974Y327149D01*
X500252Y323999D02*
X501827Y322424D01*
D51*
X612900Y349900D02*
D03*
X623000Y348600D02*
D03*
X592550Y349350D02*
D03*
X417400Y303000D02*
D03*
X544820Y331000D02*
D03*
X546622Y328662D02*
D03*
X544200Y320100D02*
D03*
X545000Y325800D02*
D03*
X533300Y325700D02*
D03*
X530173Y325574D02*
D03*
X551900Y315400D02*
D03*
X539705Y291597D02*
D03*
X542500Y291700D02*
D03*
X536800Y322100D02*
D03*
X536472Y319275D02*
D03*
X539500Y316300D02*
D03*
X539622Y312976D02*
D03*
X536600Y313000D02*
D03*
X512400Y280800D02*
D03*
X532500Y354300D02*
D03*
X452700Y354500D02*
D03*
X462700D02*
D03*
X472600D02*
D03*
X482300D02*
D03*
X511800D02*
D03*
X542400D02*
D03*
X552600D02*
D03*
X562600D02*
D03*
X572400D02*
D03*
X582400D02*
D03*
X591800D02*
D03*
X602800Y350300D02*
D03*
X565300Y338700D02*
D03*
X580200Y323400D02*
D03*
X579500Y327500D02*
D03*
X615800Y291400D02*
D03*
X582400Y283500D02*
D03*
X520721Y293552D02*
D03*
X441100Y323300D02*
D03*
X621200Y312100D02*
D03*
X621000Y308200D02*
D03*
X615700Y297900D02*
D03*
X619100D02*
D03*
X622900Y352600D02*
D03*
X622800Y354900D02*
D03*
X615600Y345100D02*
D03*
X621000Y335800D02*
D03*
X622800Y317200D02*
D03*
X623300Y282400D02*
D03*
X623200Y290600D02*
D03*
X622600Y306500D02*
D03*
Y310500D02*
D03*
X622500Y315000D02*
D03*
Y295000D02*
D03*
X620000Y290000D02*
D03*
X622500Y285000D02*
D03*
X617500Y295000D02*
D03*
X610000Y300000D02*
D03*
X612500Y285000D02*
D03*
X605000Y320000D02*
D03*
X600000D02*
D03*
X592500Y285000D02*
D03*
X580000Y320000D02*
D03*
X572500Y285000D02*
D03*
X562500D02*
D03*
X552500D02*
D03*
X542500D02*
D03*
X450000Y300000D02*
D03*
X447500Y295000D02*
D03*
X437500Y315000D02*
D03*
Y305000D02*
D03*
X435000Y300000D02*
D03*
Y290000D02*
D03*
X420000Y330000D02*
D03*
X432000Y296000D02*
D03*
X573434Y304404D02*
D03*
X583100Y336000D02*
D03*
X596813Y345435D02*
D03*
X560237Y337900D02*
D03*
X542500Y342100D02*
D03*
X597100Y299500D02*
D03*
X565498Y307325D02*
D03*
X586300Y331200D02*
D03*
X576390Y313600D02*
D03*
X553194Y304294D02*
D03*
X430300Y352400D02*
D03*
X428000Y352300D02*
D03*
X426300Y303700D02*
D03*
X432000Y298200D02*
D03*
X430400Y299800D02*
D03*
X428400Y299700D02*
D03*
X470940Y313640D02*
D03*
X488800Y308500D02*
D03*
X464663Y300420D02*
D03*
X501951Y294167D02*
D03*
X465200Y298400D02*
D03*
X508366Y300467D02*
D03*
X495528Y328724D02*
D03*
X492378Y331900D02*
D03*
X474974Y327200D02*
D03*
X471585Y327426D02*
D03*
X485299Y328850D02*
D03*
X486178Y308961D02*
D03*
X474974Y333448D02*
D03*
X478124D02*
D03*
X474974Y336598D02*
D03*
X430350Y347977D02*
D03*
X430300Y312000D02*
D03*
X428200Y348000D02*
D03*
X428300Y346100D02*
D03*
X430400D02*
D03*
X623048Y297253D02*
D03*
X501500Y284900D02*
D03*
X429698Y309100D02*
D03*
X426100Y306588D02*
D03*
X419127Y304343D02*
D03*
X440100Y352000D02*
D03*
X435300Y324000D02*
D03*
X551400Y328900D02*
D03*
X555700Y324700D02*
D03*
X564129Y325082D02*
D03*
X539500Y331900D02*
D03*
X550500Y291978D02*
D03*
X472200Y345300D02*
D03*
X451518Y323400D02*
D03*
X458770Y314686D02*
D03*
X502500Y300600D02*
D03*
X452700Y309800D02*
D03*
X448348Y320900D02*
D03*
X495535Y303758D02*
D03*
X451188Y326973D02*
D03*
X452900Y335100D02*
D03*
X450200Y338000D02*
D03*
X450700Y295900D02*
D03*
X447100Y308500D02*
D03*
X447200Y314200D02*
D03*
X442600Y315600D02*
D03*
X452300Y313200D02*
D03*
X447708Y344465D02*
D03*
X444100Y321000D02*
D03*
X508200Y325569D02*
D03*
X419500Y342700D02*
D03*
X430500Y314300D02*
D03*
X517600Y300352D02*
D03*
X489100Y342949D02*
D03*
X488740Y333640D02*
D03*
X498677Y331900D02*
D03*
X495528D02*
D03*
X501827Y325574D02*
D03*
X501900Y328800D02*
D03*
X452687Y291928D02*
D03*
X533323Y293700D02*
D03*
X570931Y289831D02*
D03*
X581464Y287100D02*
D03*
X579700Y288500D02*
D03*
X577200Y289100D02*
D03*
X553900Y301300D02*
D03*
X539730Y297119D02*
D03*
X527024Y335023D02*
D03*
X523874Y338172D02*
D03*
X527024Y312976D02*
D03*
X530207Y338165D02*
D03*
X495528Y338172D02*
D03*
X492378Y335023D02*
D03*
X533323Y341322D02*
D03*
X527024Y316125D02*
D03*
X517575Y309826D02*
D03*
X514425D02*
D03*
X511276Y319275D02*
D03*
Y316125D02*
D03*
Y312976D02*
D03*
Y309826D02*
D03*
Y306676D02*
D03*
X508251Y322424D02*
D03*
X511276Y328724D02*
D03*
Y331873D02*
D03*
X527024Y322424D02*
D03*
Y331873D02*
D03*
X523874D02*
D03*
X520724Y338172D02*
D03*
Y341322D02*
D03*
X539622Y341322D02*
D03*
X511276Y338172D02*
D03*
X478130Y308376D02*
D03*
X483300Y309600D02*
D03*
X486700Y305800D02*
D03*
X488104Y312126D02*
D03*
X489410Y314800D02*
D03*
X481640Y302178D02*
D03*
X486737Y313637D02*
D03*
X536472Y303527D02*
D03*
X501827Y319275D02*
D03*
X504976Y300377D02*
D03*
X533323Y338172D02*
D03*
X495528Y335023D02*
D03*
X459201Y298835D02*
D03*
X501827Y322424D02*
D03*
X478124Y330298D02*
D03*
X470250Y338172D02*
D03*
D61*
X481743Y326275D02*
D03*
M02*
