G04*
G04 #@! TF.GenerationSoftware,Altium Limited,Altium Designer,20.2.6 (244)*
G04*
G04 Layer_Color=16777215*
%FSLAX25Y25*%
%MOIN*%
G70*
G04*
G04 #@! TF.SameCoordinates,CD837568-38DE-450B-9098-1122AA740EA9*
G04*
G04*
G04 #@! TF.FilePolarity,Positive*
G04*
G01*
G75*
%ADD10C,0.00984*%
%ADD11C,0.01000*%
%ADD12C,0.00787*%
%ADD13C,0.00500*%
G36*
X482346Y287446D02*
X484854Y289954D01*
Y287446D01*
X482346D01*
D02*
G37*
G36*
X482848Y290141D02*
X486785Y294078D01*
Y290141D01*
X482848D01*
D02*
G37*
G36*
X489964Y345259D02*
X488441Y343736D01*
Y345259D01*
X489964D01*
D02*
G37*
D10*
X621739Y299483D02*
G03*
X621739Y299483I-492J0D01*
G01*
X489836Y290732D02*
G03*
X489836Y290732I-492J0D01*
G01*
X487092Y285700D02*
G03*
X487092Y285700I-492J0D01*
G01*
X486374Y344669D02*
G03*
X486374Y344669I-492J0D01*
G01*
D11*
X416200Y305300D02*
G03*
X416200Y305300I-500J0D01*
G01*
D12*
X568884Y341216D02*
X572526D01*
X568884Y337574D02*
Y341216D01*
X613274D02*
X616916D01*
Y337574D02*
Y341216D01*
X568884Y293184D02*
X572526D01*
X568884D02*
Y296826D01*
X615095Y293184D02*
X616916Y295005D01*
X613274Y293184D02*
X615095D01*
X616916Y295005D02*
Y296826D01*
X446284Y340405D02*
Y340995D01*
X444316Y340405D02*
Y340995D01*
X446284Y328105D02*
Y328695D01*
X444316Y328105D02*
Y328695D01*
X442500Y357500D02*
X450000D01*
X442500Y347500D02*
Y357500D01*
Y347500D02*
X622500D01*
Y357500D01*
X450000D02*
X622500D01*
X442500Y287500D02*
X450000D01*
X442500Y277500D02*
Y287500D01*
Y277500D02*
X622500D01*
Y287500D01*
X450000D02*
X622500D01*
X482848Y290141D02*
X486785Y294078D01*
Y290141D02*
Y345259D01*
X447415Y290141D02*
Y345259D01*
Y290141D02*
X486785D01*
X447415Y345259D02*
X486785D01*
X449600Y348200D02*
X484848D01*
X449600Y287200D02*
X484848D01*
X449600D02*
Y348200D01*
X484848Y287200D02*
Y348200D01*
X447415Y292109D02*
X486785D01*
X447415Y343290D02*
X486785D01*
X488441Y343736D02*
X489964Y345259D01*
X488441Y290141D02*
Y345259D01*
X543559Y290141D02*
Y345259D01*
X488441D02*
X543559D01*
X488441Y290141D02*
X543559D01*
D13*
X436547Y281489D02*
X444421D01*
Y305111D01*
X436547D02*
X444421D01*
X390287Y307080D02*
X391272D01*
X390287Y279521D02*
X391272D01*
X390287D02*
Y307080D01*
X391272Y279521D02*
Y307080D01*
Y281489D02*
X426705D01*
X391272Y305111D02*
X426705D01*
M02*
