G04*
G04 #@! TF.GenerationSoftware,Altium Limited,Altium Designer,20.2.6 (244)*
G04*
G04 Layer_Color=16711935*
%FSLAX25Y25*%
%MOIN*%
G70*
G04*
G04 #@! TF.SameCoordinates,CD837568-38DE-450B-9098-1122AA740EA9*
G04*
G04*
G04 #@! TF.FilePolarity,Negative*
G04*
G01*
G75*
%ADD19R,0.02756X0.02362*%
%ADD33C,0.05906*%
%ADD34R,0.05906X0.05906*%
%ADD35O,0.05906X0.11811*%
%ADD36C,0.03937*%
%ADD37O,0.07874X0.06890*%
%ADD38O,0.08268X0.03937*%
%ADD39C,0.01968*%
%ADD64R,0.03937X0.03937*%
%ADD65R,0.02362X0.02756*%
%ADD66R,0.04331X0.08661*%
%ADD67R,0.04724X0.05512*%
%ADD68R,0.08661X0.04331*%
%ADD69R,0.03937X0.03937*%
%ADD70R,0.01181X0.03150*%
%ADD71O,0.00984X0.03150*%
%ADD72O,0.03150X0.00984*%
%ADD73O,0.09449X0.02992*%
%ADD74O,0.02362X0.06693*%
%ADD75R,0.16929X0.13386*%
%ADD76R,0.05512X0.04724*%
%ADD77R,0.04331X0.05512*%
%ADD78P,0.05568X4X360.0*%
%ADD79R,0.01968X0.02047*%
%ADD80R,0.03937X0.07087*%
D19*
X608400Y334032D02*
D03*
Y337968D02*
D03*
X562100Y306269D02*
D03*
Y302331D02*
D03*
X609700Y341632D02*
D03*
Y345568D02*
D03*
X452769Y329337D02*
D03*
Y333274D02*
D03*
X553000Y333132D02*
D03*
Y337069D02*
D03*
X549200Y333132D02*
D03*
Y337069D02*
D03*
X443926Y330894D02*
D03*
Y334832D02*
D03*
X484301Y303877D02*
D03*
Y299940D02*
D03*
X476800Y323068D02*
D03*
Y319131D02*
D03*
X483700Y339769D02*
D03*
Y335831D02*
D03*
X443926Y322795D02*
D03*
Y326731D02*
D03*
X527100Y326932D02*
D03*
Y330869D02*
D03*
X522600Y326932D02*
D03*
Y330869D02*
D03*
X527000Y298868D02*
D03*
Y294932D02*
D03*
X447726Y334832D02*
D03*
Y330894D02*
D03*
X456602Y329337D02*
D03*
Y333274D02*
D03*
X455800Y313131D02*
D03*
Y317069D02*
D03*
X447726Y326731D02*
D03*
Y322795D02*
D03*
X504700Y322969D02*
D03*
Y319032D02*
D03*
X619700Y323868D02*
D03*
Y319932D02*
D03*
X527000Y308231D02*
D03*
Y312169D02*
D03*
X549200Y327969D02*
D03*
Y324031D02*
D03*
X530600Y298868D02*
D03*
Y294932D02*
D03*
X542800Y313732D02*
D03*
Y317669D02*
D03*
X508700Y334331D02*
D03*
Y338268D02*
D03*
X561600Y313668D02*
D03*
Y309732D02*
D03*
D33*
X617500Y352500D02*
D03*
X607500D02*
D03*
X597500D02*
D03*
X587500D02*
D03*
X577500D02*
D03*
X567500D02*
D03*
X557500D02*
D03*
X547500D02*
D03*
X537500D02*
D03*
X527500D02*
D03*
X517500D02*
D03*
X507500D02*
D03*
X497500D02*
D03*
X487500D02*
D03*
X477500D02*
D03*
X467500D02*
D03*
X457500D02*
D03*
X617500Y282500D02*
D03*
X607500D02*
D03*
X597500D02*
D03*
X587500D02*
D03*
X577500D02*
D03*
X567500D02*
D03*
X557500D02*
D03*
X547500D02*
D03*
X537500D02*
D03*
X527500D02*
D03*
X517500D02*
D03*
X507500D02*
D03*
X497500D02*
D03*
X487500D02*
D03*
X477500D02*
D03*
X467500D02*
D03*
X457500D02*
D03*
D34*
X447500Y352500D02*
D03*
Y282500D02*
D03*
D35*
X409579Y293300D02*
D03*
D36*
X439500Y285032D02*
D03*
Y290544D02*
D03*
Y296056D02*
D03*
Y301568D02*
D03*
D37*
X431626Y304619D02*
D03*
Y281981D02*
D03*
D38*
X419731Y354808D02*
D03*
Y320792D02*
D03*
X436069D02*
D03*
Y354808D02*
D03*
D39*
X599194Y314237D02*
D03*
Y310300D02*
D03*
Y306363D02*
D03*
X603131Y314237D02*
D03*
Y310300D02*
D03*
Y306363D02*
D03*
X607068Y314237D02*
D03*
Y310300D02*
D03*
Y306363D02*
D03*
X611005Y314237D02*
D03*
Y310300D02*
D03*
Y306363D02*
D03*
D64*
X564050Y334100D02*
D03*
X557750D02*
D03*
X421650Y313100D02*
D03*
X427950D02*
D03*
X532450Y309800D02*
D03*
X538750Y309800D02*
D03*
X459350Y294500D02*
D03*
X453050D02*
D03*
X505250Y329000D02*
D03*
X511550D02*
D03*
X422650Y349800D02*
D03*
X428950D02*
D03*
X515750Y319600D02*
D03*
X509450D02*
D03*
X520550Y320400D02*
D03*
X526850D02*
D03*
X435550Y343800D02*
D03*
X429250D02*
D03*
X522350Y308900D02*
D03*
X516050D02*
D03*
D65*
X616032Y329100D02*
D03*
X619969D02*
D03*
X474131Y345500D02*
D03*
X478068D02*
D03*
X560569Y323100D02*
D03*
X556632D02*
D03*
X506331Y314800D02*
D03*
X510268D02*
D03*
X452670Y322770D02*
D03*
X456607D02*
D03*
X568469Y295200D02*
D03*
X564532D02*
D03*
X568469Y299300D02*
D03*
X564532D02*
D03*
X481067Y316220D02*
D03*
X485004D02*
D03*
X574768Y292000D02*
D03*
X570831D02*
D03*
X611568Y330200D02*
D03*
X607631D02*
D03*
X464628Y312062D02*
D03*
X460691D02*
D03*
X450869Y306700D02*
D03*
X446932D02*
D03*
X450869Y316200D02*
D03*
X446932D02*
D03*
X451268Y342400D02*
D03*
X447331D02*
D03*
X586731Y294900D02*
D03*
X590668D02*
D03*
X522168Y296100D02*
D03*
X518231D02*
D03*
X518268Y314700D02*
D03*
X514331D02*
D03*
X512769Y324400D02*
D03*
X508832D02*
D03*
X522231Y315500D02*
D03*
X526168D02*
D03*
X500646Y338172D02*
D03*
X496709D02*
D03*
X531632Y331800D02*
D03*
X535569D02*
D03*
X444431Y338600D02*
D03*
X448369D02*
D03*
X531431Y303400D02*
D03*
X535368D02*
D03*
X508468Y307000D02*
D03*
X504531D02*
D03*
X506632Y310600D02*
D03*
X510569D02*
D03*
X524168Y304200D02*
D03*
X520231D02*
D03*
X522168Y300800D02*
D03*
X518231D02*
D03*
X499931Y303200D02*
D03*
X503868D02*
D03*
X558468Y296800D02*
D03*
X554531D02*
D03*
X546531Y296800D02*
D03*
X550468D02*
D03*
D66*
X579341Y334800D02*
D03*
X569459D02*
D03*
X429359Y335900D02*
D03*
X439241D02*
D03*
D67*
X614887Y334765D02*
D03*
X621186D02*
D03*
X614887Y343426D02*
D03*
X621186D02*
D03*
X597387Y333265D02*
D03*
X603686D02*
D03*
X597387Y341926D02*
D03*
X603686D02*
D03*
D68*
X421800Y294841D02*
D03*
Y284959D02*
D03*
D69*
X429500Y290950D02*
D03*
Y297250D02*
D03*
X517400Y327650D02*
D03*
Y333950D02*
D03*
X514000Y297950D02*
D03*
Y304250D02*
D03*
D70*
X424853Y300286D02*
D03*
X422884D02*
D03*
X420916D02*
D03*
X418947D02*
D03*
X424853Y308514D02*
D03*
X422884D02*
D03*
X420916D02*
D03*
X418947D02*
D03*
X425453Y336686D02*
D03*
X423484D02*
D03*
X421516D02*
D03*
X419547D02*
D03*
X425453Y344914D02*
D03*
X423484D02*
D03*
X421516D02*
D03*
X419547D02*
D03*
D71*
X573247Y301557D02*
D03*
X575216D02*
D03*
X577184D02*
D03*
X579153D02*
D03*
Y296242D02*
D03*
X577184D02*
D03*
X575216D02*
D03*
X573247D02*
D03*
D72*
X579842Y298900D02*
D03*
X572558D02*
D03*
D73*
X571413Y327100D02*
D03*
X586987D02*
D03*
X571413Y322100D02*
D03*
X586987D02*
D03*
X571413Y317100D02*
D03*
X586987D02*
D03*
Y312100D02*
D03*
Y307100D02*
D03*
X571413Y312100D02*
D03*
Y307100D02*
D03*
D74*
X612600Y296324D02*
D03*
X607600D02*
D03*
X602600D02*
D03*
X597600D02*
D03*
X612600Y324276D02*
D03*
X607600D02*
D03*
X602600D02*
D03*
X597600D02*
D03*
D75*
X605100Y310300D02*
D03*
D76*
X556835Y312587D02*
D03*
Y318886D02*
D03*
X548174Y312587D02*
D03*
Y318886D02*
D03*
D77*
X559653Y328300D02*
D03*
X553747D02*
D03*
D78*
X539227Y301227D02*
D03*
X534773Y296773D02*
D03*
D79*
X496986Y306600D02*
D03*
X500214D02*
D03*
D80*
X557621Y304000D02*
D03*
X547779D02*
D03*
M02*
