G04*
G04 #@! TF.GenerationSoftware,Altium Limited,Altium Designer,20.2.6 (244)*
G04*
G04 Layer_Color=16777215*
%FSLAX25Y25*%
%MOIN*%
G70*
G04*
G04 #@! TF.SameCoordinates,16F8584A-9F4C-4420-89FF-FEA793B533B6*
G04*
G04*
G04 #@! TF.FilePolarity,Positive*
G04*
G01*
G75*
%ADD12C,0.00787*%
%ADD87C,0.00394*%
%ADD88R,0.02756X0.01378*%
%ADD89R,0.01378X0.02756*%
%ADD90R,0.02165X0.03937*%
%ADD91R,0.03937X0.02165*%
G04:AMPARAMS|DCode=92|XSize=21.65mil|YSize=39.37mil|CornerRadius=0mil|HoleSize=0mil|Usage=FLASHONLY|Rotation=45.000|XOffset=0mil|YOffset=0mil|HoleType=Round|Shape=Rectangle|*
%AMROTATEDRECTD92*
4,1,4,0.00626,-0.02158,-0.02158,0.00626,-0.00626,0.02158,0.02158,-0.00626,0.00626,-0.02158,0.0*
%
%ADD92ROTATEDRECTD92*%

D12*
X611697Y330600D02*
G03*
X611697Y330600I-197J0D01*
G01*
X594197Y329100D02*
G03*
X594197Y329100I-197J0D01*
G01*
X561197Y309200D02*
G03*
X561197Y309200I-197J0D01*
G01*
X498305Y306016D02*
X498895D01*
X498305Y307984D02*
X498895D01*
X563084Y304005D02*
Y304595D01*
X561116Y304005D02*
Y304595D01*
X573022Y338737D02*
X575778D01*
X573022Y330863D02*
X575778D01*
X475805Y346484D02*
X476395D01*
X475805Y344516D02*
X476395D01*
X417863Y288522D02*
Y291278D01*
X425737Y288522D02*
Y291278D01*
X454343Y323754D02*
X454933D01*
X454343Y321785D02*
X454933D01*
X451785Y331010D02*
Y331601D01*
X453753Y331010D02*
Y331601D01*
X566205Y294216D02*
X566795D01*
X566205Y296184D02*
X566795D01*
X566205Y298316D02*
X566795D01*
X566205Y300284D02*
X566795D01*
X552016Y334805D02*
Y335395D01*
X553984Y334805D02*
Y335395D01*
X548216Y334805D02*
Y335395D01*
X550184Y334805D02*
Y335395D01*
X573157Y303557D02*
X585243D01*
X573157Y330643D02*
X585243D01*
X592502Y324060D02*
Y326835D01*
Y293765D02*
Y296540D01*
X617698Y324060D02*
Y326835D01*
Y293765D02*
Y296540D01*
X592502Y326835D02*
X595139D01*
X615061D02*
X617698D01*
X592502Y293765D02*
X595139D01*
X615061D02*
X617698D01*
X432922Y331963D02*
X435678D01*
X432922Y339837D02*
X435678D01*
X442942Y332568D02*
Y333158D01*
X444911Y332568D02*
Y333158D01*
X442942Y324468D02*
Y325058D01*
X444911Y324468D02*
Y325058D01*
X588405Y295884D02*
X588995D01*
X588405Y293916D02*
X588995D01*
X455618Y331010D02*
Y331601D01*
X457587Y331010D02*
Y331601D01*
X454816Y314805D02*
Y315395D01*
X456784Y314805D02*
Y315395D01*
X620684Y321605D02*
Y322195D01*
X618716Y321605D02*
Y322195D01*
X550184Y325705D02*
Y326295D01*
X548216Y325705D02*
Y326295D01*
X545023Y299669D02*
Y308331D01*
Y299669D02*
X560377D01*
Y308331D01*
X545023D02*
X560377D01*
X575356Y332691D02*
X574700Y333347D01*
Y334658D01*
X575356Y335314D01*
X577980D01*
X578636Y334658D01*
Y333347D01*
X577980Y332691D01*
X577324D01*
X576668Y333347D01*
Y335314D01*
X574700Y300801D02*
Y302113D01*
Y301457D01*
X578636D01*
X577980Y300801D01*
D87*
X426475Y297876D02*
G03*
X426475Y297876I-197J0D01*
G01*
X571180Y303132D02*
G03*
X571180Y303132I-197J0D01*
G01*
X617895Y292190D02*
G03*
X617895Y292190I-197J0D01*
G01*
X427075Y334276D02*
G03*
X427075Y334276I-197J0D01*
G01*
D88*
X530600Y296899D02*
D03*
X608399Y336000D02*
D03*
X609699Y343600D02*
D03*
X484301Y301909D02*
D03*
X476800Y321100D02*
D03*
X483700Y337801D02*
D03*
X527099Y328900D02*
D03*
X522599D02*
D03*
X527000Y296901D02*
D03*
X447727Y332864D02*
D03*
X447726Y324763D02*
D03*
X504700Y321001D02*
D03*
X527001Y310200D02*
D03*
X542799Y315700D02*
D03*
X508699Y336300D02*
D03*
X561600Y311701D02*
D03*
D89*
X506500Y307000D02*
D03*
X618000Y329100D02*
D03*
X558600Y323100D02*
D03*
X508300Y314800D02*
D03*
X483035Y316220D02*
D03*
X572800Y292000D02*
D03*
X609600Y330200D02*
D03*
X462660Y312061D02*
D03*
X448900Y306700D02*
D03*
Y316200D02*
D03*
X449300Y342400D02*
D03*
X520200Y296100D02*
D03*
X516300Y314700D02*
D03*
X510800Y324400D02*
D03*
X524200Y315500D02*
D03*
X498677Y338172D02*
D03*
X533600Y331800D02*
D03*
X446400Y338600D02*
D03*
X533400Y303400D02*
D03*
X508600Y310600D02*
D03*
X522200Y304200D02*
D03*
X520200Y300800D02*
D03*
X501900Y303200D02*
D03*
X556500Y296800D02*
D03*
X548500Y296800D02*
D03*
D90*
X560900Y334100D02*
D03*
X424800Y313100D02*
D03*
X535600Y309800D02*
D03*
X456200Y294500D02*
D03*
X508400Y329000D02*
D03*
X425800Y349800D02*
D03*
X512600Y319600D02*
D03*
X523700Y320400D02*
D03*
X432400Y343800D02*
D03*
X519200Y308900D02*
D03*
D91*
X429500Y294100D02*
D03*
X517400Y330800D02*
D03*
X514000Y301100D02*
D03*
D92*
X537000Y299000D02*
D03*
M02*
