G04*
G04 #@! TF.GenerationSoftware,Altium Limited,Altium Designer,20.2.6 (244)*
G04*
G04 Layer_Physical_Order=5*
G04 Layer_Color=128*
%FSLAX25Y25*%
%MOIN*%
G70*
G04*
G04 #@! TF.SameCoordinates,16F8584A-9F4C-4420-89FF-FEA793B533B6*
G04*
G04*
G04 #@! TF.FilePolarity,Negative*
G04*
G01*
G75*
%ADD13C,0.00500*%
%ADD52C,0.04000*%
%ADD54C,0.04159*%
%ADD55O,0.08293X0.03962*%
%ADD56C,0.05143*%
%ADD57O,0.05143X0.08096*%
%ADD58C,0.04356*%
%ADD59C,0.02400*%
%ADD60C,0.02387*%
%ADD62R,0.20700X0.79600*%
%ADD63O,0.07506X0.05537*%
D13*
X516350Y296850D02*
Y298550D01*
X426100Y288900D02*
Y315200D01*
X429651Y318751D01*
X445180D01*
X465600Y286600D02*
X506100D01*
X461800Y290400D02*
X465600Y286600D01*
X451700Y290400D02*
X461800D01*
X445000Y297100D02*
X451700Y290400D01*
X461800Y277500D02*
Y283300D01*
X458900Y286200D02*
X461800Y283300D01*
X448600Y286200D02*
X458900D01*
X447200Y287600D02*
X448600Y286200D01*
X427400Y287600D02*
X447200D01*
X426100Y288900D02*
X427400Y287600D01*
X462000Y346900D02*
Y357400D01*
X506100Y286600D02*
X516350Y296850D01*
X519700Y300900D02*
X520700Y301900D01*
X505800Y302800D02*
X506700Y301900D01*
X505800Y302800D02*
Y305000D01*
X506400Y305600D01*
X515100D01*
X521900Y298800D01*
X525800D01*
X527300Y300300D01*
X529200Y302200D01*
X537500D01*
X538900Y300800D01*
Y299200D02*
Y300800D01*
X534900Y295200D02*
X538900Y299200D01*
X519700Y295200D02*
X534900D01*
X513000Y301900D02*
X519700Y295200D01*
X506700Y301900D02*
X513000D01*
X431660Y346460D02*
X432300Y347100D01*
X431660Y331700D02*
Y346460D01*
X431871Y331700D02*
X445000Y318571D01*
Y297100D02*
Y318571D01*
X520700Y301900D02*
Y321100D01*
X515300Y326500D02*
X520700Y321100D01*
X498500Y326500D02*
X515300D01*
X477900Y347100D02*
X498500Y326500D01*
X432300Y347100D02*
X477900D01*
D52*
X415000Y277500D02*
X645000D01*
Y357500D01*
X415000D02*
X645000D01*
X415000Y277500D02*
Y357500D01*
D54*
X434101Y326422D02*
D03*
Y349178D02*
D03*
D55*
X419731Y354808D02*
D03*
Y320792D02*
D03*
X436069D02*
D03*
Y354808D02*
D03*
D56*
X617500Y352500D02*
D03*
X607500D02*
D03*
X597500D02*
D03*
X587500D02*
D03*
X577500D02*
D03*
X567500D02*
D03*
X557500D02*
D03*
X547500D02*
D03*
X537500D02*
D03*
X527500D02*
D03*
X517500D02*
D03*
X507500D02*
D03*
X497500D02*
D03*
X487500D02*
D03*
X477500D02*
D03*
X447500D02*
D03*
X617500Y282500D02*
D03*
X607500D02*
D03*
X597500D02*
D03*
X587500D02*
D03*
X577500D02*
D03*
X567500D02*
D03*
X557500D02*
D03*
X547500D02*
D03*
X537500D02*
D03*
X527500D02*
D03*
X517500D02*
D03*
X507500D02*
D03*
X497500D02*
D03*
X487500D02*
D03*
X477500D02*
D03*
X447500D02*
D03*
D57*
X409579Y293300D02*
D03*
D58*
X439500Y290544D02*
D03*
Y296056D02*
D03*
Y301568D02*
D03*
D59*
X612900Y349900D02*
D03*
X623000Y348600D02*
D03*
X603500Y346700D02*
D03*
X592550Y349350D02*
D03*
X417400Y303000D02*
D03*
X544820Y331000D02*
D03*
X546622Y328662D02*
D03*
X544200Y320100D02*
D03*
X545000Y325800D02*
D03*
X539550Y319706D02*
D03*
X533300Y325700D02*
D03*
X530173Y325574D02*
D03*
X551900Y315400D02*
D03*
X543135Y296215D02*
D03*
X539705Y291597D02*
D03*
X542500Y291700D02*
D03*
X543000Y294100D02*
D03*
X536800Y322100D02*
D03*
X536472Y319275D02*
D03*
X536500Y316300D02*
D03*
X533323Y316125D02*
D03*
X539500Y316300D02*
D03*
X539622Y312976D02*
D03*
X536600Y313000D02*
D03*
X512400Y280800D02*
D03*
X522500Y354500D02*
D03*
X532500Y354300D02*
D03*
X452700Y354500D02*
D03*
X462700D02*
D03*
X472600D02*
D03*
X482300D02*
D03*
X492600D02*
D03*
X502200D02*
D03*
X511800D02*
D03*
X542400D02*
D03*
X552600D02*
D03*
X562600D02*
D03*
X572400D02*
D03*
X582400D02*
D03*
X591800D02*
D03*
X602800Y350300D02*
D03*
X565300Y338700D02*
D03*
X580200Y323400D02*
D03*
X579500Y327500D02*
D03*
X615800Y291400D02*
D03*
X594600Y288400D02*
D03*
X582400Y283500D02*
D03*
X520721Y293552D02*
D03*
X552800Y312749D02*
D03*
X441100Y323300D02*
D03*
X621200Y312100D02*
D03*
X621000Y308200D02*
D03*
X615700Y297900D02*
D03*
X619100D02*
D03*
X622900Y352600D02*
D03*
X622800Y354900D02*
D03*
X615600Y345100D02*
D03*
X621000Y335800D02*
D03*
X622800Y317200D02*
D03*
X623300Y282400D02*
D03*
X623200Y290600D02*
D03*
X622600Y306500D02*
D03*
Y310500D02*
D03*
X622500Y315000D02*
D03*
Y295000D02*
D03*
X620000Y290000D02*
D03*
X622500Y285000D02*
D03*
X617500Y295000D02*
D03*
X610000Y300000D02*
D03*
X612500Y285000D02*
D03*
X605000Y320000D02*
D03*
X600000D02*
D03*
X592500Y285000D02*
D03*
X580000Y320000D02*
D03*
X572500Y285000D02*
D03*
X562500D02*
D03*
X552500D02*
D03*
X542500D02*
D03*
X450000Y300000D02*
D03*
X447500Y295000D02*
D03*
X437500Y315000D02*
D03*
Y305000D02*
D03*
X435000Y300000D02*
D03*
Y290000D02*
D03*
X420000Y330000D02*
D03*
X432000Y296000D02*
D03*
X562800Y337400D02*
D03*
X573434Y304404D02*
D03*
X583100Y336000D02*
D03*
X617353Y339200D02*
D03*
X596813Y345435D02*
D03*
X560237Y337900D02*
D03*
X542500Y342100D02*
D03*
X566900Y334100D02*
D03*
X579341Y337859D02*
D03*
X597100Y299500D02*
D03*
X565498Y307325D02*
D03*
X561500Y295100D02*
D03*
X613500Y337800D02*
D03*
X594500Y332600D02*
D03*
X590100Y333777D02*
D03*
X586300Y331200D02*
D03*
X581099Y307700D02*
D03*
X580583Y305768D02*
D03*
X576390Y313600D02*
D03*
X553194Y304294D02*
D03*
X557600Y308800D02*
D03*
X600000Y289200D02*
D03*
X608200Y302200D02*
D03*
X590000Y330737D02*
D03*
X587525Y345665D02*
D03*
X594512Y326700D02*
D03*
X572810Y343300D02*
D03*
X430300Y352400D02*
D03*
X428000Y352300D02*
D03*
X426300Y303700D02*
D03*
X432000Y298200D02*
D03*
X430400Y299800D02*
D03*
X428400Y299700D02*
D03*
X462591Y316124D02*
D03*
X491900Y303527D02*
D03*
X489000Y302100D02*
D03*
X470940Y313640D02*
D03*
X467290Y310642D02*
D03*
X488800Y308500D02*
D03*
X495554Y309826D02*
D03*
X487000Y296900D02*
D03*
Y298900D02*
D03*
X468200Y308700D02*
D03*
X463445Y307566D02*
D03*
X464663Y300420D02*
D03*
X466115Y302915D02*
D03*
X469853Y301690D02*
D03*
X462403Y305094D02*
D03*
X463997Y303563D02*
D03*
X474960Y305199D02*
D03*
X498677Y303400D02*
D03*
X504976Y303527D02*
D03*
X501820Y306660D02*
D03*
X474667Y295653D02*
D03*
X481300Y296900D02*
D03*
X488069Y292070D02*
D03*
X501951Y294167D02*
D03*
X505000Y294100D02*
D03*
X465200Y298400D02*
D03*
X501853Y291500D02*
D03*
X485197Y292085D02*
D03*
X508366Y300467D02*
D03*
X463100Y292800D02*
D03*
X495528Y328724D02*
D03*
X492378Y331900D02*
D03*
X468300Y339700D02*
D03*
X466900Y315700D02*
D03*
X468000Y320800D02*
D03*
X482830Y318800D02*
D03*
X474974Y327200D02*
D03*
X471585Y327426D02*
D03*
X481212Y328702D02*
D03*
X471992Y342803D02*
D03*
X468400Y324000D02*
D03*
X463000Y324900D02*
D03*
X485299Y328850D02*
D03*
X481644Y335144D02*
D03*
X486178Y308961D02*
D03*
X463000Y332500D02*
D03*
X467090Y329590D02*
D03*
X463000Y330500D02*
D03*
X466669Y331545D02*
D03*
X470056Y321525D02*
D03*
X462800Y336600D02*
D03*
X495582Y322479D02*
D03*
X486800Y325700D02*
D03*
X486400Y322900D02*
D03*
X474900Y330500D02*
D03*
X474974Y333448D02*
D03*
X478124D02*
D03*
X474974Y336598D02*
D03*
X495529Y319179D02*
D03*
X430350Y347977D02*
D03*
X430300Y312000D02*
D03*
X428200Y348000D02*
D03*
X428300Y346100D02*
D03*
X430400D02*
D03*
X623048Y297253D02*
D03*
X514473Y291027D02*
D03*
X501500Y284900D02*
D03*
X495698Y291312D02*
D03*
X536490Y286910D02*
D03*
X535076Y288324D02*
D03*
X438165Y309815D02*
D03*
X436751Y308401D02*
D03*
X530219Y287818D02*
D03*
X531866Y286023D02*
D03*
X429698Y309100D02*
D03*
X426100Y306588D02*
D03*
X419127Y304343D02*
D03*
X424000Y304000D02*
D03*
X440100Y352000D02*
D03*
X435300Y324000D02*
D03*
X587600Y298900D02*
D03*
X551400Y328900D02*
D03*
X555700Y324700D02*
D03*
X564129Y325082D02*
D03*
X561833Y318584D02*
D03*
X524362Y296822D02*
D03*
X522287Y290383D02*
D03*
X525300Y290000D02*
D03*
X539500Y331900D02*
D03*
X550500Y291978D02*
D03*
X472200Y345300D02*
D03*
X467096Y313608D02*
D03*
X469733Y315900D02*
D03*
X456143Y321100D02*
D03*
X451777Y318832D02*
D03*
X451518Y323400D02*
D03*
X458770Y314686D02*
D03*
X498278Y300473D02*
D03*
X502500Y300600D02*
D03*
X495551Y296900D02*
D03*
X492378Y300377D02*
D03*
X498700Y296753D02*
D03*
X458784Y308333D02*
D03*
X459201Y311764D02*
D03*
X456000Y311800D02*
D03*
X452700Y309800D02*
D03*
X448348Y320900D02*
D03*
X495535Y303758D02*
D03*
X495503Y300872D02*
D03*
X451188Y326973D02*
D03*
X453204D02*
D03*
X452900Y335100D02*
D03*
X450200Y338000D02*
D03*
X450700Y295900D02*
D03*
X447100Y308500D02*
D03*
X447200Y314200D02*
D03*
X442600Y315600D02*
D03*
X452300Y313200D02*
D03*
X447708Y344465D02*
D03*
X456100Y336500D02*
D03*
X444100Y321000D02*
D03*
X508200Y325569D02*
D03*
X504598Y325498D02*
D03*
X419500Y342700D02*
D03*
X430500Y314300D02*
D03*
X517600Y300352D02*
D03*
X489100Y342949D02*
D03*
Y340356D02*
D03*
Y335800D02*
D03*
X488740Y333640D02*
D03*
X498677Y331900D02*
D03*
X495528D02*
D03*
X501827D02*
D03*
Y325574D02*
D03*
X501900Y328800D02*
D03*
X454500Y343100D02*
D03*
X495528Y325574D02*
D03*
X504976Y332351D02*
D03*
X498000Y344600D02*
D03*
X497000Y347400D02*
D03*
X500802Y345408D02*
D03*
X493900Y345000D02*
D03*
X456076Y301952D02*
D03*
X452687Y291928D02*
D03*
X533323Y293700D02*
D03*
X622100Y323900D02*
D03*
X570931Y289831D02*
D03*
X578145Y306805D02*
D03*
X581464Y287100D02*
D03*
X579700Y288500D02*
D03*
X577200Y289100D02*
D03*
X550500Y299500D02*
D03*
X553900Y301300D02*
D03*
X539730Y297119D02*
D03*
X508300Y294100D02*
D03*
X527024Y335023D02*
D03*
X523874Y338172D02*
D03*
X584800Y301700D02*
D03*
X592550Y344640D02*
D03*
X605400Y328100D02*
D03*
X601000Y328000D02*
D03*
X527024Y312976D02*
D03*
X533323D02*
D03*
X530173D02*
D03*
X530207Y338165D02*
D03*
X501840Y340960D02*
D03*
X495528Y338172D02*
D03*
X489240Y346761D02*
D03*
X492378Y335023D02*
D03*
X489750Y338165D02*
D03*
X481010Y342910D02*
D03*
X533323Y341322D02*
D03*
X511276Y322768D02*
D03*
X520724Y319275D02*
D03*
X527024Y316125D02*
D03*
X517575Y309826D02*
D03*
X514425D02*
D03*
X511276Y319275D02*
D03*
Y316125D02*
D03*
Y312976D02*
D03*
Y309826D02*
D03*
Y306676D02*
D03*
X508251Y322424D02*
D03*
X511276Y328724D02*
D03*
Y331873D02*
D03*
X517575Y325574D02*
D03*
X520724D02*
D03*
X523874D02*
D03*
X527024Y322424D02*
D03*
Y331873D02*
D03*
X523874D02*
D03*
X520724Y338172D02*
D03*
Y341322D02*
D03*
X536472Y338172D02*
D03*
X539622Y341322D02*
D03*
X501827Y335023D02*
D03*
X511276Y338172D02*
D03*
X504976Y335023D02*
D03*
X564633Y309458D02*
D03*
X564678Y312707D02*
D03*
X591900Y302600D02*
D03*
X592200Y300600D02*
D03*
X536397Y306695D02*
D03*
X533278Y306631D02*
D03*
X527024Y300377D02*
D03*
X480800Y305900D02*
D03*
X478130Y308376D02*
D03*
X483300Y309600D02*
D03*
X486700Y305800D02*
D03*
X488104Y312126D02*
D03*
X489410Y314800D02*
D03*
X487700Y317400D02*
D03*
X488600Y321800D02*
D03*
X488500Y324600D02*
D03*
X481640Y302178D02*
D03*
X486737Y313637D02*
D03*
X478192Y311542D02*
D03*
X456076Y305102D02*
D03*
X533323Y319275D02*
D03*
Y300377D02*
D03*
X536472Y303527D02*
D03*
X527024D02*
D03*
Y306676D02*
D03*
X501827Y319275D02*
D03*
X508126Y297228D02*
D03*
X504976Y300377D02*
D03*
X533323Y338172D02*
D03*
X495528Y335023D02*
D03*
X564068Y328770D02*
D03*
X610616Y289279D02*
D03*
X607143Y289258D02*
D03*
X603498Y289138D02*
D03*
X456063Y327125D02*
D03*
X459201Y298835D02*
D03*
X459226Y317700D02*
D03*
X475007Y311479D02*
D03*
X478640Y314800D02*
D03*
X475013Y317978D02*
D03*
X495528Y312700D02*
D03*
X498677Y325574D02*
D03*
Y319275D02*
D03*
X498677Y316125D02*
D03*
X498677Y322424D02*
D03*
X495586Y315500D02*
D03*
X498677Y312976D02*
D03*
Y309826D02*
D03*
X495466Y306712D02*
D03*
X465477Y333200D02*
D03*
X478498Y343530D02*
D03*
X478200Y339800D02*
D03*
X501827Y322424D02*
D03*
X459308Y327141D02*
D03*
X478124Y330298D02*
D03*
X470250Y338172D02*
D03*
X463200Y341200D02*
D03*
X501827Y316125D02*
D03*
Y312976D02*
D03*
Y309826D02*
D03*
D60*
X599194Y314237D02*
D03*
Y310300D02*
D03*
Y306363D02*
D03*
X603131Y314237D02*
D03*
Y310300D02*
D03*
Y306363D02*
D03*
X607068Y314237D02*
D03*
Y310300D02*
D03*
Y306363D02*
D03*
X611005Y314237D02*
D03*
Y310300D02*
D03*
Y306363D02*
D03*
D62*
X634650Y317700D02*
D03*
D63*
X431626Y304619D02*
D03*
Y281981D02*
D03*
M02*
