G04*
G04 #@! TF.GenerationSoftware,Altium Limited,Altium Designer,20.2.6 (244)*
G04*
G04 Layer_Physical_Order=2*
G04 Layer_Color=32768*
%FSLAX25Y25*%
%MOIN*%
G70*
G04*
G04 #@! TF.SameCoordinates,CD837568-38DE-450B-9098-1122AA740EA9*
G04*
G04*
G04 #@! TF.FilePolarity,Negative*
G04*
G01*
G75*
%ADD52C,0.04000*%
%ADD53R,0.20600X0.80100*%
%ADD54C,0.05143*%
%ADD55O,0.05143X0.08096*%
%ADD56C,0.04356*%
%ADD57C,0.04159*%
%ADD58O,0.08293X0.03962*%
%ADD59C,0.02400*%
%ADD60C,0.02387*%
D52*
X415000Y357500D02*
X645000D01*
Y277500D02*
Y357500D01*
X415000Y277500D02*
X645000D01*
X415000D02*
Y357500D01*
D53*
X634700Y317450D02*
D03*
D54*
X617500Y352500D02*
D03*
X607500D02*
D03*
X597500D02*
D03*
X587500D02*
D03*
X577500D02*
D03*
X567500D02*
D03*
X557500D02*
D03*
X547500D02*
D03*
X537500D02*
D03*
X527500D02*
D03*
X517500D02*
D03*
X507500D02*
D03*
X497500D02*
D03*
X487500D02*
D03*
X477500D02*
D03*
X467500D02*
D03*
X457500D02*
D03*
X617500Y282500D02*
D03*
X607500D02*
D03*
X597500D02*
D03*
X587500D02*
D03*
X577500D02*
D03*
X567500D02*
D03*
X557500D02*
D03*
X547500D02*
D03*
X537500D02*
D03*
X527500D02*
D03*
X517500D02*
D03*
X507500D02*
D03*
X497500D02*
D03*
X487500D02*
D03*
X477500D02*
D03*
X467500D02*
D03*
X457500D02*
D03*
D55*
X409579Y293300D02*
D03*
D56*
X439500Y285032D02*
D03*
Y290544D02*
D03*
Y296056D02*
D03*
D57*
X434101Y326422D02*
D03*
Y349178D02*
D03*
D58*
X419731Y354808D02*
D03*
Y320792D02*
D03*
X436069D02*
D03*
Y354808D02*
D03*
D59*
X603500Y346700D02*
D03*
X592550Y349350D02*
D03*
X544820Y331000D02*
D03*
X546622Y328662D02*
D03*
X544200Y320100D02*
D03*
X545000Y325800D02*
D03*
X539550Y319706D02*
D03*
X533300Y325700D02*
D03*
X530173Y325574D02*
D03*
X543135Y296215D02*
D03*
X543000Y294100D02*
D03*
X536800Y322100D02*
D03*
X536472Y319275D02*
D03*
X536500Y316300D02*
D03*
X533323Y316125D02*
D03*
X539622Y312976D02*
D03*
X552800Y312749D02*
D03*
X445700Y348200D02*
D03*
X562800Y337400D02*
D03*
X622200Y327142D02*
D03*
X617353Y339200D02*
D03*
X542916Y337550D02*
D03*
X566900Y334100D02*
D03*
X579341Y337859D02*
D03*
X564600Y304500D02*
D03*
X561500Y295100D02*
D03*
X563008Y292652D02*
D03*
X613500Y337800D02*
D03*
X611000Y335900D02*
D03*
X594500Y332600D02*
D03*
X590100Y333777D02*
D03*
X586300Y331200D02*
D03*
X581099Y307700D02*
D03*
X580583Y305768D02*
D03*
X553194Y304294D02*
D03*
X557600Y308800D02*
D03*
X600000Y289200D02*
D03*
X608200Y302200D02*
D03*
X590000Y330737D02*
D03*
X587525Y345665D02*
D03*
X611100Y332700D02*
D03*
X594512Y326700D02*
D03*
X572810Y343300D02*
D03*
X462591Y316124D02*
D03*
X491900Y303527D02*
D03*
X489000Y302100D02*
D03*
X470940Y313640D02*
D03*
X467290Y310642D02*
D03*
X488800Y308500D02*
D03*
X495554Y309826D02*
D03*
X487000Y296900D02*
D03*
Y298900D02*
D03*
X468200Y308700D02*
D03*
X463445Y307566D02*
D03*
X464663Y300420D02*
D03*
X466115Y302915D02*
D03*
X469853Y301690D02*
D03*
X462403Y305094D02*
D03*
X463997Y303563D02*
D03*
X478124Y301952D02*
D03*
X498677Y303400D02*
D03*
X501820Y306660D02*
D03*
X477930Y295700D02*
D03*
X501951Y294167D02*
D03*
X505000Y294100D02*
D03*
X465200Y298400D02*
D03*
X501853Y291500D02*
D03*
X485197Y292085D02*
D03*
X508366Y300467D02*
D03*
X463100Y292800D02*
D03*
X495528Y328724D02*
D03*
X492378Y331900D02*
D03*
X468300Y339700D02*
D03*
X481110Y330710D02*
D03*
X466900Y315700D02*
D03*
X468000Y320800D02*
D03*
X482830Y318800D02*
D03*
X474974Y324000D02*
D03*
Y327200D02*
D03*
X471585Y327426D02*
D03*
X471992Y342803D02*
D03*
X468400Y324000D02*
D03*
X463000Y324900D02*
D03*
X485299Y328850D02*
D03*
X486178Y308961D02*
D03*
X463000Y332500D02*
D03*
X467090Y329590D02*
D03*
X463000Y330500D02*
D03*
X466669Y331545D02*
D03*
X470056Y321525D02*
D03*
X462800Y336600D02*
D03*
X495582Y322479D02*
D03*
X486800Y325700D02*
D03*
X486400Y322900D02*
D03*
X474900Y330500D02*
D03*
X474974Y333448D02*
D03*
X478124D02*
D03*
X474974Y336598D02*
D03*
X495529Y319179D02*
D03*
X419326Y313460D02*
D03*
X417800Y311700D02*
D03*
X431846Y291795D02*
D03*
X431815Y289704D02*
D03*
X420146Y348317D02*
D03*
X419848Y350871D02*
D03*
X433100Y343900D02*
D03*
X514473Y291027D02*
D03*
X501500Y284900D02*
D03*
X495698Y291312D02*
D03*
X536490Y286910D02*
D03*
X535076Y288324D02*
D03*
X438165Y309815D02*
D03*
X436751Y308401D02*
D03*
X530219Y287818D02*
D03*
X531866Y286023D02*
D03*
X431300Y329700D02*
D03*
X419127Y304343D02*
D03*
X424000Y304000D02*
D03*
X443265Y348509D02*
D03*
X591200Y298000D02*
D03*
X587600Y298900D02*
D03*
X561833Y318584D02*
D03*
X564398Y315617D02*
D03*
X575724Y337057D02*
D03*
X524362Y296822D02*
D03*
X523870Y300400D02*
D03*
X522287Y290383D02*
D03*
X525300Y290000D02*
D03*
X467096Y313608D02*
D03*
X469733Y315900D02*
D03*
X456143Y321100D02*
D03*
X451777Y318832D02*
D03*
X458770Y314686D02*
D03*
X498278Y300473D02*
D03*
X502500Y300600D02*
D03*
X495551Y296900D02*
D03*
X492378Y300377D02*
D03*
X498700Y296753D02*
D03*
X458784Y308333D02*
D03*
X495535Y303758D02*
D03*
X453204Y326973D02*
D03*
X450575Y335335D02*
D03*
X449800Y305000D02*
D03*
X451900Y304900D02*
D03*
X442860Y340471D02*
D03*
X504598Y325498D02*
D03*
X429770Y316311D02*
D03*
X433200Y345800D02*
D03*
X489100Y340356D02*
D03*
Y335800D02*
D03*
X488740Y333640D02*
D03*
X498677Y331900D02*
D03*
X495528D02*
D03*
X501827D02*
D03*
X501900Y328800D02*
D03*
X481500Y339500D02*
D03*
X504976Y332351D02*
D03*
X504806Y322242D02*
D03*
X498000Y344600D02*
D03*
X497000Y347400D02*
D03*
X500802Y345408D02*
D03*
X493900Y345000D02*
D03*
X622100Y323900D02*
D03*
X621700Y319700D02*
D03*
X611300Y319000D02*
D03*
X574613Y289009D02*
D03*
X578145Y306805D02*
D03*
X581464Y287100D02*
D03*
X579700Y288500D02*
D03*
X577200Y289100D02*
D03*
X550500Y299500D02*
D03*
X553900Y301300D02*
D03*
X536427Y300442D02*
D03*
X508300Y294100D02*
D03*
X527024Y335023D02*
D03*
X584800Y301700D02*
D03*
X592550Y344640D02*
D03*
X605400Y328100D02*
D03*
X601000Y328000D02*
D03*
X533323Y312976D02*
D03*
X530168Y309914D02*
D03*
X530173Y312976D02*
D03*
X530207Y338165D02*
D03*
X501840Y340960D02*
D03*
X501827Y338100D02*
D03*
X489240Y346761D02*
D03*
X492378Y335023D02*
D03*
X489750Y338165D02*
D03*
X533323Y341322D02*
D03*
X517575Y316125D02*
D03*
X517382Y320850D02*
D03*
X511276Y322768D02*
D03*
X520724Y319275D02*
D03*
X530173D02*
D03*
X504976Y316125D02*
D03*
X517575Y325574D02*
D03*
X520724D02*
D03*
X523874D02*
D03*
X520724Y338172D02*
D03*
Y341322D02*
D03*
X539622Y341322D02*
D03*
X501827Y335023D02*
D03*
X504976D02*
D03*
X564633Y309458D02*
D03*
X564678Y312707D02*
D03*
X591900Y302600D02*
D03*
X592200Y300600D02*
D03*
X536397Y306695D02*
D03*
X533278Y306631D02*
D03*
X527024Y300377D02*
D03*
X478130Y308376D02*
D03*
X483300Y309600D02*
D03*
X486700Y305800D02*
D03*
X488104Y312126D02*
D03*
X489410Y314800D02*
D03*
X487700Y317400D02*
D03*
X488600Y321800D02*
D03*
X488500Y324600D02*
D03*
X482971Y306800D02*
D03*
X481640Y302178D02*
D03*
X486737Y313637D02*
D03*
X450572Y340606D02*
D03*
X533323Y319275D02*
D03*
Y300377D02*
D03*
X508126Y331873D02*
D03*
X527024Y303527D02*
D03*
Y306676D02*
D03*
X530173Y300377D02*
D03*
X504976D02*
D03*
Y309826D02*
D03*
X530173Y303527D02*
D03*
Y306676D02*
D03*
Y316125D02*
D03*
Y328724D02*
D03*
Y331873D02*
D03*
X533323Y338172D02*
D03*
X495528Y335023D02*
D03*
X564068Y328770D02*
D03*
X610616Y289279D02*
D03*
X607143Y289258D02*
D03*
X603498Y289138D02*
D03*
X456063Y327125D02*
D03*
X459201Y298835D02*
D03*
X459226Y323999D02*
D03*
X452500Y306700D02*
D03*
X452419Y316211D02*
D03*
X457700Y291800D02*
D03*
X508126Y303527D02*
D03*
X463577Y313035D02*
D03*
X475007Y311479D02*
D03*
X474997Y314280D02*
D03*
X478640Y314800D02*
D03*
X498677Y325574D02*
D03*
Y319275D02*
D03*
X498677Y316125D02*
D03*
X498677Y322424D02*
D03*
X495586Y315500D02*
D03*
X498677Y312976D02*
D03*
Y309826D02*
D03*
X465477Y333200D02*
D03*
X498677Y328724D02*
D03*
X478498Y343530D02*
D03*
X478200Y339800D02*
D03*
X501827Y322424D02*
D03*
X459308Y327141D02*
D03*
X478124Y330298D02*
D03*
X470250Y338172D02*
D03*
X463200Y341200D02*
D03*
X501827Y316125D02*
D03*
Y312976D02*
D03*
Y309826D02*
D03*
D60*
X599194Y314237D02*
D03*
Y310300D02*
D03*
Y306363D02*
D03*
X603131Y314237D02*
D03*
Y310300D02*
D03*
Y306363D02*
D03*
X607068Y314237D02*
D03*
Y310300D02*
D03*
Y306363D02*
D03*
X611005Y314237D02*
D03*
Y310300D02*
D03*
Y306363D02*
D03*
M02*
