G04*
G04 #@! TF.GenerationSoftware,Altium Limited,Altium Designer,20.2.6 (244)*
G04*
G04 Layer_Physical_Order=3*
G04 Layer_Color=52224*
%FSLAX25Y25*%
%MOIN*%
G70*
G04*
G04 #@! TF.SameCoordinates,CD837568-38DE-450B-9098-1122AA740EA9*
G04*
G04*
G04 #@! TF.FilePolarity,Positive*
G04*
G01*
G75*
%ADD33C,0.05906*%
%ADD34R,0.05906X0.05906*%
%ADD36C,0.03937*%
%ADD37O,0.07874X0.06890*%
%ADD40C,0.01200*%
%ADD41C,0.00400*%
%ADD51C,0.01600*%
G36*
X615200Y354961D02*
X615109Y354891D01*
X614571Y354191D01*
X614234Y353375D01*
X614118Y352500D01*
X614234Y351625D01*
X614571Y350809D01*
X615109Y350109D01*
X615420Y349870D01*
X615422Y349850D01*
X615231Y349391D01*
Y349250D01*
X615131Y349149D01*
X609422D01*
X609387Y349214D01*
X609293Y349649D01*
X609891Y350109D01*
X610429Y350809D01*
X610766Y351625D01*
X610882Y352500D01*
X610766Y353375D01*
X610429Y354191D01*
X609891Y354891D01*
X609800Y354961D01*
X609970Y355461D01*
X615030D01*
X615200Y354961D01*
D02*
G37*
G36*
X605200D02*
X605109Y354891D01*
X604571Y354191D01*
X604234Y353375D01*
X604118Y352500D01*
X604234Y351625D01*
X604571Y350809D01*
X605109Y350109D01*
X605707Y349649D01*
X605613Y349214D01*
X605578Y349149D01*
X599422D01*
X599387Y349214D01*
X599293Y349649D01*
X599891Y350109D01*
X600429Y350809D01*
X600766Y351625D01*
X600882Y352500D01*
X600766Y353375D01*
X600429Y354191D01*
X599891Y354891D01*
X599800Y354961D01*
X599970Y355461D01*
X605030D01*
X605200Y354961D01*
D02*
G37*
G36*
X624200Y279539D02*
X619970D01*
X619800Y280039D01*
X619891Y280109D01*
X620429Y280809D01*
X620766Y281625D01*
X620882Y282500D01*
X620766Y283375D01*
X620429Y284191D01*
X619891Y284891D01*
X619191Y285429D01*
X618375Y285766D01*
X617914Y285827D01*
Y286053D01*
X617724Y286512D01*
X599662Y304574D01*
X599824Y305119D01*
X600192Y305365D01*
X600498Y305823D01*
X600606Y306363D01*
X600498Y306903D01*
X600192Y307361D01*
X599735Y307667D01*
X599194Y307774D01*
X598654Y307667D01*
X598197Y307361D01*
X597950Y306992D01*
X597405Y306830D01*
X593249Y310986D01*
Y315400D01*
Y324900D01*
X593059Y325359D01*
X589174Y329245D01*
X589492Y329633D01*
X589532Y329607D01*
X590000Y329514D01*
X590468Y329607D01*
X590865Y329872D01*
X591130Y330269D01*
X591223Y330737D01*
X591130Y331206D01*
X590865Y331602D01*
X590468Y331868D01*
X590000Y331961D01*
X589532Y331868D01*
X589135Y331602D01*
X588870Y331206D01*
X588776Y330737D01*
X588870Y330269D01*
X588896Y330229D01*
X588508Y329911D01*
X587473Y330945D01*
X587524Y331200D01*
X587430Y331668D01*
X587165Y332065D01*
X586768Y332330D01*
X586300Y332423D01*
X585832Y332330D01*
X585435Y332065D01*
X585170Y331668D01*
X585077Y331200D01*
X585170Y330732D01*
X585435Y330335D01*
X585832Y330070D01*
X586300Y329977D01*
X586554Y330027D01*
X591951Y324631D01*
Y315400D01*
Y311807D01*
X591489Y311615D01*
X590645Y312459D01*
X590186Y312649D01*
X574080D01*
X573621Y312459D01*
X566189Y305028D01*
X565607Y305153D01*
X565465Y305365D01*
X565068Y305630D01*
X564600Y305724D01*
X564132Y305630D01*
X563735Y305365D01*
X563470Y304968D01*
X563377Y304500D01*
X563426Y304249D01*
X563103Y303749D01*
X561589D01*
X558128Y307210D01*
X558253Y307793D01*
X558465Y307935D01*
X558730Y308332D01*
X558823Y308800D01*
X558730Y309268D01*
X558472Y309654D01*
X558959Y310141D01*
X559149Y310600D01*
Y313316D01*
X559649Y313524D01*
X563460Y309713D01*
X563410Y309458D01*
X563503Y308990D01*
X563768Y308593D01*
X564165Y308328D01*
X564633Y308235D01*
X565101Y308328D01*
X565498Y308593D01*
X565764Y308990D01*
X565857Y309458D01*
X565764Y309927D01*
X565498Y310324D01*
X565101Y310589D01*
X564633Y310682D01*
X564379Y310631D01*
X563682Y311328D01*
X564000Y311717D01*
X564210Y311577D01*
X564678Y311484D01*
X565146Y311577D01*
X565543Y311842D01*
X565808Y312239D01*
X565902Y312707D01*
X565808Y313175D01*
X565543Y313572D01*
X565146Y313838D01*
X564900Y313886D01*
X564841Y313972D01*
X564847Y314090D01*
X565021Y314590D01*
X565263Y314752D01*
X565528Y315149D01*
X565622Y315617D01*
X565528Y316085D01*
X565263Y316482D01*
X564866Y316747D01*
X564398Y316841D01*
X563930Y316747D01*
X563533Y316482D01*
X563268Y316085D01*
X563211Y315800D01*
X562727Y315603D01*
X562701Y315603D01*
X561359Y316945D01*
X561605Y317405D01*
X561833Y317360D01*
X562301Y317453D01*
X562698Y317718D01*
X562963Y318115D01*
X563056Y318584D01*
X562963Y319052D01*
X562698Y319449D01*
X562482Y319593D01*
Y328152D01*
X562717Y328230D01*
X562982Y328236D01*
X563203Y327905D01*
X563600Y327640D01*
X564068Y327547D01*
X564536Y327640D01*
X564933Y327905D01*
X565199Y328302D01*
X565292Y328770D01*
X565199Y329239D01*
X564933Y329636D01*
X564536Y329901D01*
X564068Y329994D01*
X563814Y329943D01*
X546006Y347751D01*
X546214Y348251D01*
X546988D01*
X559369Y335869D01*
X559829Y335679D01*
X561729D01*
X562188Y335869D01*
X562546Y336227D01*
X562800Y336176D01*
X563268Y336270D01*
X563665Y336535D01*
X563930Y336932D01*
X564023Y337400D01*
X563930Y337868D01*
X563665Y338265D01*
X563268Y338530D01*
X562800Y338623D01*
X562332Y338530D01*
X561935Y338265D01*
X561670Y337868D01*
X561577Y337400D01*
X561184Y336978D01*
X560098D01*
X548304Y348772D01*
X548498Y349285D01*
X549191Y349571D01*
X549891Y350109D01*
X550429Y350809D01*
X550766Y351625D01*
X550882Y352500D01*
X550766Y353375D01*
X550429Y354191D01*
X549891Y354891D01*
X549800Y354961D01*
X549970Y355461D01*
X555030D01*
X555200Y354961D01*
X555109Y354891D01*
X554571Y354191D01*
X554234Y353375D01*
X554118Y352500D01*
X554234Y351625D01*
X554571Y350809D01*
X555109Y350109D01*
X555809Y349571D01*
X556625Y349234D01*
X557500Y349118D01*
X558375Y349234D01*
X559191Y349571D01*
X559891Y350109D01*
X560429Y350809D01*
X560766Y351625D01*
X560882Y352500D01*
X560766Y353375D01*
X560429Y354191D01*
X559891Y354891D01*
X559800Y354961D01*
X559970Y355461D01*
X565030D01*
X565200Y354961D01*
X565109Y354891D01*
X564571Y354191D01*
X564234Y353375D01*
X564118Y352500D01*
X564234Y351625D01*
X564571Y350809D01*
X565109Y350109D01*
X565809Y349571D01*
X566625Y349234D01*
X567500Y349118D01*
X568375Y349234D01*
X569191Y349571D01*
X569891Y350109D01*
X570429Y350809D01*
X570766Y351625D01*
X570882Y352500D01*
X570766Y353375D01*
X570429Y354191D01*
X569891Y354891D01*
X569800Y354961D01*
X569970Y355461D01*
X575030D01*
X575200Y354961D01*
X575109Y354891D01*
X574571Y354191D01*
X574234Y353375D01*
X574118Y352500D01*
X574234Y351625D01*
X574571Y350809D01*
X575109Y350109D01*
X575809Y349571D01*
X576625Y349234D01*
X577500Y349118D01*
X578375Y349234D01*
X579191Y349571D01*
X579891Y350109D01*
X580429Y350809D01*
X580766Y351625D01*
X580882Y352500D01*
X580766Y353375D01*
X580429Y354191D01*
X579891Y354891D01*
X579800Y354961D01*
X579970Y355461D01*
X585030D01*
X585200Y354961D01*
X585109Y354891D01*
X584571Y354191D01*
X584234Y353375D01*
X584118Y352500D01*
X584234Y351625D01*
X584571Y350809D01*
X585109Y350109D01*
X585809Y349571D01*
X586625Y349234D01*
X587500Y349118D01*
X588375Y349234D01*
X589191Y349571D01*
X589891Y350109D01*
X590429Y350809D01*
X590766Y351625D01*
X590882Y352500D01*
X590766Y353375D01*
X590429Y354191D01*
X589891Y354891D01*
X589800Y354961D01*
X589970Y355461D01*
X595030D01*
X595200Y354961D01*
X595109Y354891D01*
X594571Y354191D01*
X594234Y353375D01*
X594118Y352500D01*
X594234Y351625D01*
X594571Y350809D01*
X595109Y350109D01*
X595707Y349649D01*
X595613Y349214D01*
X595578Y349149D01*
X594205D01*
X593774Y349350D01*
X593680Y349818D01*
X593415Y350215D01*
X593018Y350480D01*
X592550Y350573D01*
X592082Y350480D01*
X591685Y350215D01*
X591420Y349818D01*
X591327Y349350D01*
X591420Y348882D01*
X591685Y348485D01*
X592082Y348220D01*
X592550Y348127D01*
X592948Y348206D01*
X593206Y347985D01*
X593207Y347964D01*
X593009Y347485D01*
X588696D01*
X588236Y347295D01*
X587779Y346838D01*
X587525Y346888D01*
X587057Y346795D01*
X586660Y346530D01*
X586395Y346133D01*
X586302Y345665D01*
X586395Y345197D01*
X586660Y344799D01*
X587057Y344534D01*
X587525Y344441D01*
X587993Y344534D01*
X588390Y344799D01*
X588655Y345197D01*
X588749Y345665D01*
X588725Y345785D01*
X589075Y346186D01*
X591803D01*
X591955Y345686D01*
X591685Y345505D01*
X591420Y345108D01*
X591326Y344640D01*
X591377Y344386D01*
X590941Y343949D01*
X573819D01*
X573675Y344165D01*
X573278Y344430D01*
X572810Y344524D01*
X572342Y344430D01*
X571945Y344165D01*
X571680Y343768D01*
X571587Y343300D01*
X571680Y342832D01*
X571945Y342435D01*
X572342Y342170D01*
X572810Y342076D01*
X573278Y342170D01*
X573675Y342435D01*
X573819Y342651D01*
X591210D01*
X591669Y342841D01*
X592296Y343467D01*
X592550Y343417D01*
X593018Y343510D01*
X593415Y343775D01*
X593680Y344172D01*
X593773Y344640D01*
X593680Y345108D01*
X593415Y345505D01*
X593145Y345686D01*
X593296Y346186D01*
X602400D01*
X602635Y345835D01*
X603032Y345570D01*
X603500Y345477D01*
X603968Y345570D01*
X604365Y345835D01*
X604630Y346232D01*
X604724Y346700D01*
X604630Y347168D01*
X604508Y347351D01*
X604770Y347851D01*
X615400D01*
X615859Y348041D01*
X616340Y348522D01*
X616530Y348981D01*
X617005Y349184D01*
X617500Y349118D01*
X618375Y349234D01*
X619191Y349571D01*
X619891Y350109D01*
X620429Y350809D01*
X620766Y351625D01*
X620882Y352500D01*
X620766Y353375D01*
X620429Y354191D01*
X619891Y354891D01*
X619800Y354961D01*
X619970Y355461D01*
X624200D01*
Y279539D01*
D02*
G37*
G36*
X495200Y354961D02*
X495109Y354891D01*
X494571Y354191D01*
X494234Y353375D01*
X494118Y352500D01*
X494234Y351625D01*
X494571Y350809D01*
X495109Y350109D01*
X495186Y350049D01*
X495016Y349549D01*
X493557D01*
X493098Y349359D01*
X491149Y347410D01*
X490250D01*
X490105Y347626D01*
X489709Y347891D01*
X489240Y347984D01*
X488772Y347891D01*
X488375Y347626D01*
X488110Y347229D01*
X488017Y346761D01*
X488067Y346510D01*
X487743Y346010D01*
X487501D01*
X487042Y345820D01*
X485508Y344285D01*
X485317Y343826D01*
Y343054D01*
X484856Y342863D01*
X480559Y347159D01*
X480100Y347349D01*
X447130D01*
X446854Y347849D01*
X446923Y348200D01*
X446830Y348668D01*
X446565Y349065D01*
X446168Y349330D01*
X445700Y349424D01*
X445232Y349330D01*
X444874Y349092D01*
X444790Y349072D01*
X444285Y349142D01*
X444130Y349374D01*
X443733Y349640D01*
X443265Y349733D01*
X442797Y349640D01*
X442400Y349374D01*
X442134Y348977D01*
X442041Y348509D01*
X442134Y348041D01*
X442262Y347849D01*
X442009Y347349D01*
X439309D01*
X438849Y347159D01*
X425341Y333651D01*
X425151Y333191D01*
Y308569D01*
X423541Y306959D01*
X423351Y306500D01*
Y305009D01*
X423135Y304865D01*
X422870Y304468D01*
X422777Y304000D01*
X422870Y303532D01*
X423135Y303135D01*
X423532Y302870D01*
X424000Y302777D01*
X424468Y302870D01*
X424865Y303135D01*
X425130Y303532D01*
X425223Y304000D01*
X425130Y304468D01*
X424865Y304865D01*
X424649Y305009D01*
Y306231D01*
X426259Y307841D01*
X426449Y308300D01*
Y332922D01*
X439578Y346051D01*
X479831D01*
X481582Y344300D01*
X481374Y343800D01*
X479668D01*
X479628Y343999D01*
X479363Y344395D01*
X478966Y344661D01*
X478498Y344754D01*
X478030Y344661D01*
X477633Y344395D01*
X477489Y344180D01*
X474430D01*
X473971Y343990D01*
X473781Y343800D01*
X472660D01*
X472461Y343933D01*
X471992Y344026D01*
X471524Y343933D01*
X471325Y343800D01*
X453300D01*
X453452Y328402D01*
X453204Y328197D01*
X452736Y328104D01*
X452339Y327839D01*
X452074Y327442D01*
X451981Y326973D01*
X452074Y326505D01*
X452339Y326108D01*
X452736Y325843D01*
X453204Y325750D01*
X453481Y325526D01*
X453560Y317493D01*
X453115Y317252D01*
X452656Y317456D01*
X452564Y317915D01*
X452642Y317967D01*
X452908Y318364D01*
X453001Y318832D01*
X452908Y319300D01*
X452642Y319697D01*
X452246Y319963D01*
X451777Y320056D01*
X451309Y319963D01*
X450912Y319697D01*
X450647Y319300D01*
X450554Y318832D01*
X450647Y318364D01*
X450912Y317967D01*
X451309Y317702D01*
X451526Y317659D01*
X451632Y317128D01*
X451554Y317076D01*
X451289Y316679D01*
X451195Y316211D01*
X451289Y315742D01*
X451554Y315345D01*
X451951Y315080D01*
X452419Y314987D01*
X452887Y315080D01*
X453083Y315211D01*
X453585Y314964D01*
X453654Y307964D01*
X453157Y307704D01*
X452968Y307830D01*
X452500Y307924D01*
X452032Y307830D01*
X451635Y307565D01*
X451370Y307168D01*
X451276Y306700D01*
X451370Y306232D01*
X451066Y305786D01*
X451035Y305765D01*
X450551Y305941D01*
X450268Y306130D01*
X449800Y306224D01*
X449332Y306130D01*
X448935Y305865D01*
X448670Y305468D01*
X448576Y305000D01*
X448670Y304532D01*
X448935Y304135D01*
X449332Y303870D01*
X449800Y303777D01*
X450268Y303870D01*
X450459Y303997D01*
X451035Y304035D01*
X451432Y303770D01*
X451900Y303677D01*
X452368Y303770D01*
X452765Y304035D01*
X453030Y304432D01*
X453124Y304900D01*
X453062Y305210D01*
X453180Y305327D01*
X453682Y305119D01*
X453800Y293200D01*
X461300Y285700D01*
X465342D01*
X465511Y285200D01*
X465109Y284891D01*
X464571Y284191D01*
X464234Y283375D01*
X464118Y282500D01*
X464234Y281625D01*
X464571Y280809D01*
X465109Y280109D01*
X465200Y280039D01*
X465030Y279539D01*
X459970D01*
X459800Y280039D01*
X459891Y280109D01*
X460429Y280809D01*
X460766Y281625D01*
X460882Y282500D01*
X460766Y283375D01*
X460429Y284191D01*
X459891Y284891D01*
X459191Y285429D01*
X458375Y285766D01*
X457500Y285882D01*
X456625Y285766D01*
X455809Y285429D01*
X455109Y284891D01*
X454571Y284191D01*
X454234Y283375D01*
X454118Y282500D01*
X454234Y281625D01*
X454571Y280809D01*
X455109Y280109D01*
X455200Y280039D01*
X455030Y279539D01*
X417039D01*
Y310210D01*
X417539Y310528D01*
X417800Y310476D01*
X418268Y310570D01*
X418665Y310835D01*
X418930Y311232D01*
X419024Y311700D01*
X419005Y311791D01*
X419326Y312237D01*
X419794Y312330D01*
X420191Y312595D01*
X420456Y312992D01*
X420549Y313460D01*
X420456Y313929D01*
X420191Y314326D01*
X419794Y314591D01*
X419326Y314684D01*
X418857Y314591D01*
X418461Y314326D01*
X418195Y313929D01*
X418102Y313460D01*
X418120Y313370D01*
X417800Y312924D01*
X417539Y312872D01*
X417039Y313190D01*
Y318088D01*
X417426Y318405D01*
X417565Y318377D01*
X421896D01*
X422820Y318561D01*
X423604Y319085D01*
X424127Y319868D01*
X424311Y320792D01*
X424127Y321716D01*
X423604Y322500D01*
X422820Y323023D01*
X421896Y323207D01*
X417565D01*
X417426Y323179D01*
X417039Y323496D01*
Y352104D01*
X417426Y352421D01*
X417565Y352393D01*
X419066D01*
X419218Y351893D01*
X418983Y351736D01*
X418718Y351339D01*
X418625Y350871D01*
X418718Y350403D01*
X418983Y350006D01*
X419299Y349795D01*
X419368Y349446D01*
X419360Y349235D01*
X419281Y349182D01*
X419016Y348785D01*
X418923Y348317D01*
X419016Y347849D01*
X419281Y347452D01*
X419678Y347186D01*
X420146Y347093D01*
X420614Y347186D01*
X421011Y347452D01*
X421277Y347849D01*
X421370Y348317D01*
X421277Y348785D01*
X421011Y349182D01*
X420696Y349393D01*
X420626Y349742D01*
X420635Y349953D01*
X420714Y350006D01*
X420979Y350403D01*
X421072Y350871D01*
X420979Y351339D01*
X420714Y351736D01*
X420479Y351893D01*
X420630Y352393D01*
X421896D01*
X422820Y352577D01*
X423604Y353100D01*
X424127Y353884D01*
X424311Y354808D01*
X424258Y355074D01*
X424575Y355461D01*
X431225D01*
X431542Y355074D01*
X431489Y354808D01*
X431673Y353884D01*
X432196Y353100D01*
X432980Y352577D01*
X433904Y352393D01*
X438235D01*
X439159Y352577D01*
X439942Y353100D01*
X440466Y353884D01*
X440650Y354808D01*
X440596Y355074D01*
X440914Y355461D01*
X455030D01*
X455200Y354961D01*
X455109Y354891D01*
X454571Y354191D01*
X454234Y353375D01*
X454118Y352500D01*
X454234Y351625D01*
X454571Y350809D01*
X455109Y350109D01*
X455809Y349571D01*
X456625Y349234D01*
X457500Y349118D01*
X458375Y349234D01*
X459191Y349571D01*
X459891Y350109D01*
X460429Y350809D01*
X460766Y351625D01*
X460882Y352500D01*
X460766Y353375D01*
X460429Y354191D01*
X459891Y354891D01*
X459800Y354961D01*
X459970Y355461D01*
X465030D01*
X465200Y354961D01*
X465109Y354891D01*
X464571Y354191D01*
X464234Y353375D01*
X464118Y352500D01*
X464234Y351625D01*
X464571Y350809D01*
X465109Y350109D01*
X465809Y349571D01*
X466625Y349234D01*
X467500Y349118D01*
X468375Y349234D01*
X469191Y349571D01*
X469891Y350109D01*
X470429Y350809D01*
X470766Y351625D01*
X470882Y352500D01*
X470766Y353375D01*
X470429Y354191D01*
X469891Y354891D01*
X469800Y354961D01*
X469970Y355461D01*
X475030D01*
X475200Y354961D01*
X475109Y354891D01*
X474571Y354191D01*
X474234Y353375D01*
X474118Y352500D01*
X474234Y351625D01*
X474571Y350809D01*
X475109Y350109D01*
X475809Y349571D01*
X476625Y349234D01*
X477500Y349118D01*
X478375Y349234D01*
X479191Y349571D01*
X479891Y350109D01*
X480429Y350809D01*
X480766Y351625D01*
X480882Y352500D01*
X480766Y353375D01*
X480429Y354191D01*
X479891Y354891D01*
X479800Y354961D01*
X479970Y355461D01*
X485030D01*
X485200Y354961D01*
X485109Y354891D01*
X484571Y354191D01*
X484234Y353375D01*
X484118Y352500D01*
X484234Y351625D01*
X484571Y350809D01*
X485109Y350109D01*
X485809Y349571D01*
X486625Y349234D01*
X487500Y349118D01*
X488375Y349234D01*
X489191Y349571D01*
X489891Y350109D01*
X490429Y350809D01*
X490766Y351625D01*
X490882Y352500D01*
X490766Y353375D01*
X490429Y354191D01*
X489891Y354891D01*
X489800Y354961D01*
X489970Y355461D01*
X495030D01*
X495200Y354961D01*
D02*
G37*
G36*
X492893Y344347D02*
X493035Y344135D01*
X493432Y343870D01*
X493900Y343776D01*
X494155Y343827D01*
X496041Y341941D01*
X496500Y341751D01*
X498911D01*
X499157Y341852D01*
X499440Y341428D01*
X498785Y340774D01*
X494624D01*
X494583Y340815D01*
X494124Y341005D01*
X490109D01*
X489965Y341221D01*
X489568Y341486D01*
X489100Y341580D01*
X488632Y341486D01*
X488235Y341221D01*
X487970Y340824D01*
X487916Y340556D01*
X487416Y340605D01*
Y343226D01*
X488102Y343911D01*
X491481D01*
X491940Y344101D01*
X492310Y344472D01*
X492893Y344347D01*
D02*
G37*
G36*
X538448Y341573D02*
X538399Y341322D01*
X538492Y340854D01*
X538757Y340457D01*
X539154Y340192D01*
X539622Y340099D01*
X540090Y340192D01*
X540487Y340457D01*
X540507Y340487D01*
X541151Y340550D01*
X541461Y340241D01*
X541920Y340051D01*
X546731D01*
X557851Y328931D01*
Y310869D01*
X557141Y310159D01*
X557013Y309851D01*
X556735Y309665D01*
X556593Y309453D01*
X556010Y309328D01*
X554849Y310489D01*
Y314110D01*
X554849Y314111D01*
X554849Y314112D01*
X554846Y314119D01*
X554849Y314126D01*
X554849Y314128D01*
X554788Y314267D01*
X554742Y314496D01*
X554722Y314526D01*
X554708Y314632D01*
X553678Y316420D01*
X553567Y316505D01*
X553342Y316842D01*
X553258Y316898D01*
X553224Y316964D01*
X547882Y321504D01*
X547735Y321551D01*
X547591Y321648D01*
X547578Y321650D01*
X547269Y321959D01*
X546810Y322149D01*
X538594D01*
X538496Y322109D01*
X537958Y322427D01*
X537930Y322568D01*
X537665Y322965D01*
X537268Y323230D01*
X536800Y323323D01*
X536332Y323230D01*
X535935Y322965D01*
X535670Y322568D01*
X535576Y322100D01*
X535631Y321824D01*
X535320Y321324D01*
X534723D01*
X534264Y321134D01*
X533577Y320448D01*
X533323Y320498D01*
X532855Y320405D01*
X532458Y320140D01*
X532193Y319743D01*
X532099Y319275D01*
X532193Y318807D01*
X532458Y318410D01*
X532855Y318144D01*
X533323Y318051D01*
X533791Y318144D01*
X534188Y318410D01*
X534453Y318807D01*
X534546Y319275D01*
X534918Y319590D01*
X535249Y319275D01*
X535342Y318807D01*
X535607Y318410D01*
X536004Y318144D01*
X536472Y318051D01*
X536941Y318144D01*
X537338Y318410D01*
X537603Y318807D01*
X537696Y319275D01*
X537646Y319525D01*
X537668Y319612D01*
X537851Y319681D01*
X538396Y319359D01*
X538420Y319237D01*
X538685Y318841D01*
X539082Y318575D01*
X539550Y318482D01*
X540019Y318575D01*
X540094Y318625D01*
X542188D01*
X544964Y315849D01*
X544756Y315349D01*
X538369D01*
X537673Y316045D01*
X537723Y316300D01*
X537630Y316768D01*
X537365Y317165D01*
X536968Y317430D01*
X536500Y317524D01*
X536032Y317430D01*
X535635Y317165D01*
X535370Y316768D01*
X535277Y316300D01*
X535370Y315832D01*
X535383Y315812D01*
X535155Y315374D01*
X534703Y315348D01*
X534649Y315414D01*
X534472Y315749D01*
X534546Y316125D01*
X534453Y316593D01*
X534188Y316990D01*
X533791Y317256D01*
X533323Y317349D01*
X532855Y317256D01*
X532458Y316990D01*
X532193Y316593D01*
X532099Y316125D01*
X532193Y315657D01*
X532276Y315532D01*
X532404Y315166D01*
X532207Y314826D01*
X531472Y314091D01*
X531253Y313965D01*
X530813Y313991D01*
X530641Y314106D01*
X530173Y314199D01*
X529961Y314157D01*
X529616Y314503D01*
X529862Y314964D01*
X530173Y314902D01*
X530641Y314995D01*
X531038Y315260D01*
X531304Y315657D01*
X531397Y316125D01*
X531304Y316593D01*
X531038Y316990D01*
X530641Y317256D01*
X530173Y317349D01*
X529705Y317256D01*
X529308Y316990D01*
X529043Y316593D01*
X528950Y316125D01*
X529043Y315657D01*
X529143Y315507D01*
X528812Y315103D01*
X528700Y315149D01*
X526000D01*
X525541Y314959D01*
X512341Y301759D01*
X512151Y301300D01*
Y300003D01*
X511689Y299811D01*
X509600Y301900D01*
X508893D01*
X508648Y302394D01*
X508664Y302443D01*
X508991Y302662D01*
X509256Y303059D01*
X509349Y303527D01*
X509256Y303995D01*
X508991Y304392D01*
X508594Y304657D01*
X508126Y304750D01*
X507658Y304657D01*
X507261Y304392D01*
X507042Y304065D01*
X506725Y303960D01*
X506472Y303928D01*
X502228Y308172D01*
X502260Y308425D01*
X502365Y308742D01*
X502692Y308961D01*
X502957Y309358D01*
X503050Y309826D01*
X502957Y310294D01*
X502692Y310691D01*
X502295Y310956D01*
X501827Y311050D01*
X501359Y310956D01*
X501000Y310717D01*
X500807Y310761D01*
X500500Y310900D01*
Y311901D01*
X500807Y312040D01*
X501000Y312085D01*
X501359Y311845D01*
X501827Y311752D01*
X502295Y311845D01*
X502692Y312110D01*
X502957Y312507D01*
X503050Y312976D01*
X502957Y313444D01*
X502692Y313841D01*
X502295Y314106D01*
X501827Y314199D01*
X501359Y314106D01*
X501000Y313866D01*
X500807Y313911D01*
X500500Y314050D01*
Y315051D01*
X500807Y315190D01*
X501000Y315234D01*
X501359Y314995D01*
X501827Y314902D01*
X502295Y314995D01*
X502692Y315260D01*
X502957Y315657D01*
X503050Y316125D01*
X502957Y316593D01*
X502692Y316990D01*
X502295Y317256D01*
X501827Y317349D01*
X501572Y317298D01*
X500711Y318159D01*
X500500Y318247D01*
Y321350D01*
X500807Y321489D01*
X501000Y321534D01*
X501359Y321294D01*
X501827Y321201D01*
X502295Y321294D01*
X502692Y321559D01*
X502957Y321956D01*
X503050Y322424D01*
X502957Y322893D01*
X502692Y323290D01*
X502295Y323555D01*
X501827Y323648D01*
X501359Y323555D01*
X501000Y323315D01*
X500807Y323360D01*
X500500Y323499D01*
Y324885D01*
X499886Y325499D01*
X499901Y325574D01*
X499808Y326042D01*
X499542Y326439D01*
X499145Y326704D01*
X498721Y326789D01*
X498555Y327015D01*
X498600Y327197D01*
X498791Y327523D01*
X499145Y327593D01*
X499542Y327858D01*
X499808Y328255D01*
X499901Y328724D01*
X499808Y329192D01*
X499701Y329351D01*
X499969Y329851D01*
X500557D01*
X500825Y329351D01*
X500770Y329268D01*
X500676Y328800D01*
X500770Y328332D01*
X501035Y327935D01*
X501432Y327670D01*
X501900Y327576D01*
X502368Y327670D01*
X502765Y327935D01*
X503030Y328332D01*
X503066Y328509D01*
X503608Y328673D01*
X504151Y328131D01*
Y326632D01*
X504130Y326628D01*
X503733Y326363D01*
X503468Y325966D01*
X503374Y325498D01*
X503468Y325030D01*
X503733Y324633D01*
X504130Y324367D01*
X504598Y324274D01*
X505066Y324367D01*
X505463Y324633D01*
X505728Y325030D01*
X505821Y325498D01*
X505728Y325966D01*
X505463Y326363D01*
X505449Y326372D01*
Y328400D01*
X505259Y328859D01*
X503159Y330959D01*
X503092Y330987D01*
X502957Y331432D01*
X503050Y331900D01*
X502957Y332368D01*
X502692Y332765D01*
X502295Y333030D01*
X501827Y333123D01*
X501359Y333030D01*
X500962Y332765D01*
X500696Y332368D01*
X500603Y331900D01*
X500252Y331539D01*
X499901Y331900D01*
X499808Y332368D01*
X499542Y332765D01*
X499145Y333030D01*
X498677Y333123D01*
X498209Y333030D01*
X497812Y332765D01*
X497547Y332368D01*
X497454Y331900D01*
X497102Y331539D01*
X496751Y331900D01*
X496658Y332368D01*
X496393Y332765D01*
X495996Y333030D01*
X495528Y333123D01*
X495059Y333030D01*
X494662Y332765D01*
X494397Y332368D01*
X494313Y331947D01*
X494130Y331828D01*
X493833Y331704D01*
X493602Y331900D01*
X493508Y332368D01*
X493243Y332765D01*
X492846Y333030D01*
X492448Y333109D01*
X492297Y333312D01*
X492324Y333478D01*
X492422Y333700D01*
X492536Y333831D01*
X492846Y333892D01*
X493243Y334158D01*
X493508Y334555D01*
X493602Y335023D01*
X493508Y335491D01*
X493243Y335888D01*
X492846Y336153D01*
X492378Y336246D01*
X491910Y336153D01*
X491513Y335888D01*
X491248Y335491D01*
X491154Y335023D01*
X491176Y334916D01*
X490715Y334670D01*
X490159Y335226D01*
X490230Y335332D01*
X490323Y335800D01*
X490230Y336268D01*
X490077Y336497D01*
X490207Y336994D01*
X490256Y337061D01*
X490615Y337300D01*
X490880Y337697D01*
X490973Y338165D01*
X490880Y338634D01*
X490615Y339031D01*
X490361Y339200D01*
X490354Y339215D01*
X490503Y339707D01*
X493855D01*
X493896Y339665D01*
X494355Y339475D01*
X499054D01*
X499514Y339665D01*
X500255Y340407D01*
X500845Y340289D01*
X500975Y340095D01*
X501372Y339830D01*
X501579Y339789D01*
X501590Y339786D01*
Y339277D01*
X501577Y339274D01*
X501359Y339230D01*
X500962Y338965D01*
X500696Y338568D01*
X500603Y338100D01*
X500696Y337632D01*
X500962Y337235D01*
X501359Y336970D01*
X501827Y336877D01*
X502295Y336970D01*
X502692Y337235D01*
X502957Y337632D01*
X503050Y338100D01*
X502957Y338568D01*
X502692Y338965D01*
X502295Y339230D01*
X502088Y339271D01*
X502077Y339274D01*
Y339784D01*
X502090Y339786D01*
X502308Y339830D01*
X502705Y340095D01*
X502970Y340492D01*
X503063Y340960D01*
X503004Y341258D01*
X503305Y341758D01*
X519194D01*
X519511Y341372D01*
X519501Y341322D01*
X519594Y340854D01*
X519859Y340457D01*
X520256Y340192D01*
X520724Y340099D01*
X521193Y340192D01*
X521590Y340457D01*
X521855Y340854D01*
X521948Y341322D01*
X521898Y341573D01*
X522222Y342073D01*
X531825D01*
X532149Y341573D01*
X532099Y341322D01*
X532193Y340854D01*
X532458Y340457D01*
X532855Y340192D01*
X533323Y340099D01*
X533791Y340192D01*
X534188Y340457D01*
X534453Y340854D01*
X534546Y341322D01*
X534496Y341573D01*
X534820Y342073D01*
X538125D01*
X538448Y341573D01*
D02*
G37*
G36*
X546745Y320647D02*
X547029Y320506D01*
X547070Y320489D01*
X547418Y320193D01*
X552383Y315974D01*
X552397Y315970D01*
X552441Y315941D01*
X552552Y315774D01*
X552552Y315771D01*
X553360Y314371D01*
X553040Y313924D01*
X552800Y313972D01*
X552332Y313879D01*
X551935Y313614D01*
X551670Y313217D01*
X551577Y312749D01*
X551670Y312280D01*
X551935Y311883D01*
X552153Y311737D01*
X552155Y311202D01*
X551656Y310994D01*
X544255Y318394D01*
X544434Y318923D01*
X544668Y318970D01*
X545065Y319235D01*
X545330Y319632D01*
X545424Y320100D01*
X545374Y320351D01*
X545697Y320851D01*
X546541D01*
X546745Y320647D01*
D02*
G37*
G36*
X548414Y310668D02*
X548130Y310285D01*
X547671Y310475D01*
X536741D01*
X534496Y312721D01*
X534546Y312976D01*
X534453Y313444D01*
X534449Y313451D01*
X534716Y313951D01*
X536800D01*
X537309Y313441D01*
X537769Y313251D01*
X537959D01*
X538399Y312976D01*
X538492Y312507D01*
X538757Y312110D01*
X539154Y311845D01*
X539622Y311752D01*
X540090Y311845D01*
X540487Y312110D01*
X540752Y312507D01*
X540846Y312976D01*
X540752Y313444D01*
X540681Y313551D01*
X540948Y314051D01*
X545031D01*
X548414Y310668D01*
D02*
G37*
G36*
X532855Y311845D02*
X533323Y311752D01*
X533577Y311803D01*
X536013Y309367D01*
X536310Y309244D01*
X536210Y308744D01*
X534741D01*
X534282Y308554D01*
X533532Y307804D01*
X533278Y307855D01*
X532810Y307762D01*
X532413Y307497D01*
X532148Y307100D01*
X532054Y306631D01*
X532148Y306163D01*
X532413Y305766D01*
X532810Y305501D01*
X533278Y305408D01*
X533746Y305501D01*
X534143Y305766D01*
X534408Y306163D01*
X534502Y306631D01*
X534459Y306843D01*
X534755Y307117D01*
X535221Y306951D01*
X535224Y306945D01*
X535174Y306695D01*
X535267Y306226D01*
X535532Y305829D01*
X535929Y305564D01*
X536397Y305471D01*
X536866Y305564D01*
X537263Y305829D01*
X537407Y306045D01*
X547414D01*
X551751Y301709D01*
Y300820D01*
X551336Y300513D01*
X551179Y300490D01*
X550968Y300630D01*
X550500Y300724D01*
X550032Y300630D01*
X549635Y300365D01*
X549370Y299968D01*
X549352Y299880D01*
X548805Y299566D01*
X537886D01*
X537753Y299731D01*
X537575Y300066D01*
X537650Y300442D01*
X537557Y300910D01*
X537292Y301307D01*
X536895Y301572D01*
X536427Y301665D01*
X535958Y301572D01*
X535562Y301307D01*
X535296Y300910D01*
X535203Y300442D01*
X534874Y300069D01*
X534546Y300377D01*
X534453Y300845D01*
X534188Y301242D01*
X533791Y301507D01*
X533323Y301601D01*
X532855Y301507D01*
X532458Y301242D01*
X532193Y300845D01*
X532099Y300377D01*
X532193Y299909D01*
X532458Y299512D01*
X532855Y299247D01*
X533323Y299154D01*
X533577Y299204D01*
X534325Y298457D01*
X534784Y298267D01*
X548536D01*
X550562Y296241D01*
X551021Y296051D01*
X560091D01*
X560368Y295570D01*
X560366Y295551D01*
X560277Y295100D01*
X560370Y294632D01*
X560635Y294235D01*
X561032Y293970D01*
X561500Y293877D01*
X561968Y293970D01*
X562178Y293540D01*
X562143Y293517D01*
X561878Y293120D01*
X561785Y292652D01*
X561839Y292381D01*
X561525Y291881D01*
X559281D01*
X558822Y291691D01*
X557781Y290649D01*
X532524D01*
X530931Y292242D01*
X530472Y292432D01*
X521707D01*
X521248Y292242D01*
X520682Y291677D01*
X515482D01*
X515338Y291892D01*
X515100Y292051D01*
X514966Y292624D01*
X518144Y295802D01*
X523728D01*
X523894Y295692D01*
X524362Y295599D01*
X524830Y295692D01*
X525227Y295957D01*
X525492Y296354D01*
X525586Y296822D01*
X525492Y297290D01*
X525227Y297687D01*
X524830Y297952D01*
X524362Y298046D01*
X523894Y297952D01*
X523728Y297842D01*
X517722D01*
X517332Y297764D01*
X517001Y297543D01*
X515111Y295653D01*
X514649Y295845D01*
Y300631D01*
X524769Y310751D01*
X528729D01*
X529012Y310251D01*
X528945Y309914D01*
X529038Y309446D01*
X529303Y309049D01*
X529700Y308784D01*
X530168Y308690D01*
X530637Y308784D01*
X531034Y309049D01*
X531299Y309446D01*
X531392Y309914D01*
X531299Y310382D01*
X531359Y310941D01*
X531432Y311014D01*
X532259Y311841D01*
X532814Y311873D01*
X532855Y311845D01*
D02*
G37*
G36*
X599351Y298522D02*
Y290209D01*
X599135Y290065D01*
X598870Y289668D01*
X598776Y289200D01*
X598870Y288732D01*
X599135Y288335D01*
X599532Y288070D01*
X600000Y287977D01*
X600468Y288070D01*
X600865Y288335D01*
X601130Y288732D01*
X601224Y289200D01*
X601130Y289668D01*
X600865Y290065D01*
X600649Y290209D01*
Y297702D01*
X601111Y297893D01*
X602849Y296156D01*
Y290148D01*
X602633Y290004D01*
X602368Y289607D01*
X602275Y289138D01*
X602368Y288670D01*
X602633Y288273D01*
X603030Y288008D01*
X603498Y287915D01*
X603967Y288008D01*
X604363Y288273D01*
X604629Y288670D01*
X604722Y289138D01*
X604629Y289607D01*
X604363Y290004D01*
X604148Y290148D01*
Y295335D01*
X604610Y295526D01*
X606493Y293643D01*
Y290267D01*
X606278Y290123D01*
X606012Y289726D01*
X605919Y289258D01*
X606012Y288790D01*
X606278Y288393D01*
X606674Y288127D01*
X607143Y288034D01*
X607611Y288127D01*
X608008Y288393D01*
X608273Y288790D01*
X608366Y289258D01*
X608273Y289726D01*
X608008Y290123D01*
X607792Y290267D01*
Y292822D01*
X608254Y293013D01*
X609967Y291300D01*
Y290288D01*
X609751Y290144D01*
X609486Y289747D01*
X609393Y289279D01*
X609486Y288811D01*
X609751Y288414D01*
X610148Y288149D01*
X610616Y288055D01*
X611085Y288149D01*
X611482Y288414D01*
X611747Y288811D01*
X611840Y289279D01*
X611747Y289747D01*
X611543Y290053D01*
X611552Y290140D01*
X612074Y290324D01*
X616247Y286151D01*
X616130Y285561D01*
X615809Y285429D01*
X615109Y284891D01*
X614571Y284191D01*
X614234Y283375D01*
X614118Y282500D01*
X614234Y281625D01*
X614571Y280809D01*
X615109Y280109D01*
X615200Y280039D01*
X615030Y279539D01*
X609970D01*
X609800Y280039D01*
X609891Y280109D01*
X610429Y280809D01*
X610766Y281625D01*
X610882Y282500D01*
X610766Y283375D01*
X610429Y284191D01*
X609891Y284891D01*
X609191Y285429D01*
X608375Y285766D01*
X607500Y285882D01*
X606625Y285766D01*
X605809Y285429D01*
X605109Y284891D01*
X604571Y284191D01*
X604234Y283375D01*
X604118Y282500D01*
X604234Y281625D01*
X604571Y280809D01*
X605109Y280109D01*
X605200Y280039D01*
X605030Y279539D01*
X599970D01*
X599800Y280039D01*
X599891Y280109D01*
X600429Y280809D01*
X600766Y281625D01*
X600882Y282500D01*
X600766Y283375D01*
X600429Y284191D01*
X599891Y284891D01*
X599191Y285429D01*
X598375Y285766D01*
X597500Y285882D01*
X596625Y285766D01*
X595809Y285429D01*
X595109Y284891D01*
X594571Y284191D01*
X594234Y283375D01*
X594118Y282500D01*
X594234Y281625D01*
X594571Y280809D01*
X595109Y280109D01*
X595200Y280039D01*
X595030Y279539D01*
X589970D01*
X589800Y280039D01*
X589891Y280109D01*
X590429Y280809D01*
X590766Y281625D01*
X590882Y282500D01*
X590766Y283375D01*
X590429Y284191D01*
X589891Y284891D01*
X589191Y285429D01*
X588375Y285766D01*
X587500Y285882D01*
X586625Y285766D01*
X585809Y285429D01*
X585109Y284891D01*
X584571Y284191D01*
X584234Y283375D01*
X584118Y282500D01*
X584234Y281625D01*
X584571Y280809D01*
X585109Y280109D01*
X585200Y280039D01*
X585030Y279539D01*
X579970D01*
X579800Y280039D01*
X579891Y280109D01*
X580429Y280809D01*
X580766Y281625D01*
X580882Y282500D01*
X580766Y283375D01*
X580429Y284191D01*
X579891Y284891D01*
X579191Y285429D01*
X578375Y285766D01*
X577500Y285882D01*
X576625Y285766D01*
X575809Y285429D01*
X575109Y284891D01*
X574571Y284191D01*
X574234Y283375D01*
X574118Y282500D01*
X574234Y281625D01*
X574571Y280809D01*
X575109Y280109D01*
X575200Y280039D01*
X575030Y279539D01*
X569970D01*
X569800Y280039D01*
X569891Y280109D01*
X570429Y280809D01*
X570766Y281625D01*
X570882Y282500D01*
X570766Y283375D01*
X570429Y284191D01*
X569891Y284891D01*
X569191Y285429D01*
X568375Y285766D01*
X567500Y285882D01*
X566625Y285766D01*
X565809Y285429D01*
X565109Y284891D01*
X564571Y284191D01*
X564234Y283375D01*
X564118Y282500D01*
X564234Y281625D01*
X564571Y280809D01*
X565109Y280109D01*
X565200Y280039D01*
X565030Y279539D01*
X559970D01*
X559800Y280039D01*
X559891Y280109D01*
X560429Y280809D01*
X560766Y281625D01*
X560882Y282500D01*
X560766Y283375D01*
X560429Y284191D01*
X559891Y284891D01*
X559191Y285429D01*
X558375Y285766D01*
X557500Y285882D01*
X556625Y285766D01*
X555809Y285429D01*
X555109Y284891D01*
X554571Y284191D01*
X554234Y283375D01*
X554118Y282500D01*
X554234Y281625D01*
X554571Y280809D01*
X555109Y280109D01*
X555200Y280039D01*
X555030Y279539D01*
X549970D01*
X549800Y280039D01*
X549891Y280109D01*
X550429Y280809D01*
X550766Y281625D01*
X550882Y282500D01*
X550766Y283375D01*
X550429Y284191D01*
X549891Y284891D01*
X549191Y285429D01*
X548375Y285766D01*
X547500Y285882D01*
X546625Y285766D01*
X545809Y285429D01*
X545109Y284891D01*
X544571Y284191D01*
X544234Y283375D01*
X544118Y282500D01*
X544234Y281625D01*
X544571Y280809D01*
X545109Y280109D01*
X545200Y280039D01*
X545030Y279539D01*
X539970D01*
X539800Y280039D01*
X539891Y280109D01*
X540429Y280809D01*
X540766Y281625D01*
X540882Y282500D01*
X540766Y283375D01*
X540429Y284191D01*
X539891Y284891D01*
X539191Y285429D01*
X538375Y285766D01*
X537819Y285840D01*
X537576Y286376D01*
X537620Y286442D01*
X537713Y286910D01*
X537620Y287378D01*
X537355Y287775D01*
X536958Y288040D01*
X536490Y288134D01*
X536299Y288324D01*
X536206Y288792D01*
X536167Y288851D01*
X536435Y289351D01*
X558050D01*
X558509Y289541D01*
X559550Y290582D01*
X573976D01*
X574015Y290481D01*
X574059Y290082D01*
X573748Y289874D01*
X573483Y289477D01*
X573389Y289009D01*
X573483Y288541D01*
X573748Y288144D01*
X574145Y287878D01*
X574613Y287785D01*
X575081Y287878D01*
X575478Y288144D01*
X575646Y288395D01*
X576128Y288438D01*
X576215Y288415D01*
X576335Y288235D01*
X576732Y287970D01*
X577200Y287877D01*
X577668Y287970D01*
X578025Y288208D01*
X578259Y288173D01*
X578561Y288076D01*
X578570Y288032D01*
X578835Y287635D01*
X579232Y287370D01*
X579700Y287277D01*
X579768Y287290D01*
X580232Y287103D01*
X580276Y286920D01*
X580333Y286632D01*
X580598Y286235D01*
X580995Y285970D01*
X581464Y285876D01*
X581932Y285970D01*
X582329Y286235D01*
X582594Y286632D01*
X582687Y287100D01*
X582594Y287568D01*
X582329Y287965D01*
X581932Y288230D01*
X581464Y288323D01*
X581395Y288310D01*
X580932Y288497D01*
X580888Y288680D01*
X580830Y288968D01*
X580565Y289365D01*
X580168Y289630D01*
X579700Y289723D01*
X579232Y289630D01*
X578875Y289392D01*
X578641Y289427D01*
X578339Y289524D01*
X578330Y289568D01*
X578065Y289965D01*
X577668Y290230D01*
X577200Y290323D01*
X576803Y290245D01*
X576657Y290725D01*
X576771Y290772D01*
X585807Y299809D01*
X586171Y299770D01*
X586215Y299710D01*
X586455Y299293D01*
X586376Y298900D01*
X586470Y298432D01*
X586735Y298035D01*
X587132Y297770D01*
X587600Y297676D01*
X588068Y297770D01*
X588465Y298035D01*
X588730Y298432D01*
X588824Y298900D01*
X588730Y299368D01*
X588675Y299451D01*
X588943Y299951D01*
X590998D01*
X591176Y299699D01*
X590966Y299177D01*
X590732Y299130D01*
X590335Y298865D01*
X590070Y298468D01*
X589977Y298000D01*
X590070Y297532D01*
X590335Y297135D01*
X590732Y296870D01*
X591200Y296777D01*
X591668Y296870D01*
X592065Y297135D01*
X592330Y297532D01*
X592423Y298000D01*
X592330Y298468D01*
X592065Y298865D01*
X592005Y298905D01*
X592200Y299377D01*
X592200Y299377D01*
X592668Y299470D01*
X593065Y299735D01*
X593330Y300132D01*
X593424Y300600D01*
X593330Y301068D01*
X593065Y301465D01*
X593011Y302103D01*
X593030Y302132D01*
X593123Y302600D01*
X593030Y303068D01*
X592765Y303465D01*
X592368Y303730D01*
X591900Y303823D01*
X591441Y303732D01*
X591400Y303749D01*
X582680D01*
X582221Y303559D01*
X576811Y298149D01*
X574401D01*
X574210Y298611D01*
X580216Y304617D01*
X580583Y304544D01*
X581051Y304637D01*
X581448Y304902D01*
X581713Y305299D01*
X581807Y305768D01*
X581713Y306236D01*
X581915Y306802D01*
X581964Y306835D01*
X582229Y307232D01*
X582322Y307700D01*
X582272Y307951D01*
X582596Y308451D01*
X589423D01*
X599351Y298522D01*
D02*
G37*
G36*
X531796Y289541D02*
X532255Y289351D01*
X533717D01*
X533984Y288851D01*
X533945Y288792D01*
X533852Y288324D01*
X533945Y287856D01*
X534211Y287459D01*
X534608Y287194D01*
X535076Y287101D01*
X535266Y286910D01*
X535360Y286442D01*
X535625Y286045D01*
X535765Y285951D01*
X535787Y285687D01*
X535734Y285371D01*
X535109Y284891D01*
X534571Y284191D01*
X534234Y283375D01*
X534118Y282500D01*
X534234Y281625D01*
X534571Y280809D01*
X535109Y280109D01*
X535200Y280039D01*
X535030Y279539D01*
X529970D01*
X529800Y280039D01*
X529891Y280109D01*
X530429Y280809D01*
X530766Y281625D01*
X530882Y282500D01*
X530766Y283375D01*
X530429Y284191D01*
X529891Y284891D01*
X529191Y285429D01*
X528375Y285766D01*
X527500Y285882D01*
X526625Y285766D01*
X525809Y285429D01*
X525109Y284891D01*
X524571Y284191D01*
X524234Y283375D01*
X524118Y282500D01*
X524234Y281625D01*
X524571Y280809D01*
X525109Y280109D01*
X525200Y280039D01*
X525030Y279539D01*
X519970D01*
X519800Y280039D01*
X519891Y280109D01*
X520429Y280809D01*
X520766Y281625D01*
X520882Y282500D01*
X520766Y283375D01*
X520429Y284191D01*
X519891Y284891D01*
X519191Y285429D01*
X518375Y285766D01*
X517500Y285882D01*
X516625Y285766D01*
X515809Y285429D01*
X515109Y284891D01*
X514571Y284191D01*
X514234Y283375D01*
X514118Y282500D01*
X514234Y281625D01*
X514571Y280809D01*
X515109Y280109D01*
X515200Y280039D01*
X515030Y279539D01*
X509970D01*
X509800Y280039D01*
X509891Y280109D01*
X510429Y280809D01*
X510766Y281625D01*
X510882Y282500D01*
X510766Y283375D01*
X510429Y284191D01*
X509891Y284891D01*
X509732Y285013D01*
X509795Y285595D01*
X514081Y289881D01*
X514473Y289804D01*
X514941Y289897D01*
X515338Y290162D01*
X515482Y290378D01*
X520951D01*
X521155Y289921D01*
X521157Y289915D01*
X521422Y289518D01*
X521819Y289252D01*
X522287Y289159D01*
X522755Y289252D01*
X523152Y289518D01*
X523417Y289915D01*
X523510Y290383D01*
X523852Y290800D01*
X523917Y290732D01*
X524141Y290324D01*
X524077Y290000D01*
X524170Y289532D01*
X524435Y289135D01*
X524832Y288870D01*
X525300Y288776D01*
X525768Y288870D01*
X526165Y289135D01*
X526430Y289532D01*
X526523Y290000D01*
X526430Y290468D01*
X526320Y290633D01*
X526587Y291133D01*
X530203D01*
X531796Y289541D01*
D02*
G37*
%LPC*%
G36*
X617353Y340423D02*
X616885Y340330D01*
X616488Y340065D01*
X616223Y339668D01*
X616130Y339200D01*
X616223Y338732D01*
X616488Y338335D01*
X616885Y338070D01*
X617353Y337977D01*
X617822Y338070D01*
X618219Y338335D01*
X618484Y338732D01*
X618577Y339200D01*
X618484Y339668D01*
X618219Y340065D01*
X617822Y340330D01*
X617353Y340423D01*
D02*
G37*
G36*
X579341Y339083D02*
X578873Y338989D01*
X578476Y338724D01*
X578211Y338327D01*
X578117Y337859D01*
X578211Y337391D01*
X578476Y336994D01*
X578873Y336729D01*
X579341Y336636D01*
X579809Y336729D01*
X580206Y336994D01*
X580471Y337391D01*
X580564Y337859D01*
X580471Y338327D01*
X580206Y338724D01*
X579809Y338989D01*
X579341Y339083D01*
D02*
G37*
G36*
X613500Y339023D02*
X613032Y338930D01*
X612635Y338665D01*
X612370Y338268D01*
X612277Y337800D01*
X612370Y337332D01*
X612635Y336935D01*
X613032Y336670D01*
X613500Y336577D01*
X613968Y336670D01*
X614365Y336935D01*
X614630Y337332D01*
X614723Y337800D01*
X614630Y338268D01*
X614365Y338665D01*
X613968Y338930D01*
X613500Y339023D01*
D02*
G37*
G36*
X575724Y338281D02*
X575255Y338188D01*
X574858Y337923D01*
X574593Y337526D01*
X574500Y337057D01*
X574593Y336589D01*
X574858Y336192D01*
X575255Y335927D01*
X575724Y335834D01*
X576192Y335927D01*
X576589Y336192D01*
X576854Y336589D01*
X576947Y337057D01*
X576854Y337526D01*
X576589Y337923D01*
X576192Y338188D01*
X575724Y338281D01*
D02*
G37*
G36*
X611000Y337123D02*
X610532Y337030D01*
X610135Y336765D01*
X609870Y336368D01*
X609776Y335900D01*
X609870Y335432D01*
X610135Y335035D01*
X610532Y334770D01*
X611000Y334677D01*
X611468Y334770D01*
X611865Y335035D01*
X612130Y335432D01*
X612223Y335900D01*
X612130Y336368D01*
X611865Y336765D01*
X611468Y337030D01*
X611000Y337123D01*
D02*
G37*
G36*
X566900Y335324D02*
X566432Y335230D01*
X566035Y334965D01*
X565770Y334568D01*
X565676Y334100D01*
X565770Y333632D01*
X566035Y333235D01*
X566432Y332970D01*
X566900Y332876D01*
X567368Y332970D01*
X567765Y333235D01*
X568030Y333632D01*
X568123Y334100D01*
X568030Y334568D01*
X567765Y334965D01*
X567368Y335230D01*
X566900Y335324D01*
D02*
G37*
G36*
X590100Y335001D02*
X589632Y334908D01*
X589235Y334642D01*
X588970Y334245D01*
X588876Y333777D01*
X588970Y333309D01*
X589235Y332912D01*
X589632Y332647D01*
X590100Y332554D01*
X590568Y332647D01*
X590965Y332912D01*
X591230Y333309D01*
X591324Y333777D01*
X591230Y334245D01*
X590965Y334642D01*
X590568Y334908D01*
X590100Y335001D01*
D02*
G37*
G36*
X611100Y333924D02*
X610632Y333830D01*
X610235Y333565D01*
X609970Y333168D01*
X609876Y332700D01*
X609970Y332232D01*
X610235Y331835D01*
X610632Y331570D01*
X611100Y331476D01*
X611568Y331570D01*
X611965Y331835D01*
X612230Y332232D01*
X612324Y332700D01*
X612230Y333168D01*
X611965Y333565D01*
X611568Y333830D01*
X611100Y333924D01*
D02*
G37*
G36*
X594500Y333823D02*
X594032Y333730D01*
X593635Y333465D01*
X593370Y333068D01*
X593277Y332600D01*
X593370Y332132D01*
X593635Y331735D01*
X594032Y331470D01*
X594500Y331377D01*
X594968Y331470D01*
X595365Y331735D01*
X595630Y332132D01*
X595723Y332600D01*
X595630Y333068D01*
X595365Y333465D01*
X594968Y333730D01*
X594500Y333823D01*
D02*
G37*
G36*
X605400Y329324D02*
X604932Y329230D01*
X604535Y328965D01*
X604270Y328568D01*
X604177Y328100D01*
X604270Y327632D01*
X604535Y327235D01*
X604932Y326970D01*
X605400Y326876D01*
X605868Y326970D01*
X606265Y327235D01*
X606530Y327632D01*
X606624Y328100D01*
X606530Y328568D01*
X606265Y328965D01*
X605868Y329230D01*
X605400Y329324D01*
D02*
G37*
G36*
X601000Y329223D02*
X600532Y329130D01*
X600135Y328865D01*
X599870Y328468D01*
X599777Y328000D01*
X599870Y327532D01*
X600135Y327135D01*
X600532Y326870D01*
X601000Y326777D01*
X601468Y326870D01*
X601865Y327135D01*
X602130Y327532D01*
X602223Y328000D01*
X602130Y328468D01*
X601865Y328865D01*
X601468Y329130D01*
X601000Y329223D01*
D02*
G37*
G36*
X622200Y328365D02*
X621732Y328272D01*
X621335Y328007D01*
X621070Y327610D01*
X620976Y327142D01*
X621070Y326674D01*
X621335Y326277D01*
X621732Y326011D01*
X622200Y325918D01*
X622668Y326011D01*
X623065Y326277D01*
X623330Y326674D01*
X623423Y327142D01*
X623330Y327610D01*
X623065Y328007D01*
X622668Y328272D01*
X622200Y328365D01*
D02*
G37*
G36*
X594512Y327923D02*
X594044Y327830D01*
X593647Y327565D01*
X593381Y327168D01*
X593288Y326700D01*
X593381Y326232D01*
X593647Y325835D01*
X594044Y325570D01*
X594512Y325477D01*
X594980Y325570D01*
X595377Y325835D01*
X595642Y326232D01*
X595735Y326700D01*
X595642Y327168D01*
X595377Y327565D01*
X594980Y327830D01*
X594512Y327923D01*
D02*
G37*
G36*
X622100Y325124D02*
X621632Y325030D01*
X621235Y324765D01*
X620970Y324368D01*
X620877Y323900D01*
X620970Y323432D01*
X621235Y323035D01*
X621632Y322770D01*
X622100Y322676D01*
X622568Y322770D01*
X622965Y323035D01*
X623230Y323432D01*
X623323Y323900D01*
X623230Y324368D01*
X622965Y324765D01*
X622568Y325030D01*
X622100Y325124D01*
D02*
G37*
G36*
X621700Y320923D02*
X621232Y320830D01*
X620835Y320565D01*
X620570Y320168D01*
X620476Y319700D01*
X620570Y319232D01*
X620835Y318835D01*
X621232Y318570D01*
X621700Y318477D01*
X622168Y318570D01*
X622565Y318835D01*
X622830Y319232D01*
X622924Y319700D01*
X622830Y320168D01*
X622565Y320565D01*
X622168Y320830D01*
X621700Y320923D01*
D02*
G37*
G36*
X611300Y320223D02*
X610832Y320130D01*
X610435Y319865D01*
X610170Y319468D01*
X610077Y319000D01*
X610170Y318532D01*
X610435Y318135D01*
X610832Y317870D01*
X611300Y317776D01*
X611768Y317870D01*
X612165Y318135D01*
X612430Y318532D01*
X612524Y319000D01*
X612430Y319468D01*
X612165Y319865D01*
X611768Y320130D01*
X611300Y320223D01*
D02*
G37*
G36*
X611005Y315648D02*
X610465Y315541D01*
X610007Y315235D01*
X609702Y314777D01*
X609594Y314237D01*
X609702Y313697D01*
X610007Y313239D01*
X610465Y312933D01*
X611005Y312826D01*
X611546Y312933D01*
X612004Y313239D01*
X612310Y313697D01*
X612417Y314237D01*
X612310Y314777D01*
X612004Y315235D01*
X611546Y315541D01*
X611005Y315648D01*
D02*
G37*
G36*
X607068D02*
X606528Y315541D01*
X606071Y315235D01*
X605765Y314777D01*
X605657Y314237D01*
X605765Y313697D01*
X606071Y313239D01*
X606528Y312933D01*
X607068Y312826D01*
X607609Y312933D01*
X608067Y313239D01*
X608372Y313697D01*
X608480Y314237D01*
X608372Y314777D01*
X608067Y315235D01*
X607609Y315541D01*
X607068Y315648D01*
D02*
G37*
G36*
X603131D02*
X602591Y315541D01*
X602134Y315235D01*
X601828Y314777D01*
X601720Y314237D01*
X601828Y313697D01*
X602134Y313239D01*
X602591Y312933D01*
X603131Y312826D01*
X603672Y312933D01*
X604130Y313239D01*
X604435Y313697D01*
X604543Y314237D01*
X604435Y314777D01*
X604130Y315235D01*
X603672Y315541D01*
X603131Y315648D01*
D02*
G37*
G36*
X599194D02*
X598654Y315541D01*
X598197Y315235D01*
X597891Y314777D01*
X597783Y314237D01*
X597891Y313697D01*
X598197Y313239D01*
X598654Y312933D01*
X599194Y312826D01*
X599735Y312933D01*
X600192Y313239D01*
X600498Y313697D01*
X600606Y314237D01*
X600498Y314777D01*
X600192Y315235D01*
X599735Y315541D01*
X599194Y315648D01*
D02*
G37*
G36*
X611005Y311711D02*
X610465Y311604D01*
X610007Y311298D01*
X609702Y310840D01*
X609594Y310300D01*
X609702Y309760D01*
X610007Y309302D01*
X610465Y308996D01*
X611005Y308889D01*
X611546Y308996D01*
X612004Y309302D01*
X612310Y309760D01*
X612417Y310300D01*
X612310Y310840D01*
X612004Y311298D01*
X611546Y311604D01*
X611005Y311711D01*
D02*
G37*
G36*
X607068D02*
X606528Y311604D01*
X606071Y311298D01*
X605765Y310840D01*
X605657Y310300D01*
X605765Y309760D01*
X606071Y309302D01*
X606528Y308996D01*
X607068Y308889D01*
X607609Y308996D01*
X608067Y309302D01*
X608372Y309760D01*
X608480Y310300D01*
X608372Y310840D01*
X608067Y311298D01*
X607609Y311604D01*
X607068Y311711D01*
D02*
G37*
G36*
X603131D02*
X602591Y311604D01*
X602134Y311298D01*
X601828Y310840D01*
X601720Y310300D01*
X601828Y309760D01*
X602134Y309302D01*
X602591Y308996D01*
X603131Y308889D01*
X603672Y308996D01*
X604130Y309302D01*
X604435Y309760D01*
X604543Y310300D01*
X604435Y310840D01*
X604130Y311298D01*
X603672Y311604D01*
X603131Y311711D01*
D02*
G37*
G36*
X599194D02*
X598654Y311604D01*
X598197Y311298D01*
X597891Y310840D01*
X597783Y310300D01*
X597891Y309760D01*
X598197Y309302D01*
X598654Y308996D01*
X599194Y308889D01*
X599735Y308996D01*
X600192Y309302D01*
X600498Y309760D01*
X600606Y310300D01*
X600498Y310840D01*
X600192Y311298D01*
X599735Y311604D01*
X599194Y311711D01*
D02*
G37*
G36*
X611005Y307774D02*
X610465Y307667D01*
X610007Y307361D01*
X609702Y306903D01*
X609594Y306363D01*
X609702Y305823D01*
X610007Y305365D01*
X610465Y305059D01*
X611005Y304952D01*
X611546Y305059D01*
X612004Y305365D01*
X612310Y305823D01*
X612417Y306363D01*
X612310Y306903D01*
X612004Y307361D01*
X611546Y307667D01*
X611005Y307774D01*
D02*
G37*
G36*
X607068D02*
X606528Y307667D01*
X606071Y307361D01*
X605765Y306903D01*
X605657Y306363D01*
X605765Y305823D01*
X606071Y305365D01*
X606528Y305059D01*
X607068Y304952D01*
X607609Y305059D01*
X608067Y305365D01*
X608372Y305823D01*
X608480Y306363D01*
X608372Y306903D01*
X608067Y307361D01*
X607609Y307667D01*
X607068Y307774D01*
D02*
G37*
G36*
X603131D02*
X602591Y307667D01*
X602134Y307361D01*
X601828Y306903D01*
X601720Y306363D01*
X601828Y305823D01*
X602134Y305365D01*
X602591Y305059D01*
X603131Y304952D01*
X603672Y305059D01*
X604130Y305365D01*
X604435Y305823D01*
X604543Y306363D01*
X604435Y306903D01*
X604130Y307361D01*
X603672Y307667D01*
X603131Y307774D01*
D02*
G37*
G36*
X608200Y303424D02*
X607732Y303330D01*
X607335Y303065D01*
X607070Y302668D01*
X606977Y302200D01*
X607070Y301732D01*
X607335Y301335D01*
X607732Y301070D01*
X608200Y300976D01*
X608668Y301070D01*
X609065Y301335D01*
X609330Y301732D01*
X609423Y302200D01*
X609330Y302668D01*
X609065Y303065D01*
X608668Y303330D01*
X608200Y303424D01*
D02*
G37*
G36*
X434101Y350890D02*
X433446Y350760D01*
X432890Y350389D01*
X432519Y349833D01*
X432388Y349178D01*
X432519Y348523D01*
X432890Y347967D01*
X433446Y347596D01*
X434101Y347465D01*
X434756Y347596D01*
X435312Y347967D01*
X435683Y348523D01*
X435813Y349178D01*
X435683Y349833D01*
X435312Y350389D01*
X434756Y350760D01*
X434101Y350890D01*
D02*
G37*
G36*
X433200Y347024D02*
X432732Y346930D01*
X432335Y346665D01*
X432070Y346268D01*
X431977Y345800D01*
X432070Y345332D01*
X432335Y344935D01*
X432066Y344513D01*
X431970Y344368D01*
X431877Y343900D01*
X431970Y343432D01*
X432235Y343035D01*
X432632Y342770D01*
X433100Y342676D01*
X433568Y342770D01*
X433965Y343035D01*
X434230Y343432D01*
X434324Y343900D01*
X434230Y344368D01*
X433965Y344765D01*
X434234Y345187D01*
X434330Y345332D01*
X434423Y345800D01*
X434330Y346268D01*
X434065Y346665D01*
X433668Y346930D01*
X433200Y347024D01*
D02*
G37*
G36*
X450572Y341829D02*
X450104Y341736D01*
X449707Y341471D01*
X449442Y341074D01*
X449349Y340606D01*
X449442Y340138D01*
X449707Y339741D01*
X450104Y339475D01*
X450572Y339382D01*
X451041Y339475D01*
X451437Y339741D01*
X451703Y340138D01*
X451796Y340606D01*
X451703Y341074D01*
X451437Y341471D01*
X451041Y341736D01*
X450572Y341829D01*
D02*
G37*
G36*
X442860Y341694D02*
X442392Y341601D01*
X441995Y341336D01*
X441729Y340939D01*
X441636Y340471D01*
X441729Y340003D01*
X441995Y339606D01*
X442392Y339341D01*
X442860Y339247D01*
X443328Y339341D01*
X443725Y339606D01*
X443990Y340003D01*
X444083Y340471D01*
X443990Y340939D01*
X443725Y341336D01*
X443328Y341601D01*
X442860Y341694D01*
D02*
G37*
G36*
X450575Y336558D02*
X450107Y336465D01*
X449710Y336200D01*
X449444Y335803D01*
X449351Y335335D01*
X449444Y334867D01*
X449710Y334470D01*
X450107Y334204D01*
X450575Y334111D01*
X451043Y334204D01*
X451440Y334470D01*
X451705Y334867D01*
X451798Y335335D01*
X451705Y335803D01*
X451440Y336200D01*
X451043Y336465D01*
X450575Y336558D01*
D02*
G37*
G36*
X431300Y330924D02*
X430832Y330830D01*
X430435Y330565D01*
X430170Y330168D01*
X430077Y329700D01*
X430170Y329232D01*
X430435Y328835D01*
X430832Y328570D01*
X431300Y328477D01*
X431768Y328570D01*
X432165Y328835D01*
X432430Y329232D01*
X432523Y329700D01*
X432430Y330168D01*
X432165Y330565D01*
X431768Y330830D01*
X431300Y330924D01*
D02*
G37*
G36*
X434101Y328134D02*
X433446Y328004D01*
X432890Y327633D01*
X432519Y327077D01*
X432388Y326422D01*
X432519Y325767D01*
X432890Y325211D01*
X433446Y324840D01*
X434101Y324710D01*
X434756Y324840D01*
X435312Y325211D01*
X435683Y325767D01*
X435813Y326422D01*
X435683Y327077D01*
X435312Y327633D01*
X434756Y328004D01*
X434101Y328134D01*
D02*
G37*
G36*
X438235Y323207D02*
X433904D01*
X432980Y323023D01*
X432196Y322500D01*
X431673Y321716D01*
X431489Y320792D01*
X431673Y319868D01*
X432196Y319085D01*
X432980Y318561D01*
X433904Y318377D01*
X438235D01*
X439159Y318561D01*
X439942Y319085D01*
X440466Y319868D01*
X440650Y320792D01*
X440466Y321716D01*
X439942Y322500D01*
X439159Y323023D01*
X438235Y323207D01*
D02*
G37*
G36*
X429770Y317535D02*
X429302Y317442D01*
X428904Y317176D01*
X428639Y316779D01*
X428546Y316311D01*
X428639Y315843D01*
X428904Y315446D01*
X429302Y315181D01*
X429770Y315088D01*
X430238Y315181D01*
X430635Y315446D01*
X430900Y315843D01*
X430993Y316311D01*
X430900Y316779D01*
X430635Y317176D01*
X430238Y317442D01*
X429770Y317535D01*
D02*
G37*
G36*
X438165Y311038D02*
X437697Y310945D01*
X437300Y310680D01*
X437035Y310283D01*
X436941Y309815D01*
X436480Y309571D01*
X436282Y309531D01*
X435886Y309266D01*
X435620Y308869D01*
X435527Y308401D01*
X435620Y307932D01*
X435886Y307536D01*
X436282Y307270D01*
X436751Y307177D01*
X437219Y307270D01*
X437616Y307536D01*
X437881Y307932D01*
X437974Y308401D01*
X438435Y308645D01*
X438633Y308685D01*
X439030Y308950D01*
X439295Y309347D01*
X439389Y309815D01*
X439295Y310283D01*
X439030Y310680D01*
X438633Y310945D01*
X438165Y311038D01*
D02*
G37*
G36*
X419127Y305566D02*
X418659Y305473D01*
X418262Y305208D01*
X417996Y304811D01*
X417903Y304343D01*
X417996Y303874D01*
X418262Y303477D01*
X418659Y303212D01*
X419127Y303119D01*
X419595Y303212D01*
X419992Y303477D01*
X420257Y303874D01*
X420350Y304343D01*
X420257Y304811D01*
X419992Y305208D01*
X419595Y305473D01*
X419127Y305566D01*
D02*
G37*
G36*
X439500Y298471D02*
X438576Y298287D01*
X437792Y297763D01*
X437269Y296980D01*
X437085Y296056D01*
X437269Y295132D01*
X437792Y294348D01*
X438576Y293825D01*
X439500Y293641D01*
X440424Y293825D01*
X441208Y294348D01*
X441731Y295132D01*
X441915Y296056D01*
X441731Y296980D01*
X441208Y297763D01*
X440424Y298287D01*
X439500Y298471D01*
D02*
G37*
G36*
X431846Y293018D02*
X431378Y292925D01*
X430981Y292660D01*
X430716Y292263D01*
X430623Y291795D01*
X430716Y291327D01*
X430860Y291110D01*
X430950Y290569D01*
X430685Y290172D01*
X430592Y289704D01*
X430685Y289235D01*
X430950Y288839D01*
X431347Y288573D01*
X431815Y288480D01*
X432283Y288573D01*
X432680Y288839D01*
X432945Y289235D01*
X433039Y289704D01*
X432945Y290172D01*
X432801Y290388D01*
X432711Y290930D01*
X432976Y291327D01*
X433070Y291795D01*
X432976Y292263D01*
X432711Y292660D01*
X432314Y292925D01*
X431846Y293018D01*
D02*
G37*
G36*
X439500Y292959D02*
X438576Y292775D01*
X437792Y292252D01*
X437269Y291468D01*
X437085Y290544D01*
X437269Y289620D01*
X437792Y288837D01*
X438576Y288313D01*
X439500Y288129D01*
X440424Y288313D01*
X441208Y288837D01*
X441731Y289620D01*
X441915Y290544D01*
X441731Y291468D01*
X441208Y292252D01*
X440424Y292775D01*
X439500Y292959D01*
D02*
G37*
G36*
Y287447D02*
X438576Y287263D01*
X437792Y286740D01*
X437269Y285956D01*
X437085Y285032D01*
X437269Y284108D01*
X437792Y283325D01*
X438576Y282801D01*
X439500Y282617D01*
X440424Y282801D01*
X441208Y283325D01*
X441731Y284108D01*
X441915Y285032D01*
X441731Y285956D01*
X441208Y286740D01*
X440424Y287263D01*
X439500Y287447D01*
D02*
G37*
G36*
X533323Y339396D02*
X532855Y339303D01*
X532458Y339038D01*
X532193Y338641D01*
X532099Y338172D01*
X532193Y337704D01*
X532458Y337307D01*
X532855Y337042D01*
X533323Y336949D01*
X533791Y337042D01*
X534188Y337307D01*
X534453Y337704D01*
X534546Y338172D01*
X534453Y338641D01*
X534188Y339038D01*
X533791Y339303D01*
X533323Y339396D01*
D02*
G37*
G36*
X520724D02*
X520256Y339303D01*
X519859Y339038D01*
X519594Y338641D01*
X519501Y338172D01*
X519594Y337704D01*
X519859Y337307D01*
X520256Y337042D01*
X520724Y336949D01*
X521193Y337042D01*
X521590Y337307D01*
X521855Y337704D01*
X521948Y338172D01*
X521855Y338641D01*
X521590Y339038D01*
X521193Y339303D01*
X520724Y339396D01*
D02*
G37*
G36*
X530207Y339389D02*
X529739Y339296D01*
X529342Y339030D01*
X529077Y338633D01*
X528984Y338165D01*
X529077Y337697D01*
X529342Y337300D01*
X529739Y337035D01*
X530207Y336942D01*
X530676Y337035D01*
X531073Y337300D01*
X531338Y337697D01*
X531431Y338165D01*
X531338Y338633D01*
X531073Y339030D01*
X530676Y339296D01*
X530207Y339389D01*
D02*
G37*
G36*
X542916Y338774D02*
X542448Y338681D01*
X542051Y338415D01*
X541785Y338018D01*
X541692Y337550D01*
X541785Y337082D01*
X542051Y336685D01*
X542448Y336420D01*
X542916Y336327D01*
X543384Y336420D01*
X543781Y336685D01*
X544046Y337082D01*
X544139Y337550D01*
X544046Y338018D01*
X543781Y338415D01*
X543384Y338681D01*
X542916Y338774D01*
D02*
G37*
G36*
X527024Y336246D02*
X526555Y336153D01*
X526159Y335888D01*
X525893Y335491D01*
X525800Y335023D01*
X525893Y334555D01*
X526159Y334158D01*
X526555Y333892D01*
X527024Y333799D01*
X527492Y333892D01*
X527889Y334158D01*
X528154Y334555D01*
X528247Y335023D01*
X528154Y335491D01*
X527889Y335888D01*
X527492Y336153D01*
X527024Y336246D01*
D02*
G37*
G36*
X501827D02*
X501359Y336153D01*
X500962Y335888D01*
X500696Y335491D01*
X500603Y335023D01*
X500696Y334555D01*
X500962Y334158D01*
X501359Y333892D01*
X501827Y333799D01*
X502295Y333892D01*
X502692Y334158D01*
X502957Y334555D01*
X503050Y335023D01*
X502957Y335491D01*
X502692Y335888D01*
X502295Y336153D01*
X501827Y336246D01*
D02*
G37*
G36*
X495528D02*
X495059Y336153D01*
X494662Y335888D01*
X494397Y335491D01*
X494304Y335023D01*
X494397Y334555D01*
X494662Y334158D01*
X495059Y333892D01*
X495528Y333799D01*
X495996Y333892D01*
X496393Y334158D01*
X496658Y334555D01*
X496751Y335023D01*
X496658Y335491D01*
X496393Y335888D01*
X495996Y336153D01*
X495528Y336246D01*
D02*
G37*
G36*
X504976D02*
X504508Y336153D01*
X504111Y335888D01*
X503846Y335491D01*
X503753Y335023D01*
X503846Y334555D01*
X504111Y334158D01*
X504400Y333965D01*
X504439Y333792D01*
Y333582D01*
X504400Y333409D01*
X504111Y333217D01*
X503846Y332820D01*
X503753Y332351D01*
X503846Y331883D01*
X504111Y331486D01*
X504508Y331221D01*
X504976Y331128D01*
X505445Y331221D01*
X505841Y331486D01*
X506107Y331883D01*
X506200Y332351D01*
X506107Y332820D01*
X505841Y333217D01*
X505553Y333409D01*
X505514Y333582D01*
Y333792D01*
X505553Y333965D01*
X505841Y334158D01*
X506107Y334555D01*
X506200Y335023D01*
X506107Y335491D01*
X505841Y335888D01*
X505445Y336153D01*
X504976Y336246D01*
D02*
G37*
G36*
X530173Y333097D02*
X529705Y333004D01*
X529308Y332738D01*
X529043Y332341D01*
X528950Y331873D01*
X529043Y331405D01*
X529308Y331008D01*
X529705Y330743D01*
X530173Y330650D01*
X530641Y330743D01*
X531038Y331008D01*
X531304Y331405D01*
X531397Y331873D01*
X531304Y332341D01*
X531038Y332738D01*
X530641Y333004D01*
X530173Y333097D01*
D02*
G37*
G36*
X508126D02*
X507658Y333004D01*
X507261Y332738D01*
X506996Y332341D01*
X506903Y331873D01*
X506996Y331405D01*
X507261Y331008D01*
X507658Y330743D01*
X508126Y330650D01*
X508594Y330743D01*
X508991Y331008D01*
X509256Y331405D01*
X509349Y331873D01*
X509256Y332341D01*
X508991Y332738D01*
X508594Y333004D01*
X508126Y333097D01*
D02*
G37*
G36*
X544820Y332224D02*
X544352Y332130D01*
X543955Y331865D01*
X543690Y331468D01*
X543597Y331000D01*
X543690Y330532D01*
X543955Y330135D01*
X544352Y329870D01*
X544820Y329777D01*
X545288Y329870D01*
X545685Y330135D01*
X545951Y330532D01*
X546044Y331000D01*
X545951Y331468D01*
X545685Y331865D01*
X545288Y332130D01*
X544820Y332224D01*
D02*
G37*
G36*
X530173Y329947D02*
X529705Y329854D01*
X529308Y329589D01*
X529043Y329192D01*
X528950Y328724D01*
X529043Y328255D01*
X529308Y327858D01*
X529705Y327593D01*
X530173Y327500D01*
X530641Y327593D01*
X531038Y327858D01*
X531304Y328255D01*
X531397Y328724D01*
X531304Y329192D01*
X531038Y329589D01*
X530641Y329854D01*
X530173Y329947D01*
D02*
G37*
G36*
X546622Y329886D02*
X546154Y329793D01*
X545757Y329527D01*
X545492Y329131D01*
X545399Y328662D01*
X545492Y328194D01*
X545757Y327797D01*
X546154Y327532D01*
X546622Y327439D01*
X547090Y327532D01*
X547487Y327797D01*
X547752Y328194D01*
X547846Y328662D01*
X547752Y329131D01*
X547487Y329527D01*
X547090Y329793D01*
X546622Y329886D01*
D02*
G37*
G36*
X545000Y327024D02*
X544532Y326930D01*
X544135Y326665D01*
X543870Y326268D01*
X543777Y325800D01*
X543870Y325332D01*
X544135Y324935D01*
X544532Y324670D01*
X545000Y324576D01*
X545468Y324670D01*
X545865Y324935D01*
X546130Y325332D01*
X546223Y325800D01*
X546130Y326268D01*
X545865Y326665D01*
X545468Y326930D01*
X545000Y327024D01*
D02*
G37*
G36*
X533300Y326923D02*
X532832Y326830D01*
X532435Y326565D01*
X532170Y326168D01*
X532077Y325700D01*
X532170Y325232D01*
X532435Y324835D01*
X532832Y324570D01*
X533300Y324477D01*
X533768Y324570D01*
X534165Y324835D01*
X534430Y325232D01*
X534523Y325700D01*
X534430Y326168D01*
X534165Y326565D01*
X533768Y326830D01*
X533300Y326923D01*
D02*
G37*
G36*
X530173Y326798D02*
X529705Y326704D01*
X529308Y326439D01*
X529043Y326042D01*
X528950Y325574D01*
X529043Y325106D01*
X529308Y324709D01*
X529705Y324444D01*
X530173Y324351D01*
X530641Y324444D01*
X531038Y324709D01*
X531304Y325106D01*
X531397Y325574D01*
X531304Y326042D01*
X531038Y326439D01*
X530641Y326704D01*
X530173Y326798D01*
D02*
G37*
G36*
X523874D02*
X523406Y326704D01*
X523009Y326439D01*
X522744Y326042D01*
X522650Y325574D01*
X522744Y325106D01*
X523009Y324709D01*
X523406Y324444D01*
X523874Y324351D01*
X524342Y324444D01*
X524739Y324709D01*
X525004Y325106D01*
X525098Y325574D01*
X525004Y326042D01*
X524739Y326439D01*
X524342Y326704D01*
X523874Y326798D01*
D02*
G37*
G36*
X520724D02*
X520256Y326704D01*
X519859Y326439D01*
X519594Y326042D01*
X519501Y325574D01*
X519594Y325106D01*
X519859Y324709D01*
X520256Y324444D01*
X520724Y324351D01*
X521193Y324444D01*
X521590Y324709D01*
X521855Y325106D01*
X521948Y325574D01*
X521855Y326042D01*
X521590Y326439D01*
X521193Y326704D01*
X520724Y326798D01*
D02*
G37*
G36*
X517575D02*
X517107Y326704D01*
X516710Y326439D01*
X516444Y326042D01*
X516351Y325574D01*
X516444Y325106D01*
X516710Y324709D01*
X517107Y324444D01*
X517575Y324351D01*
X518043Y324444D01*
X518440Y324709D01*
X518705Y325106D01*
X518798Y325574D01*
X518705Y326042D01*
X518440Y326439D01*
X518043Y326704D01*
X517575Y326798D01*
D02*
G37*
G36*
X511276Y323992D02*
X510807Y323899D01*
X510410Y323634D01*
X510145Y323237D01*
X510052Y322768D01*
X510145Y322300D01*
X510410Y321903D01*
X510807Y321638D01*
X511276Y321545D01*
X511744Y321638D01*
X512141Y321903D01*
X512406Y322300D01*
X512499Y322768D01*
X512406Y323237D01*
X512141Y323634D01*
X511744Y323899D01*
X511276Y323992D01*
D02*
G37*
G36*
X504806Y323465D02*
X504338Y323372D01*
X503941Y323107D01*
X503676Y322710D01*
X503582Y322242D01*
X503676Y321774D01*
X503941Y321377D01*
X504338Y321112D01*
X504806Y321018D01*
X505274Y321112D01*
X505671Y321377D01*
X505936Y321774D01*
X506029Y322242D01*
X505936Y322710D01*
X505671Y323107D01*
X505274Y323372D01*
X504806Y323465D01*
D02*
G37*
G36*
X517382Y322073D02*
X516914Y321980D01*
X516517Y321715D01*
X516252Y321318D01*
X516158Y320850D01*
X516252Y320381D01*
X516517Y319985D01*
X516914Y319719D01*
X517382Y319626D01*
X517850Y319719D01*
X518247Y319985D01*
X518512Y320381D01*
X518605Y320850D01*
X518512Y321318D01*
X518247Y321715D01*
X517850Y321980D01*
X517382Y322073D01*
D02*
G37*
G36*
X530173Y320498D02*
X529705Y320405D01*
X529308Y320140D01*
X529043Y319743D01*
X528950Y319275D01*
X529043Y318807D01*
X529308Y318410D01*
X529705Y318144D01*
X530173Y318051D01*
X530641Y318144D01*
X531038Y318410D01*
X531304Y318807D01*
X531397Y319275D01*
X531304Y319743D01*
X531038Y320140D01*
X530641Y320405D01*
X530173Y320498D01*
D02*
G37*
G36*
X520724D02*
X520256Y320405D01*
X519859Y320140D01*
X519594Y319743D01*
X519501Y319275D01*
X519594Y318807D01*
X519859Y318410D01*
X520256Y318144D01*
X520724Y318051D01*
X521193Y318144D01*
X521590Y318410D01*
X521855Y318807D01*
X521948Y319275D01*
X521855Y319743D01*
X521590Y320140D01*
X521193Y320405D01*
X520724Y320498D01*
D02*
G37*
G36*
X517575Y317349D02*
X517107Y317256D01*
X516710Y316990D01*
X516444Y316593D01*
X516351Y316125D01*
X516444Y315657D01*
X516710Y315260D01*
X517107Y314995D01*
X517575Y314902D01*
X518043Y314995D01*
X518440Y315260D01*
X518705Y315657D01*
X518798Y316125D01*
X518705Y316593D01*
X518440Y316990D01*
X518043Y317256D01*
X517575Y317349D01*
D02*
G37*
G36*
X504976D02*
X504508Y317256D01*
X504111Y316990D01*
X503846Y316593D01*
X503753Y316125D01*
X503846Y315657D01*
X504111Y315260D01*
X504508Y314995D01*
X504976Y314902D01*
X505445Y314995D01*
X505841Y315260D01*
X506107Y315657D01*
X506200Y316125D01*
X506107Y316593D01*
X505841Y316990D01*
X505445Y317256D01*
X504976Y317349D01*
D02*
G37*
G36*
Y311050D02*
X504508Y310956D01*
X504111Y310691D01*
X503846Y310294D01*
X503753Y309826D01*
X503846Y309358D01*
X504111Y308961D01*
X504508Y308696D01*
X504976Y308602D01*
X505445Y308696D01*
X505841Y308961D01*
X506107Y309358D01*
X506200Y309826D01*
X506107Y310294D01*
X505841Y310691D01*
X505445Y310956D01*
X504976Y311050D01*
D02*
G37*
G36*
X530173Y307900D02*
X529705Y307807D01*
X529308Y307541D01*
X529043Y307145D01*
X528950Y306676D01*
X529043Y306208D01*
X529308Y305811D01*
X529705Y305546D01*
X530173Y305453D01*
X530641Y305546D01*
X531038Y305811D01*
X531304Y306208D01*
X531397Y306676D01*
X531304Y307145D01*
X531038Y307541D01*
X530641Y307807D01*
X530173Y307900D01*
D02*
G37*
G36*
X527024D02*
X526555Y307807D01*
X526159Y307541D01*
X525893Y307145D01*
X525800Y306676D01*
X525893Y306208D01*
X526159Y305811D01*
X526555Y305546D01*
X527024Y305453D01*
X527492Y305546D01*
X527889Y305811D01*
X528154Y306208D01*
X528247Y306676D01*
X528154Y307145D01*
X527889Y307541D01*
X527492Y307807D01*
X527024Y307900D01*
D02*
G37*
G36*
X530173Y304750D02*
X529705Y304657D01*
X529308Y304392D01*
X529043Y303995D01*
X528950Y303527D01*
X529043Y303059D01*
X529308Y302662D01*
X529705Y302396D01*
X530173Y302303D01*
X530641Y302396D01*
X531038Y302662D01*
X531304Y303059D01*
X531397Y303527D01*
X531304Y303995D01*
X531038Y304392D01*
X530641Y304657D01*
X530173Y304750D01*
D02*
G37*
G36*
X527024D02*
X526555Y304657D01*
X526159Y304392D01*
X525893Y303995D01*
X525800Y303527D01*
X525893Y303059D01*
X526159Y302662D01*
X526555Y302396D01*
X527024Y302303D01*
X527492Y302396D01*
X527889Y302662D01*
X528154Y303059D01*
X528247Y303527D01*
X528154Y303995D01*
X527889Y304392D01*
X527492Y304657D01*
X527024Y304750D01*
D02*
G37*
G36*
X523870Y301623D02*
X523402Y301530D01*
X523005Y301265D01*
X522740Y300868D01*
X522647Y300400D01*
X522740Y299932D01*
X523005Y299535D01*
X523402Y299269D01*
X523870Y299176D01*
X524338Y299269D01*
X524735Y299535D01*
X525000Y299932D01*
X525094Y300400D01*
X525000Y300868D01*
X524735Y301265D01*
X524338Y301530D01*
X523870Y301623D01*
D02*
G37*
G36*
X530173Y301601D02*
X529705Y301507D01*
X529308Y301242D01*
X529043Y300845D01*
X528950Y300377D01*
X529043Y299909D01*
X529308Y299512D01*
X529705Y299247D01*
X530173Y299154D01*
X530641Y299247D01*
X531038Y299512D01*
X531304Y299909D01*
X531397Y300377D01*
X531304Y300845D01*
X531038Y301242D01*
X530641Y301507D01*
X530173Y301601D01*
D02*
G37*
G36*
X527024D02*
X526555Y301507D01*
X526159Y301242D01*
X525893Y300845D01*
X525800Y300377D01*
X525893Y299909D01*
X526159Y299512D01*
X526555Y299247D01*
X527024Y299154D01*
X527492Y299247D01*
X527889Y299512D01*
X528154Y299909D01*
X528247Y300377D01*
X528154Y300845D01*
X527889Y301242D01*
X527492Y301507D01*
X527024Y301601D01*
D02*
G37*
G36*
X543135Y297438D02*
X542667Y297345D01*
X542270Y297080D01*
X542004Y296683D01*
X541911Y296215D01*
X542004Y295746D01*
X542128Y295562D01*
X542135Y294965D01*
X541870Y294568D01*
X541777Y294100D01*
X541870Y293632D01*
X542135Y293235D01*
X542532Y292970D01*
X543000Y292877D01*
X543468Y292970D01*
X543865Y293235D01*
X544130Y293632D01*
X544223Y294100D01*
X544130Y294568D01*
X544007Y294753D01*
X544000Y295350D01*
X544265Y295746D01*
X544358Y296215D01*
X544265Y296683D01*
X544000Y297080D01*
X543603Y297345D01*
X543135Y297438D01*
D02*
G37*
G36*
X530219Y289041D02*
X529751Y288948D01*
X529354Y288683D01*
X529089Y288286D01*
X528995Y287818D01*
X529089Y287349D01*
X529354Y286952D01*
X529751Y286687D01*
X530219Y286594D01*
X530254Y286601D01*
X530673Y286175D01*
X530643Y286023D01*
X530736Y285554D01*
X531001Y285157D01*
X531398Y284892D01*
X531866Y284799D01*
X532334Y284892D01*
X532731Y285157D01*
X532997Y285554D01*
X533090Y286023D01*
X532997Y286491D01*
X532731Y286888D01*
X532334Y287153D01*
X531866Y287246D01*
X531831Y287239D01*
X531412Y287666D01*
X531442Y287818D01*
X531349Y288286D01*
X531084Y288683D01*
X530687Y288948D01*
X530219Y289041D01*
D02*
G37*
%LPD*%
D33*
X617500Y352500D02*
D03*
Y282500D02*
D03*
X487500D02*
D03*
X477500D02*
D03*
D34*
X447500Y352500D02*
D03*
Y282500D02*
D03*
D36*
X439500Y301568D02*
D03*
D37*
X431626Y304619D02*
D03*
Y281981D02*
D03*
D40*
X517722Y296822D02*
X524362D01*
X507353Y286453D02*
X517722Y296822D01*
X505863Y286453D02*
X507353D01*
X501500Y284900D02*
X504310D01*
X505863Y286453D01*
D41*
X553115Y316095D02*
G03*
X552804Y316469I-1215J-696D01*
G01*
X554200Y314112D02*
G03*
X554145Y314308I-400J-6D01*
G01*
X552806Y310647D02*
G03*
X552921Y310367I400J1D01*
G01*
X547461Y321009D02*
G03*
X547206Y321106I-261J-303D01*
G01*
X492400Y310272D02*
G03*
X491950Y309822I0J-450D01*
G01*
X491050Y305377D02*
G03*
X491950Y305377I450J0D01*
G01*
X491050Y309822D02*
G03*
X490600Y310272I-450J0D01*
G01*
X472253Y295306D02*
G03*
X471617Y295306I-318J-318D01*
G01*
X470540Y294866D02*
G03*
X471176Y294866I318J318D01*
G01*
X470540Y295502D02*
G03*
X470540Y294866I318J-318D01*
G01*
X472513Y297476D02*
G03*
X472513Y298112I-318J318D01*
G01*
D02*
G03*
X471877Y298112I-318J-318D01*
G01*
X469022Y295894D02*
G03*
X469659Y295894I318J318D01*
G01*
X469022Y296530D02*
G03*
X469022Y295894I318J-318D01*
G01*
X471241Y298749D02*
G03*
X471241Y299385I-318J318D01*
G01*
X471241Y299385D02*
G03*
X470604Y299385I-318J-318D01*
G01*
X469071Y298488D02*
G03*
X469708Y298488I318J318D01*
G01*
X483047Y290250D02*
G03*
X483497Y289800I450J0D01*
G01*
X483047Y290250D02*
G03*
X482147Y290250I-450J0D01*
G01*
X481247Y290249D02*
G03*
X482147Y290249I450J0D01*
G01*
X481247Y290447D02*
G03*
X480347Y290447I-450J0D01*
G01*
X479447Y290249D02*
G03*
X480347Y290249I450J0D01*
G01*
X479447Y290520D02*
G03*
X478547Y290520I-450J0D01*
G01*
X477647Y290249D02*
G03*
X478547Y290249I450J0D01*
G01*
X477647Y290520D02*
G03*
X476747Y290520I-450J0D01*
G01*
X475847Y290249D02*
G03*
X476747Y290249I450J0D01*
G01*
X475847Y290520D02*
G03*
X474947Y290520I-450J0D01*
G01*
X474047Y290249D02*
G03*
X474947Y290249I450J0D01*
G01*
X474047Y290520D02*
G03*
X473147Y290520I-450J0D01*
G01*
X472697Y289800D02*
G03*
X473147Y290250I0J450D01*
G01*
X459823Y301161D02*
G03*
X459823Y301797I-318J318D01*
G01*
X459657Y300995D02*
G03*
X459657Y300358I318J-318D01*
G01*
D02*
G03*
X460293Y300358I318J318D01*
G01*
X462483Y301911D02*
G03*
X461847Y301911I-318J-318D01*
G01*
X462483Y301275D02*
G03*
X462483Y301911I-318J318D01*
G01*
X460919Y299711D02*
G03*
X460919Y299075I318J-318D01*
G01*
X460919Y299075D02*
G03*
X461555Y299075I318J318D01*
G01*
X462369Y299252D02*
G03*
X461732Y299252I-318J-318D01*
G01*
X468350Y305576D02*
G03*
X468482Y305258I450J0D01*
G01*
X468350Y306850D02*
G03*
X467450Y306850I-450J0D01*
G01*
X466550Y304765D02*
G03*
X467450Y304765I450J0D01*
G01*
X466550Y308952D02*
G03*
X465650Y308952I-450J0D01*
G01*
X465200Y305648D02*
G03*
X465650Y306098I0J450D01*
G01*
X491300Y300359D02*
G03*
X490850Y299909I0J-450D01*
G01*
X489950Y296750D02*
G03*
X490850Y296750I450J0D01*
G01*
X489950Y299909D02*
G03*
X489500Y300359I-450J0D01*
G01*
X486350Y300809D02*
G03*
X486800Y300359I450J0D01*
G01*
X486350Y301841D02*
G03*
X485450Y301841I-450J0D01*
G01*
X484550Y299550D02*
G03*
X485450Y299550I450J0D01*
G01*
X484550Y301841D02*
G03*
X483650Y301841I-450J0D01*
G01*
X483200Y300359D02*
G03*
X483650Y300809I0J450D01*
G01*
X499914Y307222D02*
G03*
X499914Y306586I318J-318D01*
G01*
X500864Y308172D02*
G03*
X500864Y308809I-318J318D01*
G01*
X500864Y308809D02*
G03*
X500228Y308809I-318J-318D01*
G01*
X498641Y307859D02*
G03*
X499278Y307859I318J318D01*
G01*
X493356Y324781D02*
G03*
X492720Y324781I-318J-318D01*
G01*
X491917Y324615D02*
G03*
X492553Y324615I318J318D01*
G01*
X491917Y325251D02*
G03*
X491917Y324615I318J-318D01*
G01*
X492717Y326051D02*
G03*
X492717Y326688I-318J318D01*
G01*
D02*
G03*
X492080Y326688I-318J-318D01*
G01*
X490644Y325887D02*
G03*
X491280Y325887I318J318D01*
G01*
X490644Y326524D02*
G03*
X490644Y325887I318J-318D01*
G01*
X491444Y327324D02*
G03*
X491444Y327960I-318J318D01*
G01*
D02*
G03*
X490808Y327960I-318J-318D01*
G01*
X489371Y327160D02*
G03*
X490007Y327160I318J318D01*
G01*
X489371Y327797D02*
G03*
X489371Y327160I318J-318D01*
G01*
X489538Y327963D02*
G03*
X489538Y328600I-318J318D01*
G01*
X489538Y328600D02*
G03*
X488901Y328600I-318J-318D01*
G01*
X488078Y328413D02*
G03*
X488715Y328413I318J318D01*
G01*
X488078Y329049D02*
G03*
X488078Y328413I318J-318D01*
G01*
X488265Y329236D02*
G03*
X488265Y329872I-318J318D01*
G01*
X488265Y329872D02*
G03*
X487629Y329872I-318J-318D01*
G01*
X486624Y329504D02*
G03*
X487260Y329504I318J318D01*
G01*
X486624Y330141D02*
G03*
X486624Y329504I318J-318D01*
G01*
X486992Y330509D02*
G03*
X486992Y331145I-318J318D01*
G01*
D02*
G03*
X486356Y331145I-318J-318D01*
G01*
X485142Y330568D02*
G03*
X485778Y330568I318J318D01*
G01*
X485142Y331204D02*
G03*
X485142Y330568I318J-318D01*
G01*
X485719Y331782D02*
G03*
X485719Y332418I-318J318D01*
G01*
D02*
G03*
X485083Y332418I-318J-318D01*
G01*
X483480Y331451D02*
G03*
X484116Y331451I318J318D01*
G01*
X483480Y332088D02*
G03*
X483480Y331451I318J-318D01*
G01*
X484446Y333054D02*
G03*
X484446Y333691I-318J318D01*
G01*
X470876Y332892D02*
G03*
X470876Y332256I318J-318D01*
G01*
X471501Y333518D02*
G03*
X471501Y334154I-318J318D01*
G01*
D02*
G03*
X470865Y334154I-318J-318D01*
G01*
X469600Y333526D02*
G03*
X470236Y333525I318J318D01*
G01*
X469600Y334162D02*
G03*
X469600Y333525I318J-318D01*
G01*
X470228Y334790D02*
G03*
X470228Y335427I-318J318D01*
G01*
D02*
G03*
X469592Y335427I-318J-318D01*
G01*
X468330Y334801D02*
G03*
X468966Y334801I318J318D01*
G01*
X468330Y335438D02*
G03*
X468330Y334801I318J-318D01*
G01*
X468955Y336063D02*
G03*
X468955Y336700I-318J318D01*
G01*
X468955Y336700D02*
G03*
X468319Y336700I-318J-318D01*
G01*
X467057Y336074D02*
G03*
X467694Y336074I318J318D01*
G01*
X482916Y323050D02*
G03*
X483366Y322600I450J0D01*
G01*
X482916Y323783D02*
G03*
X482016Y323783I-450J0D01*
G01*
X481116Y323050D02*
G03*
X482016Y323050I450J0D01*
G01*
X481116Y323783D02*
G03*
X480216Y323783I-450J0D01*
G01*
X479316Y323050D02*
G03*
X480216Y323050I450J0D01*
G01*
X479316Y323783D02*
G03*
X478416Y323783I-450J0D01*
G01*
X477516Y323050D02*
G03*
X478416Y323050I450J0D01*
G01*
X477516Y323783D02*
G03*
X476616Y323783I-450J0D01*
G01*
X476166Y322600D02*
G03*
X476616Y323050I0J450D01*
G01*
X472346Y329654D02*
G03*
X471710Y329654I-318J-318D01*
G01*
X469772Y328352D02*
G03*
X470409Y328352I318J318D01*
G01*
X469772Y328989D02*
G03*
X469772Y328352I318J-318D01*
G01*
X471073Y330290D02*
G03*
X471073Y330927I-318J318D01*
G01*
D02*
G03*
X470437Y330927I-318J-318D01*
G01*
X469333Y330458D02*
G03*
X469969Y330458I318J318D01*
G01*
X469333Y331095D02*
G03*
X469333Y330458I318J-318D01*
G01*
X469801Y331563D02*
G03*
X469801Y332199I-318J318D01*
G01*
D02*
G03*
X469164Y332199I-318J-318D01*
G01*
X468261Y331933D02*
G03*
X468897Y331933I318J318D01*
G01*
X468261Y332569D02*
G03*
X468261Y331933I318J-318D01*
G01*
X468528Y332836D02*
G03*
X468528Y333472I-318J318D01*
G01*
X617500Y351010D02*
Y352500D01*
X615881Y349391D02*
X617500Y351010D01*
X615881Y348981D02*
Y349391D01*
X615400Y348500D02*
X615881Y348981D01*
X593680Y348500D02*
X615400D01*
X592550Y349350D02*
X592830D01*
X593680Y348500D01*
X603365Y346835D02*
X603500Y346700D01*
X588696Y346835D02*
X603365D01*
X539550Y319677D02*
Y319706D01*
X538594Y321500D02*
X546810D01*
X537769Y320675D02*
X538594Y321500D01*
X546810D02*
X547204Y321106D01*
X553115Y316095D02*
X554145Y314308D01*
X547461Y321009D02*
X552804Y316469D01*
X534723Y320675D02*
X537769D01*
X533323Y319275D02*
X534723Y320675D01*
X536500Y316300D02*
X538100Y314700D01*
X545300D01*
X539491Y312976D02*
X539622D01*
X536472Y309826D02*
X547671D01*
X533323Y312976D02*
X536472Y309826D01*
X539550Y319677D02*
X539952Y319275D01*
X542457D01*
X560231Y301500D01*
X514473Y291027D02*
X520951D01*
X530472Y291783D02*
X532255Y290000D01*
X520951Y291027D02*
X521707Y291783D01*
X530472D01*
X532255Y290000D02*
X558050D01*
X552921Y310367D02*
X560989Y302300D01*
X554200Y310220D02*
Y314110D01*
X552800Y312749D02*
X552806Y310647D01*
X554200Y314112D02*
X554200Y314110D01*
X547204Y321106D02*
X547206Y321106D01*
X425800Y333191D02*
X439309Y346700D01*
X480100D02*
X485100Y341700D01*
X439309Y346700D02*
X480100D01*
X484100Y336020D02*
X486000Y334120D01*
X484100Y336020D02*
Y340800D01*
X483613Y341287D02*
X484100Y340800D01*
X477587Y341287D02*
X483613D01*
X547257Y348900D02*
X559829Y336329D01*
X561729D01*
X562800Y337400D01*
X576520Y305800D02*
X577140D01*
X575267Y304257D02*
Y304547D01*
X570110Y299100D02*
X575267Y304257D01*
X558811Y299100D02*
X570110D01*
X575267Y304547D02*
X576520Y305800D01*
X572980Y298300D02*
X580447Y305768D01*
X580583D01*
X558480Y298300D02*
X572980D01*
X587525Y345665D02*
X588696Y346835D01*
X493557Y348900D02*
X547257D01*
X560433Y316952D02*
Y329530D01*
X541920Y340700D02*
X547000D01*
X544286Y346808D02*
X561833Y329261D01*
X559633Y314459D02*
Y329199D01*
X501696Y344322D02*
X545641D01*
X502027Y343522D02*
X545309D01*
X559633Y329199D01*
X500222Y346808D02*
X544286D01*
X541061Y341559D02*
X541920Y340700D01*
X545641Y344322D02*
X560433Y329530D01*
X561833Y318584D02*
Y329261D01*
X547000Y340700D02*
X558500Y329200D01*
X545231Y347608D02*
X564068Y328770D01*
X497208Y347608D02*
X545231D01*
X558500Y310600D02*
Y329200D01*
X557600Y309700D02*
X558500Y310600D01*
X557600Y308800D02*
Y309700D01*
X541061Y341559D02*
Y341863D01*
X540202Y342722D02*
X541061Y341863D01*
X520145Y342722D02*
X540202D01*
X491418Y346761D02*
X493557Y348900D01*
X592600Y315400D02*
Y324900D01*
X617264Y282736D02*
X617500Y282500D01*
X574574Y309100D02*
X589691D01*
X603498Y289138D02*
Y296425D01*
X592600Y310717D02*
Y315400D01*
X600000Y289200D02*
Y298792D01*
X610616Y289279D02*
Y291569D01*
X574411Y311200D02*
X589854D01*
X574743Y310400D02*
X589523D01*
X589691Y309100D02*
X600000Y298792D01*
X589523Y310400D02*
X603498Y296425D01*
X589854Y311200D02*
X607143Y293912D01*
X590186Y312000D02*
X610616Y291569D01*
X574080Y312000D02*
X590186D01*
X592600Y310717D02*
X617264Y286053D01*
X607143Y289258D02*
Y293912D01*
X617264Y282736D02*
Y286053D01*
X561320Y303100D02*
X565180D01*
X554200Y310220D02*
X561320Y303100D01*
X565180D02*
X574080Y312000D01*
X560989Y302300D02*
X565511D01*
X574411Y311200D01*
X560231Y301500D02*
X565843D01*
X578169Y296700D02*
X583170Y301700D01*
X551021Y296700D02*
X578169D01*
X548805Y298916D02*
X551021Y296700D01*
X556633Y297500D02*
X577080D01*
X559569Y299900D02*
X566505D01*
X574811Y308205D01*
X580678D01*
X559900Y300700D02*
X566174D01*
X553600Y307000D02*
X559900Y300700D01*
X566174D02*
X574574Y309100D01*
X565843Y301500D02*
X574743Y310400D01*
X555033Y299100D02*
X556633Y297500D01*
X577080D02*
X582680Y303100D01*
X552989Y299100D02*
X555033D01*
X552589Y299500D02*
X552989Y299100D01*
X556880Y299900D02*
X558480Y298300D01*
X553320Y299900D02*
X556880D01*
X552400Y300820D02*
X553320Y299900D01*
X555017Y302894D02*
X558811Y299100D01*
X553589Y305879D02*
X559569Y299900D01*
X586300Y331200D02*
X592600Y324900D01*
X581099Y307700D02*
Y307784D01*
X580678Y308205D02*
X581099Y307784D01*
X534741Y308095D02*
X547414D01*
X547683Y306695D02*
X552400Y301977D01*
X536397Y306695D02*
X547683D01*
X547414Y308095D02*
X552614Y302894D01*
X553000Y307000D02*
X553600D01*
X551618Y305879D02*
X553589D01*
X552400Y300820D02*
Y301977D01*
X552614Y302894D02*
X555017D01*
X547671Y309826D02*
X551618Y305879D01*
X545300Y314700D02*
X553000Y307000D01*
X532900Y314600D02*
X537069D01*
X537769Y313900D01*
X538567D02*
X539491Y312976D01*
X537769Y313900D02*
X538567D01*
X531800Y313500D02*
X532900Y314600D01*
X591210Y343300D02*
X592550Y344640D01*
X572810Y343300D02*
X591210D01*
X462591Y316124D02*
X465262Y313453D01*
Y312886D02*
Y313453D01*
X471491Y311861D02*
X478974Y304378D01*
X470561Y311861D02*
X471491D01*
X469540Y312882D02*
X470561Y311861D01*
X466900Y315700D02*
X467088D01*
X471316Y310905D02*
X478642Y303578D01*
X468740Y312551D02*
X469591Y311700D01*
X469995Y311296D01*
X483039Y303891D02*
X488785D01*
X478974Y304378D02*
X482552D01*
X483039Y303891D01*
X488785D02*
X489149Y303527D01*
X491900D01*
X471316Y310905D02*
X471316D01*
X471311Y310900D02*
X471316Y310905D01*
X478642Y303578D02*
X482220D01*
X482708Y303091D02*
X487858D01*
X488848Y302100D01*
X482220Y303578D02*
X482708Y303091D01*
X488848Y302100D02*
X489000D01*
X471150Y311061D02*
X471311Y310900D01*
X470230Y311061D02*
X471150D01*
X469995Y311296D02*
X470230Y311061D01*
X469995Y311296D02*
X469995D01*
X467930Y314254D02*
X468267D01*
X467284Y313608D02*
X467930Y314254D01*
X467096Y313608D02*
X467284D01*
X468599Y315054D02*
X469540Y314113D01*
X467088Y315700D02*
X467734Y315054D01*
X468740Y312551D02*
Y313781D01*
X468267Y314254D02*
X468740Y313781D01*
X469540Y312882D02*
Y314113D01*
X467734Y315054D02*
X468599D01*
X465940Y312208D02*
X466562D01*
X466728Y312042D02*
X467870D01*
X468903Y311009D01*
X466562Y312208D02*
X466728Y312042D01*
X493128Y310272D02*
X493300Y310100D01*
X492400Y310272D02*
X493128D01*
X491950Y305377D02*
Y309822D01*
X491050Y305377D02*
Y309822D01*
X489500Y310272D02*
X490600D01*
X472253Y295306D02*
X472830Y294730D01*
X472253Y295306D02*
X472253Y295306D01*
X471176Y294866D02*
X471617Y295306D01*
X470540Y294866D02*
X470540Y294866D01*
X470540Y295502D02*
X472513Y297476D01*
X471877Y298112D02*
X471877D01*
X469659Y295894D02*
X471877Y298112D01*
X469022Y296530D02*
X469022D01*
X471241Y298749D01*
X471241Y299385D02*
X471241Y299385D01*
X471241Y299385D01*
X471241Y299385D02*
X471241Y299385D01*
X470604D02*
X470604D01*
X469708Y298488D02*
X470604Y299385D01*
X468930Y298630D02*
X469071Y298488D01*
X483497Y289800D02*
X484500D01*
X483047Y290250D02*
Y290250D01*
X482147Y290249D02*
Y290250D01*
X481247Y290249D02*
Y290447D01*
X480347Y290249D02*
Y290447D01*
X479447Y290249D02*
Y290520D01*
X478547Y290249D02*
Y290520D01*
X477647Y290249D02*
Y290520D01*
X476747Y290249D02*
Y290520D01*
X475847Y290249D02*
Y290520D01*
X474947Y290249D02*
Y290520D01*
X474047Y290249D02*
Y290520D01*
X473147Y290250D02*
Y290520D01*
X472497Y289800D02*
X472697D01*
X466100D02*
X472497D01*
X459360Y302260D02*
X459823Y301797D01*
X459823Y301797D02*
X459823Y301797D01*
X459657Y300995D02*
X459823Y301161D01*
X459657Y300995D02*
X459657D01*
X460293Y300358D02*
X461847Y301911D01*
X461847D02*
X461847D01*
X460919Y299711D02*
X462483Y301275D01*
X460919Y299711D02*
X460919D01*
X460919Y299075D02*
X460919Y299075D01*
X461555Y299075D02*
X461732Y299252D01*
X462369Y299252D02*
X462369Y299252D01*
X462510Y299110D01*
X458784Y302836D02*
X459360Y302260D01*
X462510Y299110D02*
X468167Y293453D01*
X476488Y298403D02*
X481777D01*
X470113Y304778D02*
X476488Y298403D01*
X470113Y304778D02*
Y307784D01*
X486166Y297500D02*
X486766Y296900D01*
X481777Y298403D02*
X482680Y297500D01*
X486766Y296900D02*
X487000D01*
X482680Y297500D02*
X486166D01*
X468200Y308700D02*
X468348D01*
X468405Y308643D01*
X469254D02*
X470113Y307784D01*
X468405Y308643D02*
X469254D01*
X470913Y305110D02*
X476820Y299203D01*
X486766Y298900D02*
X487000D01*
X476820Y299203D02*
X482109D01*
X470913Y305110D02*
Y308116D01*
X486166Y298300D02*
X486766Y298900D01*
X482109Y299203D02*
X483011Y298300D01*
X486166D01*
X468826Y310100D02*
X468928D01*
X468717Y310209D02*
X468826Y310100D01*
X468048Y310209D02*
X468717D01*
X468928Y310100D02*
X470913Y308116D01*
X464715Y302336D02*
X465535Y301515D01*
X466044D01*
X468930Y298630D01*
X464715Y302336D02*
Y302520D01*
X468482Y305258D02*
X469600Y304140D01*
X468350Y305576D02*
Y306850D01*
X467450Y304765D02*
Y306850D01*
X466550Y304765D02*
Y308952D01*
X465650Y306098D02*
Y308952D01*
X463200Y305648D02*
X465200D01*
X469600Y304140D02*
X470500Y303240D01*
X462956Y305648D02*
X463200D01*
X463997Y303238D02*
X464715Y302520D01*
X463997Y303238D02*
Y303563D01*
X462403Y305094D02*
X462956Y305648D01*
X470500Y303240D02*
X470520D01*
X476582Y297178D01*
X491300Y300359D02*
X492000D01*
X490850Y296750D02*
Y299909D01*
X489950Y296750D02*
Y299909D01*
X486800Y300359D02*
X489500D01*
X486350Y300809D02*
Y301841D01*
X485450Y299550D02*
Y301841D01*
X484550Y299550D02*
Y301841D01*
X483650Y300809D02*
Y301841D01*
X483000Y300359D02*
X483200D01*
X492000D02*
X492336D01*
X477421D02*
X483000D01*
X505000Y292601D02*
Y294100D01*
X492960Y293485D02*
X495133Y291312D01*
X472830Y294730D02*
X473307Y294253D01*
X484254D01*
X484585Y293453D02*
X484617Y293485D01*
X468167Y293453D02*
X484585D01*
X484254Y294253D02*
X484286Y294285D01*
X476582Y297178D02*
X478578D01*
X458784Y302836D02*
Y308333D01*
X499914Y306586D02*
X500850Y305650D01*
X499914Y307222D02*
X500864Y308172D01*
X500864Y308809D02*
X500864Y308809D01*
X500864Y308809D01*
X500864Y308809D02*
X500864Y308809D01*
X500228D02*
X500228D01*
X499278Y307859D02*
X500228Y308809D01*
X498500Y308000D02*
X498641Y307859D01*
X500850Y305650D02*
X501300Y305200D01*
X498200Y308300D02*
X498500Y308000D01*
X493300Y310100D02*
X495100Y308300D01*
X487979Y310272D02*
X489500D01*
X495100Y308300D02*
X498200D01*
X501300Y302100D02*
Y305200D01*
X499678Y300478D02*
X501300Y302100D01*
X498278Y300473D02*
X498283Y300478D01*
X499678D01*
X484286Y294285D02*
X496232D01*
X484617Y293485D02*
X492960D01*
X496232Y294285D02*
X498700Y296753D01*
X484500Y289800D02*
X502199D01*
X463100Y292800D02*
X466100Y289800D01*
X502199D02*
X505000Y292601D01*
X493356Y324781D02*
X493969Y324169D01*
X493356Y324781D02*
X493356Y324781D01*
X492553Y324615D02*
X492720Y324781D01*
X492553Y324615D02*
Y324615D01*
X491917D02*
X491917Y324615D01*
Y325251D02*
X492717Y326051D01*
Y326051D02*
Y326051D01*
X491280Y325887D02*
X492080Y326688D01*
X491280Y325887D02*
Y325887D01*
X490644D02*
X490644Y325887D01*
Y326524D02*
X491444Y327324D01*
Y327324D02*
Y327324D01*
X490007Y327160D02*
X490808Y327960D01*
X490007Y327160D02*
Y327160D01*
X489371Y327797D02*
X489538Y327963D01*
Y327963D02*
Y327963D01*
X489538Y328600D02*
X489538Y328600D01*
X489538Y328600D01*
X489538Y328600D02*
X489538Y328600D01*
X488715Y328413D02*
X488901Y328600D01*
X488715Y328413D02*
Y328413D01*
X488078Y329049D02*
X488265Y329236D01*
Y329236D02*
Y329236D01*
X488265Y329872D02*
X488265Y329872D01*
X488265Y329872D01*
X488265Y329872D02*
X488265Y329872D01*
X487260Y329504D02*
X487629Y329872D01*
X487260Y329504D02*
Y329504D01*
X486624Y330141D02*
X486992Y330509D01*
Y330509D02*
Y330509D01*
X485778Y330568D02*
X486356Y331145D01*
X485778Y330568D02*
Y330568D01*
X485142D02*
X485142Y330568D01*
Y331204D02*
X485719Y331782D01*
Y331782D02*
Y331782D01*
X484116Y331451D02*
X485083Y332418D01*
X484116Y331451D02*
Y331451D01*
X483480Y332088D02*
X484446Y333054D01*
X484446Y333691D02*
X484446Y333691D01*
X483669Y334469D02*
X484446Y333691D01*
X495051Y327149D02*
X497102D01*
X486000Y333269D02*
X489969Y329300D01*
X492900D02*
X495051Y327149D01*
X489969Y329300D02*
X492900D01*
X489900Y330500D02*
X502700D01*
X487340Y333060D02*
X489900Y330500D01*
X468300Y339700D02*
X474100D01*
X477647Y336153D01*
X477647D01*
X474831Y340100D02*
X476400D01*
X474231Y340700D02*
X474831Y340100D01*
X472850Y340700D02*
X474231D01*
X477647Y336153D02*
X482600Y331200D01*
Y329568D02*
Y331200D01*
Y329568D02*
X484768Y327400D01*
X468000Y320800D02*
X468679D01*
X470876Y332256D02*
X471766Y331366D01*
X470876Y332892D02*
X471501Y333518D01*
Y333518D02*
Y333518D01*
X470236Y333526D02*
X470865Y334154D01*
X470236Y333525D02*
Y333526D01*
X469600D02*
X469600Y333525D01*
Y334162D02*
X470228Y334790D01*
Y334790D02*
Y334790D01*
X468966Y334801D02*
X469592Y335427D01*
X468966Y334801D02*
Y334801D01*
X468330Y335438D02*
X468955Y336063D01*
Y336063D02*
Y336063D01*
X468955Y336700D02*
X468955Y336700D01*
X468955Y336700D01*
X468955Y336700D02*
X468955Y336700D01*
X467694Y336074D02*
X468319Y336700D01*
X466916Y336216D02*
X467057Y336074D01*
X471766Y331366D02*
X474031Y329100D01*
X466531Y336600D02*
X466916Y336216D01*
X484720Y322600D02*
X484800Y322520D01*
X483366Y322600D02*
X484720D01*
X482916Y323050D02*
Y323783D01*
X482016Y323050D02*
Y323783D01*
X481116Y323050D02*
Y323783D01*
X480216Y323050D02*
Y323783D01*
X479316Y323050D02*
Y323783D01*
X478416Y323050D02*
Y323783D01*
X477516Y323050D02*
Y323783D01*
X476616Y323050D02*
Y323783D01*
X475966Y322600D02*
X476166D01*
X474393D02*
X475966D01*
X484800Y322520D02*
X485820Y321500D01*
X482800Y318830D02*
X482830Y318800D01*
X477708Y321799D02*
X477708Y321800D01*
X477790Y318830D02*
X482800D01*
X468490Y328503D02*
X474393Y322600D01*
X483771Y321000D02*
X485171Y319600D01*
X478371Y320200D02*
X483440D01*
X478370Y320199D02*
X478371Y320200D01*
X478040Y321000D02*
X483771D01*
X483440Y320200D02*
X484840Y318800D01*
X484103Y321800D02*
X485503Y320400D01*
X478039Y320999D02*
X478040Y321000D01*
X477708Y321800D02*
X484103D01*
X486620Y325700D02*
X486800D01*
X473574Y326569D02*
X474343Y325800D01*
X479842Y326600D02*
X485720D01*
X477342Y329100D02*
X479842Y326600D01*
X483700Y325800D02*
X486400Y323100D01*
X485720Y326600D02*
X486620Y325700D01*
X474343Y325800D02*
X483700D01*
X472346Y329654D02*
X473200Y328800D01*
X472346Y329654D02*
X472346Y329654D01*
X470409Y328352D02*
X471710Y329654D01*
X470409Y328352D02*
Y328352D01*
X469772Y328989D02*
X471073Y330290D01*
Y330290D02*
Y330290D01*
X469969Y330458D02*
X470437Y330927D01*
X469969Y330458D02*
Y330458D01*
X469333D02*
X469333Y330458D01*
Y331095D02*
X469801Y331563D01*
Y331563D02*
Y331563D01*
X468897Y331933D02*
X469164Y332199D01*
X468897Y331933D02*
Y331933D01*
X468261Y332569D02*
X468528Y332836D01*
X468528Y333472D02*
X468528Y333472D01*
X467750Y334250D02*
X468528Y333472D01*
X473200Y328800D02*
X473574Y328426D01*
X467600Y334400D02*
X467750Y334250D01*
X465477Y333200D02*
X466677Y334400D01*
X467600D01*
X473574Y326569D02*
Y328426D01*
X474031Y329100D02*
X477342D01*
X462800Y336600D02*
X466531D01*
X464400Y330300D02*
X473701Y320999D01*
X466900Y328962D02*
Y329400D01*
X464400Y330300D02*
Y331100D01*
X468490Y328503D02*
Y330170D01*
X466900Y328962D02*
X474063Y321799D01*
X466900Y329400D02*
X467090Y329590D01*
X473600Y342250D02*
Y342700D01*
X472616Y341266D02*
X473600Y342250D01*
X472616Y340934D02*
X472850Y340700D01*
X472616Y340934D02*
Y341266D01*
X476400Y340100D02*
X477587Y341287D01*
X474430Y343530D02*
X478498D01*
X473600Y342700D02*
X474430Y343530D01*
X468400Y323940D02*
X468500Y323840D01*
X468400Y323940D02*
Y324000D01*
X463000Y324900D02*
X463200Y324700D01*
Y322489D02*
Y324700D01*
X484768Y327400D02*
X488000D01*
X493969Y324169D02*
X494138Y323999D01*
X483200Y334937D02*
X483669Y334469D01*
X482224Y336544D02*
X483200Y335569D01*
Y334937D02*
Y335569D01*
X488000Y327400D02*
X494725Y320675D01*
X487340Y333060D02*
Y335560D01*
X485100Y337800D02*
X487340Y335560D01*
X486000Y333269D02*
Y334120D01*
X494138Y323999D02*
X497102D01*
X463000Y332500D02*
X464400Y331100D01*
X467670Y330990D02*
X468490Y330170D01*
X467549Y330990D02*
X467670D01*
X466994Y331545D02*
X467549Y330990D01*
X466669Y331545D02*
X466994D01*
X463000Y327149D02*
Y330500D01*
Y327149D02*
X466180Y323969D01*
X473701Y320999D02*
X478039D01*
X474063Y321799D02*
X477708D01*
X469409Y322930D02*
X470631D01*
X468500Y323840D02*
X469409Y322930D01*
X468679Y320800D02*
X470225Y319253D01*
X466180Y320640D02*
Y323969D01*
Y320640D02*
X468720Y318100D01*
X470644D01*
X463200Y322489D02*
X468389Y317300D01*
X470312D01*
X470056Y321525D02*
X470179D01*
X470631Y322930D02*
X473362Y320199D01*
X470179Y321525D02*
X472326Y319378D01*
X473362Y320199D02*
X478370D01*
X488520Y321720D02*
X488600Y321800D01*
X486980Y321500D02*
X487200Y321720D01*
X485820Y321500D02*
X486980D01*
X486400Y322900D02*
Y323100D01*
X487200Y321720D02*
X488520D01*
X506653Y287653D02*
X514000Y295000D01*
X492653Y287653D02*
X506653D01*
X514000Y295000D02*
Y300900D01*
X487500Y282500D02*
X492653Y287653D01*
X477500Y282500D02*
X483453Y288453D01*
X505553D01*
X512800Y295700D01*
X495133Y291312D02*
X495698D01*
X424000Y304000D02*
Y306500D01*
X425800Y308300D01*
X560433Y316952D02*
X564678Y312707D01*
X559633Y314459D02*
X564633Y309458D01*
X471133Y316164D02*
X474417Y312879D01*
X471133Y316164D02*
Y316480D01*
X472966Y315778D02*
X477598D01*
X470644Y318100D02*
X472966Y315778D01*
X468903Y311009D02*
X469049D01*
X469260Y310900D02*
X472513Y307647D01*
X469157Y310900D02*
X469260D01*
X469049Y311009D02*
X469157Y310900D01*
X465262Y312886D02*
X465940Y312208D01*
X470312Y317300D02*
X471133Y316480D01*
X470225Y319253D02*
X471319D01*
X472690Y317883D01*
X493800Y295500D02*
X495210Y296910D01*
X495220Y296900D02*
X495551D01*
X495210Y296910D02*
X495220Y296900D01*
X492336Y300359D02*
X492348Y300347D01*
X492378Y300377D01*
X472513Y305267D02*
Y307647D01*
X504598Y325498D02*
X504800Y325700D01*
X425800Y308300D02*
Y333191D01*
X514000Y300900D02*
X524500Y311400D01*
X512800Y301300D02*
X526000Y314500D01*
X489100Y340356D02*
X494124D01*
X488700Y335800D02*
X489100D01*
X494124Y340356D02*
X494355Y340125D01*
X499054D01*
X485100Y337800D02*
Y341700D01*
X481400Y336600D02*
X481537D01*
X481593Y336544D02*
X482224D01*
X478200Y339800D02*
X481400Y336600D01*
X481537D02*
X481593Y336544D01*
X502700Y330500D02*
X504800Y328400D01*
Y325700D02*
Y328400D01*
X485967Y338533D02*
X488700Y335800D01*
X499414Y346000D02*
X500222Y346808D01*
X496420Y346000D02*
X499414D01*
X499387Y344008D02*
X501381D01*
X498580Y343200D02*
X499387Y344008D01*
X499719Y343208D02*
X501713D01*
X498911Y342400D02*
X499719Y343208D01*
X497000Y347400D02*
X497208Y347608D01*
X501381Y344008D02*
X501696Y344322D01*
X501713Y343208D02*
X502027Y343522D01*
X501228Y342408D02*
X519830D01*
X500400Y341580D02*
X501228Y342408D01*
X495220Y347200D02*
X496420Y346000D01*
X492989Y347200D02*
X495220D01*
X494480Y346400D02*
X496600Y344280D01*
X493320Y346400D02*
X494480D01*
X497420Y343200D02*
X498580D01*
X496600Y344020D02*
X497420Y343200D01*
X496600Y344020D02*
Y344280D01*
X496500Y342400D02*
X498911D01*
X493900Y345000D02*
X496500Y342400D01*
X491481Y344561D02*
X493320Y346400D01*
X491149Y345360D02*
X492989Y347200D01*
X483322Y295500D02*
X493800D01*
X558050Y290000D02*
X559281Y291231D01*
X576311D01*
X585680Y300600D01*
X577140Y305800D02*
X578145Y306805D01*
X534784Y298916D02*
X548805D01*
X550500Y299500D02*
X552589D01*
X585680Y300600D02*
X592200D01*
X583170Y301700D02*
X584800D01*
X591400Y303100D02*
X591900Y302600D01*
X582680Y303100D02*
X591400D01*
X531800Y312300D02*
Y313500D01*
X530900Y311400D02*
X531800Y312300D01*
X524500Y311400D02*
X530900D01*
X526000Y314500D02*
X528700D01*
X530173Y313027D01*
Y312976D02*
Y313027D01*
X512800Y295700D02*
Y301300D01*
X500400Y341470D02*
Y341580D01*
X499054Y340125D02*
X500400Y341470D01*
X485967Y338533D02*
Y343826D01*
X519830Y342408D02*
X520145Y342722D01*
X489240Y346761D02*
X491418D01*
X486767Y343495D02*
X487833Y344561D01*
X491481D01*
X487501Y345360D02*
X491149D01*
X485967Y343826D02*
X487501Y345360D01*
X488959Y338956D02*
X489750Y338165D01*
X533323Y300377D02*
X534784Y298916D01*
X486767Y339776D02*
Y343495D01*
X487587Y338956D02*
X488959D01*
X486767Y339776D02*
X487587Y338956D01*
X533278Y306631D02*
X534741Y308095D01*
X533278Y306631D02*
X533278D01*
X494725Y320675D02*
X497277D01*
X488137Y314093D02*
X490973Y311257D01*
X488480Y316200D02*
X490728D01*
X488280Y316000D02*
X488480Y316200D01*
X490728D02*
X492828Y314100D01*
X488137Y314093D02*
Y314217D01*
X490973Y311257D02*
X497246D01*
X487317Y315037D02*
X488137Y314217D01*
X483568Y315037D02*
X487317D01*
X487251Y311000D02*
X487979Y310272D01*
X481916Y311000D02*
X487251D01*
X480933Y310017D02*
X481916Y311000D01*
X477380Y317400D02*
X487700D01*
X484840Y318800D02*
X489336D01*
X485171Y319600D02*
X491279D01*
X485503Y320400D02*
X491610D01*
X489336Y318800D02*
X492349Y315787D01*
X483250Y316000D02*
X488280D01*
X476469Y310017D02*
X480933D01*
X475061Y311425D02*
X476469Y310017D01*
X476513Y313287D02*
X481818D01*
X475061Y311425D02*
Y311479D01*
X478578Y297178D02*
X480556Y295200D01*
X475007Y311479D02*
X475061D01*
X480556Y295200D02*
X483022D01*
X472513Y305267D02*
X477421Y300359D01*
X474417Y312879D02*
X476105D01*
X483022Y295200D02*
X483322Y295500D01*
X476105Y312879D02*
X476513Y313287D01*
X477598Y315778D02*
X478020Y316200D01*
X492828Y314100D02*
X497553D01*
X476558Y316578D02*
X477380Y317400D01*
X478020Y316200D02*
X483050D01*
X483250Y316000D01*
X472690Y317883D02*
X473129D01*
X474434Y316578D01*
X476558D01*
X477243Y319378D02*
X477790Y318830D01*
X472326Y319378D02*
X477243D01*
X481818Y313287D02*
X483568Y315037D01*
X498677Y325574D02*
X498677D01*
X497102Y323999D02*
X498677Y322424D01*
X497277Y320675D02*
X498677Y319275D01*
X496940Y316125D02*
X498677D01*
X497553Y314100D02*
X498677Y312976D01*
X491279Y319600D02*
X493979Y316900D01*
X492349Y315787D02*
X495351D01*
X493979Y316900D02*
X496166D01*
X496940Y316125D01*
X495351Y315734D02*
X495586Y315500D01*
X491610Y320400D02*
X494310Y317700D01*
X495351Y315734D02*
Y315787D01*
X494310Y317700D02*
X500252D01*
X498625Y309826D02*
Y309974D01*
Y309826D02*
X498677D01*
X498529Y309974D02*
X498625D01*
X497102Y327149D02*
X498677Y325574D01*
X497246Y311257D02*
X498529Y309974D01*
X500252Y317700D02*
X501827Y316125D01*
D51*
X612900Y349900D02*
D03*
X623000Y348600D02*
D03*
X603500Y346700D02*
D03*
X592550Y349350D02*
D03*
X417400Y303000D02*
D03*
X539550Y319706D02*
D03*
X551900Y315400D02*
D03*
X539705Y291597D02*
D03*
X542500Y291700D02*
D03*
X536500Y316300D02*
D03*
X539500D02*
D03*
X539622Y312976D02*
D03*
X536600Y313000D02*
D03*
X512400Y280800D02*
D03*
X452700Y354500D02*
D03*
X462700D02*
D03*
X472600D02*
D03*
X482300D02*
D03*
X492600D02*
D03*
X552600D02*
D03*
X562600D02*
D03*
X572400D02*
D03*
X582400D02*
D03*
X591800D02*
D03*
X602800Y350300D02*
D03*
X565300Y338700D02*
D03*
X580200Y323400D02*
D03*
X579500Y327500D02*
D03*
X615800Y291400D02*
D03*
X594600Y288400D02*
D03*
X582400Y283500D02*
D03*
X520721Y293552D02*
D03*
X552800Y312749D02*
D03*
X441100Y323300D02*
D03*
X621200Y312100D02*
D03*
X621000Y308200D02*
D03*
X615700Y297900D02*
D03*
X619100D02*
D03*
X622900Y352600D02*
D03*
X622800Y354900D02*
D03*
X615600Y345100D02*
D03*
X621000Y335800D02*
D03*
X622800Y317200D02*
D03*
X623300Y282400D02*
D03*
X623200Y290600D02*
D03*
X622600Y306500D02*
D03*
Y310500D02*
D03*
X622500Y315000D02*
D03*
Y295000D02*
D03*
X620000Y290000D02*
D03*
X622500Y285000D02*
D03*
X617500Y295000D02*
D03*
X610000Y300000D02*
D03*
X612500Y285000D02*
D03*
X605000Y320000D02*
D03*
X600000D02*
D03*
X592500Y285000D02*
D03*
X580000Y320000D02*
D03*
X572500Y285000D02*
D03*
X562500D02*
D03*
X552500D02*
D03*
X542500D02*
D03*
X450000Y300000D02*
D03*
X447500Y295000D02*
D03*
X437500Y315000D02*
D03*
Y305000D02*
D03*
X435000Y300000D02*
D03*
Y290000D02*
D03*
X420000Y330000D02*
D03*
X432000Y296000D02*
D03*
X562800Y337400D02*
D03*
X583100Y336000D02*
D03*
X596813Y345435D02*
D03*
X560237Y337900D02*
D03*
X597100Y299500D02*
D03*
X565498Y307325D02*
D03*
X586300Y331200D02*
D03*
X581099Y307700D02*
D03*
X580583Y305768D02*
D03*
X576390Y313600D02*
D03*
X557600Y308800D02*
D03*
X600000Y289200D02*
D03*
X587525Y345665D02*
D03*
X572810Y343300D02*
D03*
X430300Y352400D02*
D03*
X428000Y352300D02*
D03*
X426300Y303700D02*
D03*
X432000Y298200D02*
D03*
X430400Y299800D02*
D03*
X428400Y299700D02*
D03*
X462591Y316124D02*
D03*
X491900Y303527D02*
D03*
X489000Y302100D02*
D03*
X467290Y310642D02*
D03*
X487000Y296900D02*
D03*
Y298900D02*
D03*
X468200Y308700D02*
D03*
X462403Y305094D02*
D03*
X463997Y303563D02*
D03*
X505000Y294100D02*
D03*
X463100Y292800D02*
D03*
X468300Y339700D02*
D03*
X466900Y315700D02*
D03*
X468000Y320800D02*
D03*
X482830Y318800D02*
D03*
X468400Y324000D02*
D03*
X463000Y324900D02*
D03*
Y332500D02*
D03*
X467090Y329590D02*
D03*
X463000Y330500D02*
D03*
X466669Y331545D02*
D03*
X470056Y321525D02*
D03*
X462800Y336600D02*
D03*
X486800Y325700D02*
D03*
X486400Y322900D02*
D03*
X430350Y347977D02*
D03*
X430300Y312000D02*
D03*
X428200Y348000D02*
D03*
X428300Y346100D02*
D03*
X430400D02*
D03*
X623048Y297253D02*
D03*
X514473Y291027D02*
D03*
X501500Y284900D02*
D03*
X495698Y291312D02*
D03*
X429698Y309100D02*
D03*
X426100Y306588D02*
D03*
X424000Y304000D02*
D03*
X440100Y352000D02*
D03*
X435300Y324000D02*
D03*
X551400Y328900D02*
D03*
X555700Y324700D02*
D03*
X564129Y325082D02*
D03*
X561833Y318584D02*
D03*
X524362Y296822D02*
D03*
X539500Y331900D02*
D03*
X550500Y291978D02*
D03*
X472200Y345300D02*
D03*
X467096Y313608D02*
D03*
X451518Y323400D02*
D03*
X498278Y300473D02*
D03*
X495551Y296900D02*
D03*
X492378Y300377D02*
D03*
X498700Y296753D02*
D03*
X458784Y308333D02*
D03*
X452700Y309800D02*
D03*
X448348Y320900D02*
D03*
X451188Y326973D02*
D03*
X452900Y335100D02*
D03*
X450200Y338000D02*
D03*
X450700Y295900D02*
D03*
X447100Y308500D02*
D03*
X447200Y314200D02*
D03*
X442600Y315600D02*
D03*
X452300Y313200D02*
D03*
X447708Y344465D02*
D03*
X444100Y321000D02*
D03*
X508200Y325569D02*
D03*
X504598Y325498D02*
D03*
X419500Y342700D02*
D03*
X430500Y314300D02*
D03*
X517600Y300352D02*
D03*
X489100Y342949D02*
D03*
Y340356D02*
D03*
Y335800D02*
D03*
X501827Y325574D02*
D03*
X454500Y343100D02*
D03*
X497000Y347400D02*
D03*
X493900Y345000D02*
D03*
X452687Y291928D02*
D03*
X533323Y293700D02*
D03*
X570931Y289831D02*
D03*
X578145Y306805D02*
D03*
X550500Y299500D02*
D03*
X539730Y297119D02*
D03*
X523874Y338172D02*
D03*
X584800Y301700D02*
D03*
X592550Y344640D02*
D03*
X533323Y312976D02*
D03*
X530173D02*
D03*
X495528Y338172D02*
D03*
X489240Y346761D02*
D03*
X489750Y338165D02*
D03*
X527024Y316125D02*
D03*
X517575Y309826D02*
D03*
X514425D02*
D03*
X511276Y319275D02*
D03*
Y316125D02*
D03*
Y312976D02*
D03*
Y309826D02*
D03*
Y306676D02*
D03*
X508251Y322424D02*
D03*
X511276Y328724D02*
D03*
Y331873D02*
D03*
X527024Y322424D02*
D03*
Y331873D02*
D03*
X523874D02*
D03*
X536472Y338172D02*
D03*
X511276D02*
D03*
X564633Y309458D02*
D03*
X564678Y312707D02*
D03*
X591900Y302600D02*
D03*
X592200Y300600D02*
D03*
X536397Y306695D02*
D03*
X533278Y306631D02*
D03*
X487700Y317400D02*
D03*
X488600Y321800D02*
D03*
X533323Y319275D02*
D03*
Y300377D02*
D03*
X536472Y303527D02*
D03*
X501827Y319275D02*
D03*
X564068Y328770D02*
D03*
X610616Y289279D02*
D03*
X607143Y289258D02*
D03*
X603498Y289138D02*
D03*
X475007Y311479D02*
D03*
X498677Y325574D02*
D03*
Y319275D02*
D03*
X498677Y316125D02*
D03*
X498677Y322424D02*
D03*
X495586Y315500D02*
D03*
X498677Y312976D02*
D03*
Y309826D02*
D03*
X465477Y333200D02*
D03*
X478498Y343530D02*
D03*
X478200Y339800D02*
D03*
X501827Y316125D02*
D03*
M02*
